Veleka-Bold.ufo
<glyph name="exclam" format="1">
  <advance width="339"/>
  <unicode hex="0021"/>
  <outline>
    <contour>
      <point x="252" y="606" type="curve"/>
      <point x="198" y="208" type="line"/>
      <point x="144" y="208" type="line"/>
      <point x="89" y="606" type="line"/>
      <point x="89" y="662"/>
      <point x="126" y="687"/>
      <point x="171" y="687" type="curve" smooth="yes"/>
      <point x="216" y="687"/>
      <point x="252" y="663"/>
    </contour>
    <contour>
      <point x="251" y="70" type="curve" smooth="yes"/>
      <point x="251" y="24"/>
      <point x="214" y="-12"/>
      <point x="171" y="-12" type="curve" smooth="yes"/>
      <point x="138" y="-12"/>
      <point x="90" y="11"/>
      <point x="90" y="70" type="curve" smooth="yes"/>
      <point x="90" y="122"/>
      <point x="134" y="149"/>
      <point x="171" y="149" type="curve" smooth="yes"/>
      <point x="208" y="149"/>
      <point x="251" y="119"/>
    </contour>
  </outline>
</glyph>
<glyph name="quotedbl" format="1">
  <advance width="392"/>
  <unicode hex="0022"/>
  <outline>
    <contour>
      <point x="312" y="417" type="line"/>
      <point x="275" y="417" type="line"/>
      <point x="236" y="651" type="line"/>
      <point x="236" y="688"/>
      <point x="253" y="714"/>
      <point x="293" y="714" type="curve" smooth="yes"/>
      <point x="334" y="714"/>
      <point x="352" y="688"/>
      <point x="352" y="651" type="curve"/>
    </contour>
    <contour>
      <point x="116" y="417" type="line"/>
      <point x="79" y="417" type="line"/>
      <point x="40" y="651" type="line"/>
      <point x="40" y="688"/>
      <point x="57" y="714"/>
      <point x="97" y="714" type="curve" smooth="yes"/>
      <point x="137" y="714"/>
      <point x="155" y="688"/>
      <point x="155" y="651" type="curve"/>
    </contour>
  </outline>
</glyph>
<glyph name="parenright" format="1">
  <advance width="392"/>
  <unicode hex="0029"/>
  <outline>
    <contour>
      <point x="333" y="288" type="curve" smooth="yes"/>
      <point x="333" y="27"/>
      <point x="230" y="-137"/>
      <point x="34" y="-142" type="curve"/>
      <point x="34" y="-88" type="line"/>
      <point x="174" y="-69"/>
      <point x="206" y="83"/>
      <point x="206" y="288" type="curve" smooth="yes"/>
      <point x="206" y="493"/>
      <point x="174" y="644"/>
      <point x="34" y="663" type="curve"/>
      <point x="34" y="717" type="line"/>
      <point x="230" y="711"/>
      <point x="333" y="549"/>
    </contour>
  </outline>
</glyph>
<glyph name="comma" format="1">
  <advance width="317"/>
  <unicode hex="002C"/>
  <outline>
    <contour>
      <point x="242" y="59" type="curve" smooth="yes"/>
      <point x="242" y="-65"/>
      <point x="131" y="-169"/>
      <point x="35" y="-176" type="curve"/>
      <point x="35" y="-127" type="line"/>
      <point x="86" y="-119"/>
      <point x="159" y="-87"/>
      <point x="155" y="7" type="curve"/>
      <point x="94" y="7" type="line"/>
      <point x="70" y="26"/>
      <point x="63" y="51"/>
      <point x="63" y="71" type="curve" smooth="yes"/>
      <point x="63" y="121"/>
      <point x="104" y="155"/>
      <point x="147" y="155" type="curve" smooth="yes"/>
      <point x="207" y="155"/>
      <point x="242" y="117"/>
    </contour>
  </outline>
</glyph>
<glyph name="zero" format="1">
  <advance width="586"/>
  <unicode hex="0030"/>
  <outline>
    <contour>
      <point x="552" y="335" type="curve" smooth="yes"/>
      <point x="552" y="147"/>
      <point x="475" y="-12"/>
      <point x="293" y="-12" type="curve" smooth="yes"/>
      <point x="112" y="-12"/>
      <point x="36" y="147"/>
      <point x="36" y="335" type="curve" smooth="yes"/>
      <point x="36" y="522"/>
      <point x="112" y="683"/>
      <point x="293" y="683" type="curve" smooth="yes"/>
      <point x="475" y="683"/>
      <point x="552" y="522"/>
    </contour>
    <contour>
      <point x="406" y="335" type="curve" smooth="yes"/>
      <point x="406" y="422"/>
      <point x="401" y="625"/>
      <point x="293" y="625" type="curve" smooth="yes"/>
      <point x="186" y="625"/>
      <point x="182" y="422"/>
      <point x="182" y="335" type="curve" smooth="yes"/>
      <point x="182" y="248"/>
      <point x="186" y="47"/>
      <point x="293" y="47" type="curve" smooth="yes"/>
      <point x="401" y="47"/>
      <point x="406" y="248"/>
    </contour>
  </outline>
</glyph>
<glyph name="bracketleft" format="1">
  <advance width="547"/>
  <unicode hex="005B"/>
  <outline>
    <contour>
      <point x="512" y="-132" type="line"/>
      <point x="234" y="-132" type="line"/>
      <point x="234" y="708" type="line"/>
      <point x="512" y="708" type="line"/>
      <point x="512" y="648" type="line"/>
      <point x="358" y="648" type="line"/>
      <point x="358" y="-74" type="line"/>
      <point x="512" y="-74" type="line"/>
    </contour>
  </outline>
</glyph>
<glyph name="cent" format="1">
  <advance width="586"/>
  <unicode hex="00A2"/>
  <outline>
    <contour>
      <point x="521" y="27" type="line"/>
      <point x="508" y="13"/>
      <point x="401" y="0"/>
      <point x="379" y="0" type="curve"/>
      <point x="379" y="-103" type="line"/>
      <point x="322" y="-103" type="line"/>
      <point x="322" y="1" type="line"/>
      <point x="183" y="1"/>
      <point x="66" y="111"/>
      <point x="66" y="252" type="curve" smooth="yes"/>
      <point x="66" y="404"/>
      <point x="182" y="512"/>
      <point x="322" y="512" type="curve"/>
      <point x="322" y="615" type="line"/>
      <point x="379" y="615" type="line"/>
      <point x="379" y="514" type="line"/>
      <point x="423" y="514"/>
      <point x="487" y="500"/>
      <point x="521" y="484" type="curve"/>
      <point x="521" y="340" type="line"/>
      <point x="459" y="340" type="line"/>
      <point x="448" y="412" type="line"/>
      <point x="448" y="435" type="line"/>
      <point x="439" y="442"/>
      <point x="405" y="455"/>
      <point x="379" y="455" type="curve"/>
      <point x="379" y="60" type="line"/>
      <point x="425" y="60"/>
      <point x="447" y="76"/>
      <point x="447" y="76" type="curve"/>
      <point x="447" y="96" type="line"/>
      <point x="459" y="176" type="line"/>
      <point x="521" y="176" type="line"/>
    </contour>
    <contour>
      <point x="322" y="62" type="curve"/>
      <point x="322" y="453" type="line"/>
      <point x="268" y="442"/>
      <point x="204" y="387"/>
      <point x="204" y="252" type="curve" smooth="yes"/>
      <point x="204" y="145"/>
      <point x="262" y="77"/>
    </contour>
  </outline>
</glyph>
<glyph name="sterling" format="1">
  <advance width="586"/>
  <unicode hex="00A3"/>
  <outline>
    <contour>
      <point x="544" y="0" type="line"/>
      <point x="42" y="0" type="line"/>
      <point x="42" y="76" type="line"/>
      <point x="61" y="85"/>
      <point x="149" y="78"/>
      <point x="146" y="253" type="curve" smooth="yes"/>
      <point x="145" y="297" type="line"/>
      <point x="75" y="297" type="line"/>
      <point x="75" y="361" type="line"/>
      <point x="144" y="361" type="line"/>
      <point x="144" y="361"/>
      <point x="140" y="391"/>
      <point x="140" y="411" type="curve" smooth="yes"/>
      <point x="140" y="568"/>
      <point x="209" y="687"/>
      <point x="372" y="687" type="curve" smooth="yes"/>
      <point x="443" y="687"/>
      <point x="544" y="652"/>
      <point x="544" y="567" type="curve" smooth="yes"/>
      <point x="544" y="521"/>
      <point x="504" y="497"/>
      <point x="463" y="497" type="curve" smooth="yes"/>
      <point x="446" y="497"/>
      <point x="420" y="506"/>
      <point x="420" y="506" type="curve"/>
      <point x="420" y="628" type="line"/>
      <point x="420" y="628"/>
      <point x="413" y="632"/>
      <point x="390" y="632" type="curve" smooth="yes"/>
      <point x="269" y="632"/>
      <point x="273" y="479"/>
      <point x="273" y="415" type="curve" smooth="yes"/>
      <point x="273" y="383"/>
      <point x="275" y="361"/>
      <point x="275" y="361" type="curve"/>
      <point x="456" y="361" type="line"/>
      <point x="456" y="297" type="line"/>
      <point x="277" y="297" type="line"/>
      <point x="277" y="226"/>
      <point x="263" y="161"/>
      <point x="169" y="98" type="curve"/>
      <point x="169" y="98"/>
      <point x="229" y="106"/>
      <point x="235" y="106" type="curve" smooth="yes"/>
      <point x="544" y="106" type="line"/>
    </contour>
  </outline>
</glyph>
<glyph name="currency" format="1">
  <advance width="609"/>
  <unicode hex="00A4"/>
  <outline>
    <contour>
      <point x="580" y="196" type="line"/>
      <point x="544" y="160" type="line"/>
      <point x="441" y="263" type="line"/>
      <point x="405" y="232"/>
      <point x="358" y="216"/>
      <point x="312" y="216" type="curve" smooth="yes"/>
      <point x="262" y="216"/>
      <point x="216" y="231"/>
      <point x="179" y="263" type="curve"/>
      <point x="76" y="160" type="line"/>
      <point x="40" y="196" type="line"/>
      <point x="143" y="299" type="line"/>
      <point x="114" y="335"/>
      <point x="99" y="380"/>
      <point x="99" y="427" type="curve" smooth="yes"/>
      <point x="99" y="473"/>
      <point x="113" y="524"/>
      <point x="145" y="559" type="curve"/>
      <point x="40" y="664" type="line"/>
      <point x="76" y="700" type="line"/>
      <point x="181" y="595" type="line"/>
      <point x="217" y="624"/>
      <point x="265" y="639"/>
      <point x="312" y="639" type="curve" smooth="yes"/>
      <point x="358" y="639"/>
      <point x="404" y="623"/>
      <point x="438" y="594" type="curve"/>
      <point x="544" y="700" type="line"/>
      <point x="580" y="664" type="line"/>
      <point x="476" y="560" type="line"/>
      <point x="504" y="525"/>
      <point x="521" y="475"/>
      <point x="521" y="428" type="curve" smooth="yes"/>
      <point x="521" y="381"/>
      <point x="507" y="335"/>
      <point x="477" y="299" type="curve"/>
    </contour>
    <contour>
      <point x="464" y="428" type="curve" smooth="yes"/>
      <point x="464" y="511"/>
      <point x="396" y="582"/>
      <point x="312" y="582" type="curve" smooth="yes"/>
      <point x="225" y="582"/>
      <point x="156" y="514"/>
      <point x="156" y="427" type="curve" smooth="yes"/>
      <point x="156" y="341"/>
      <point x="226" y="273"/>
      <point x="312" y="273" type="curve" smooth="yes"/>
      <point x="397" y="273"/>
      <point x="464" y="344"/>
    </contour>
  </outline>
</glyph>
<glyph name="one.superior" format="1">
  <advance width="402"/>
  <unicode hex="00B9"/>
  <outline>
    <contour>
      <point x="321" y="439" type="line"/>
      <point x="73" y="439" type="line"/>
      <point x="73" y="478" type="line"/>
      <point x="133" y="480" type="line" smooth="yes"/>
      <point x="141" y="481"/>
      <point x="148" y="487"/>
      <point x="148" y="495" type="curve" smooth="yes"/>
      <point x="148" y="819" type="line"/>
      <point x="49" y="806" type="line"/>
      <point x="49" y="840" type="line"/>
      <point x="199" y="897" type="line"/>
      <point x="254" y="897" type="line"/>
      <point x="254" y="495" type="line" smooth="yes"/>
      <point x="254" y="487"/>
      <point x="261" y="481"/>
      <point x="269" y="480" type="curve" smooth="yes"/>
      <point x="321" y="478" type="line"/>
    </contour>
  </outline>
</glyph>
<glyph name="ordmasculine" format="1">
  <advance width="379"/>
  <unicode hex="00BA"/>
  <outline>
    <contour>
      <point x="359" y="527" type="curve" smooth="yes"/>
      <point x="359" y="438"/>
      <point x="296" y="376"/>
      <point x="188" y="376" type="curve" smooth="yes"/>
      <point x="89" y="376"/>
      <point x="21" y="433"/>
      <point x="21" y="528" type="curve" smooth="yes"/>
      <point x="21" y="626"/>
      <point x="92" y="683"/>
      <point x="193" y="683" type="curve" smooth="yes"/>
      <point x="300" y="683"/>
      <point x="359" y="619"/>
    </contour>
    <contour>
      <point x="340" y="299" type="line"/>
      <point x="41" y="299" type="line"/>
      <point x="41" y="334" type="line"/>
      <point x="340" y="334" type="line"/>
    </contour>
    <contour>
      <point x="263" y="528" type="curve" smooth="yes"/>
      <point x="263" y="579"/>
      <point x="249" y="649"/>
      <point x="190" y="649" type="curve" smooth="yes"/>
      <point x="131" y="649"/>
      <point x="118" y="582"/>
      <point x="118" y="530" type="curve" smooth="yes"/>
      <point x="118" y="479"/>
      <point x="130" y="409"/>
      <point x="191" y="409" type="curve" smooth="yes"/>
      <point x="250" y="409"/>
      <point x="263" y="475"/>
    </contour>
  </outline>
</glyph>
<glyph name="questiondown" format="1">
  <advance width="521"/>
  <unicode hex="00BF"/>
  <outline>
    <contour>
      <point x="391" y="419" type="curve" smooth="yes"/>
      <point x="391" y="375"/>
      <point x="357" y="339"/>
      <point x="314" y="339" type="curve" smooth="yes"/>
      <point x="266" y="339"/>
      <point x="233" y="378"/>
      <point x="233" y="423" type="curve" smooth="yes"/>
      <point x="233" y="467"/>
      <point x="271" y="500"/>
      <point x="315" y="500" type="curve" smooth="yes"/>
      <point x="358" y="500"/>
      <point x="391" y="462"/>
    </contour>
    <contour>
      <point x="478" y="-80" type="curve" smooth="yes"/>
      <point x="478" y="-167"/>
      <point x="372" y="-199"/>
      <point x="291" y="-199" type="curve" smooth="yes"/>
      <point x="162" y="-199"/>
      <point x="64" y="-125"/>
      <point x="64" y="-9" type="curve" smooth="yes"/>
      <point x="64" y="161"/>
      <point x="281" y="205"/>
      <point x="281" y="205" type="curve"/>
      <point x="281" y="290" type="line"/>
      <point x="349" y="290" type="line"/>
      <point x="349" y="157" type="line"/>
      <point x="349" y="157"/>
      <point x="204" y="126"/>
      <point x="204" y="-11" type="curve" smooth="yes"/>
      <point x="204" y="-85"/>
      <point x="247" y="-138"/>
      <point x="335" y="-138" type="curve"/>
      <point x="380" y="-18" type="line"/>
      <point x="380" y="-18"/>
      <point x="382" y="-16"/>
      <point x="392" y="-16" type="curve" smooth="yes"/>
      <point x="418" y="-16"/>
      <point x="478" y="-18"/>
    </contour>
  </outline>
</glyph>
<glyph name="Thorn" format="1">
  <advance width="613"/>
  <unicode hex="00DE"/>
  <outline>
    <contour>
      <point x="577" y="347" type="curve" smooth="yes"/>
      <point x="577" y="207"/>
      <point x="484" y="126"/>
      <point x="312" y="126" type="curve" smooth="yes"/>
      <point x="287" y="126"/>
      <point x="247" y="129"/>
      <point x="247" y="129" type="curve"/>
      <point x="247" y="76" type="line" smooth="yes"/>
      <point x="247" y="64"/>
      <point x="257" y="55"/>
      <point x="269" y="54" type="curve" smooth="yes"/>
      <point x="329" y="51" type="line"/>
      <point x="329" y="0" type="line"/>
      <point x="26" y="0" type="line"/>
      <point x="26" y="51" type="line"/>
      <point x="82" y="54" type="line" smooth="yes"/>
      <point x="94" y="55"/>
      <point x="104" y="64"/>
      <point x="104" y="76" type="curve" smooth="yes"/>
      <point x="104" y="595" type="line" smooth="yes"/>
      <point x="104" y="608"/>
      <point x="94" y="617"/>
      <point x="82" y="617" type="curve" smooth="yes"/>
      <point x="26" y="620" type="line"/>
      <point x="26" y="671" type="line"/>
      <point x="329" y="671" type="line"/>
      <point x="329" y="620" type="line"/>
      <point x="269" y="617" type="line" smooth="yes"/>
      <point x="257" y="617"/>
      <point x="247" y="608"/>
      <point x="247" y="595" type="curve" smooth="yes"/>
      <point x="247" y="549" type="line"/>
      <point x="348" y="547" type="line" smooth="yes"/>
      <point x="469" y="545"/>
      <point x="577" y="496"/>
    </contour>
    <contour>
      <point x="428" y="343" type="curve" smooth="yes"/>
      <point x="428" y="443"/>
      <point x="373" y="491"/>
      <point x="299" y="491" type="curve" smooth="yes"/>
      <point x="282" y="491"/>
      <point x="264" y="488"/>
      <point x="247" y="487" type="curve"/>
      <point x="247" y="188" type="line"/>
      <point x="247" y="188"/>
      <point x="263" y="187"/>
      <point x="276" y="187" type="curve" smooth="yes"/>
      <point x="376" y="187"/>
      <point x="428" y="235"/>
    </contour>
  </outline>
</glyph>
<glyph name="germandbls" format="1">
  <advance width="676"/>
  <unicode hex="00DF"/>
  <outline>
    <contour>
      <point x="27" y="0" type="line"/>
      <point x="27" y="47" type="line"/>
      <point x="67" y="50" type="line" smooth="yes"/>
      <point x="79" y="51"/>
      <point x="90" y="58"/>
      <point x="90" y="72" type="curve" smooth="yes"/>
      <point x="90" y="443" type="line" smooth="yes"/>
      <point x="90" y="538"/>
      <point x="131" y="747"/>
      <point x="372" y="747" type="curve" smooth="yes"/>
      <point x="473" y="747"/>
      <point x="575" y="687"/>
      <point x="575" y="560" type="curve" smooth="yes"/>
      <point x="575" y="528"/>
      <point x="572" y="498"/>
      <point x="565" y="473" type="curve"/>
      <point x="559" y="474"/>
      <point x="553" y="474"/>
      <point x="548" y="474" type="curve" smooth="yes"/>
      <point x="535" y="474" type="line" smooth="yes"/>
      <point x="491" y="473"/>
      <point x="445" y="453"/>
      <point x="445" y="403" type="curve" smooth="yes"/>
      <point x="445" y="317"/>
      <point x="646" y="297"/>
      <point x="646" y="157" type="curve" smooth="yes"/>
      <point x="646" y="53"/>
      <point x="553" y="-12"/>
      <point x="449" y="-12" type="curve" smooth="yes"/>
      <point x="378" y="-12"/>
      <point x="318" y="8"/>
      <point x="318" y="8" type="curve"/>
      <point x="318" y="153" type="line"/>
      <point x="384" y="153" type="line"/>
      <point x="392" y="59" type="line"/>
      <point x="392" y="59"/>
      <point x="407" y="45"/>
      <point x="444" y="45" type="curve" smooth="yes"/>
      <point x="492" y="45"/>
      <point x="521" y="85"/>
      <point x="521" y="121" type="curve" smooth="yes"/>
      <point x="521" y="232"/>
      <point x="315" y="220"/>
      <point x="315" y="359" type="curve" smooth="yes"/>
      <point x="315" y="434"/>
      <point x="364" y="477"/>
      <point x="428" y="493" type="curve"/>
      <point x="428" y="493"/>
      <point x="437" y="548"/>
      <point x="437" y="570" type="curve" smooth="yes"/>
      <point x="437" y="619"/>
      <point x="410" y="686"/>
      <point x="347" y="686" type="curve" smooth="yes"/>
      <point x="227" y="686"/>
      <point x="224" y="533"/>
      <point x="224" y="498" type="curve" smooth="yes"/>
      <point x="224" y="72" type="line" smooth="yes"/>
      <point x="224" y="58"/>
      <point x="235" y="51"/>
      <point x="247" y="50" type="curve" smooth="yes"/>
      <point x="287" y="47" type="line"/>
      <point x="287" y="0" type="line"/>
    </contour>
  </outline>
</glyph>
<glyph name="oacute" format="1">
  <advance width="583"/>
  <unicode hex="00F3"/>
  <outline>
    <contour>
      <point x="553" y="241" type="curve" smooth="yes"/>
      <point x="553" y="92"/>
      <point x="455" y="-12"/>
      <point x="289" y="-12" type="curve" smooth="yes"/>
      <point x="137" y="-12"/>
      <point x="32" y="84"/>
      <point x="32" y="242" type="curve" smooth="yes"/>
      <point x="32" y="406"/>
      <point x="141" y="500"/>
      <point x="296" y="500" type="curve" smooth="yes"/>
      <point x="461" y="500"/>
      <point x="553" y="393"/>
    </contour>
    <contour>
      <point x="404" y="242" type="curve" smooth="yes"/>
      <point x="404" y="327"/>
      <point x="384" y="443"/>
      <point x="292" y="443" type="curve" smooth="yes"/>
      <point x="202" y="443"/>
      <point x="182" y="332"/>
      <point x="182" y="246" type="curve" smooth="yes"/>
      <point x="182" y="160"/>
      <point x="200" y="44"/>
      <point x="293" y="44" type="curve" smooth="yes"/>
      <point x="384" y="44"/>
      <point x="404" y="153"/>
    </contour>
    <contour>
      <point x="454" y="681" type="curve" smooth="yes"/>
      <point x="454" y="668"/>
      <point x="442" y="647"/>
      <point x="428" y="639" type="curve" smooth="yes"/>
      <point x="266" y="551" type="line"/>
      <point x="196" y="551" type="line"/>
      <point x="333" y="702" type="line" smooth="yes"/>
      <point x="356" y="727"/>
      <point x="369" y="734"/>
      <point x="396" y="734" type="curve" smooth="yes"/>
      <point x="439" y="734"/>
      <point x="454" y="705"/>
    </contour>
  </outline>
</glyph>
<glyph name="Gcedilla" format="1">
  <advance width="715"/>
  <unicode hex="0122"/>
  <outline>
    <contour>
      <point x="693" y="281" type="line"/>
      <point x="642" y="276" type="line" smooth="yes"/>
      <point x="630" y="275"/>
      <point x="619" y="267"/>
      <point x="619" y="254" type="curve" smooth="yes"/>
      <point x="619" y="31" type="line"/>
      <point x="619" y="31"/>
      <point x="521" y="-16"/>
      <point x="387" y="-16" type="curve" smooth="yes"/>
      <point x="187" y="-16"/>
      <point x="37" y="124"/>
      <point x="37" y="337" type="curve" smooth="yes"/>
      <point x="37" y="553"/>
      <point x="188" y="687"/>
      <point x="395" y="687" type="curve" smooth="yes"/>
      <point x="526" y="687"/>
      <point x="620" y="648"/>
      <point x="620" y="648" type="curve"/>
      <point x="620" y="475" type="line"/>
      <point x="542" y="475" type="line"/>
      <point x="522" y="583" type="line" smooth="yes"/>
      <point x="521" y="590"/>
      <point x="512" y="601"/>
      <point x="504" y="604" type="curve" smooth="yes"/>
      <point x="473" y="616"/>
      <point x="443" y="621"/>
      <point x="432" y="621" type="curve" smooth="yes"/>
      <point x="258" y="621"/>
      <point x="192" y="483"/>
      <point x="192" y="341" type="curve" smooth="yes"/>
      <point x="192" y="169"/>
      <point x="279" y="59"/>
      <point x="436" y="59" type="curve" smooth="yes"/>
      <point x="445" y="59"/>
      <point x="457" y="57"/>
      <point x="481" y="59" type="curve"/>
      <point x="481" y="254" type="line" smooth="yes"/>
      <point x="481" y="267"/>
      <point x="470" y="276"/>
      <point x="458" y="276" type="curve" smooth="yes"/>
      <point x="391" y="281" type="line"/>
      <point x="391" y="332" type="line"/>
      <point x="693" y="332" type="line"/>
    </contour>
    <contour>
      <point x="462" y="-146" type="curve" smooth="yes"/>
      <point x="462" y="-214"/>
      <point x="398" y="-262"/>
      <point x="321" y="-277" type="curve"/>
      <point x="321" y="-237" type="line"/>
      <point x="360" y="-226"/>
      <point x="392" y="-195"/>
      <point x="392" y="-163" type="curve"/>
      <point x="329" y="-163" type="line"/>
      <point x="316" y="-151"/>
      <point x="309" y="-135"/>
      <point x="309" y="-119" type="curve" smooth="yes"/>
      <point x="309" y="-80"/>
      <point x="341" y="-61"/>
      <point x="376" y="-61" type="curve" smooth="yes"/>
      <point x="427" y="-61"/>
      <point x="462" y="-99"/>
    </contour>
  </outline>
</glyph>
<glyph name="hcircumflex" format="1">
  <advance width="625"/>
  <unicode hex="0125"/>
  <outline>
    <contour>
      <point x="600" y="0" type="line"/>
      <point x="348" y="0" type="line"/>
      <point x="348" y="47" type="line"/>
      <point x="380" y="50" type="line" smooth="yes"/>
      <point x="392" y="51"/>
      <point x="402" y="61"/>
      <point x="402" y="73" type="curve" smooth="yes"/>
      <point x="402" y="309" type="line" smooth="yes"/>
      <point x="402" y="342"/>
      <point x="392" y="408"/>
      <point x="318" y="408" type="curve" smooth="yes"/>
      <point x="278" y="408"/>
      <point x="224" y="395"/>
      <point x="224" y="395" type="curve"/>
      <point x="224" y="73" type="line" smooth="yes"/>
      <point x="224" y="61"/>
      <point x="234" y="51"/>
      <point x="246" y="50" type="curve" smooth="yes"/>
      <point x="281" y="47" type="line"/>
      <point x="281" y="0" type="line"/>
      <point x="27" y="0" type="line"/>
      <point x="27" y="47" type="line"/>
      <point x="68" y="50" type="line" smooth="yes"/>
      <point x="80" y="51"/>
      <point x="90" y="61"/>
      <point x="90" y="73" type="curve" smooth="yes"/>
      <point x="90" y="649" type="line"/>
      <point x="19" y="649" type="line"/>
      <point x="19" y="690" type="line"/>
      <point x="172" y="740" type="line"/>
      <point x="224" y="740" type="line"/>
      <point x="224" y="438" type="line"/>
      <point x="224" y="438"/>
      <point x="321" y="500"/>
      <point x="399" y="500" type="curve" smooth="yes"/>
      <point x="517" y="500"/>
      <point x="536" y="402"/>
      <point x="536" y="343" type="curve" smooth="yes"/>
      <point x="536" y="73" type="line" smooth="yes"/>
      <point x="536" y="61"/>
      <point x="546" y="51"/>
      <point x="558" y="50" type="curve" smooth="yes"/>
      <point x="600" y="47" type="line"/>
    </contour>
    <contour>
      <point x="331" y="766" type="line"/>
      <point x="248" y="766" type="line"/>
      <point x="161" y="861" type="line"/>
      <point x="74" y="766" type="line"/>
      <point x="-9" y="766" type="line"/>
      <point x="102" y="937" type="line"/>
      <point x="220" y="937" type="line"/>
    </contour>
  </outline>
</glyph>
<glyph name="Iogonek" format="1">
  <advance width="358"/>
  <unicode hex="012E"/>
  <outline>
    <contour>
      <point x="335" y="0" type="line"/>
      <point x="23" y="0" type="line"/>
      <point x="23" y="51" type="line"/>
      <point x="85" y="56" type="line" smooth="yes"/>
      <point x="97" y="57"/>
      <point x="107" y="65"/>
      <point x="107" y="78" type="curve" smooth="yes"/>
      <point x="107" y="593" type="line" smooth="yes"/>
      <point x="107" y="606"/>
      <point x="97" y="614"/>
      <point x="85" y="615" type="curve" smooth="yes"/>
      <point x="23" y="620" type="line"/>
      <point x="23" y="671" type="line"/>
      <point x="335" y="671" type="line"/>
      <point x="335" y="620" type="line"/>
      <point x="273" y="615" type="line" smooth="yes"/>
      <point x="262" y="614"/>
      <point x="250" y="606"/>
      <point x="250" y="593" type="curve" smooth="yes"/>
      <point x="250" y="78" type="line" smooth="yes"/>
      <point x="250" y="65"/>
      <point x="262" y="57"/>
      <point x="273" y="56" type="curve" smooth="yes"/>
      <point x="335" y="51" type="line"/>
    </contour>
    <contour>
      <point x="294" y="-177" type="line"/>
      <point x="294" y="-177"/>
      <point x="229" y="-208"/>
      <point x="199" y="-208" type="curve" smooth="yes"/>
      <point x="136" y="-208"/>
      <point x="88" y="-177"/>
      <point x="88" y="-124" type="curve" smooth="yes"/>
      <point x="88" y="-65"/>
      <point x="139" y="-20"/>
      <point x="169" y="1" type="curve"/>
      <point x="232" y="1" type="line"/>
      <point x="195" y="-27"/>
      <point x="169" y="-59"/>
      <point x="169" y="-98" type="curve" smooth="yes"/>
      <point x="169" y="-127"/>
      <point x="186" y="-150"/>
      <point x="219" y="-150" type="curve" smooth="yes"/>
      <point x="232" y="-150"/>
      <point x="257" y="-129"/>
      <point x="263" y="-125" type="curve"/>
    </contour>
  </outline>
</glyph>
<glyph name="Jcircumflex" format="1">
  <advance width="512"/>
  <unicode hex="0134"/>
  <outline>
    <contour>
      <point x="490" y="620" type="line"/>
      <point x="429" y="615" type="line" smooth="yes"/>
      <point x="417" y="614"/>
      <point x="407" y="606"/>
      <point x="407" y="593" type="curve" smooth="yes"/>
      <point x="407" y="242" type="line" smooth="yes"/>
      <point x="407" y="88"/>
      <point x="337" y="-16"/>
      <point x="173" y="-16" type="curve" smooth="yes"/>
      <point x="118" y="-16"/>
      <point x="55" y="1"/>
      <point x="24" y="12" type="curve"/>
      <point x="24" y="195" type="line"/>
      <point x="102" y="195" type="line"/>
      <point x="125" y="61" type="line"/>
      <point x="125" y="61"/>
      <point x="130" y="44"/>
      <point x="151" y="44" type="curve" smooth="yes"/>
      <point x="225" y="44"/>
      <point x="265" y="94"/>
      <point x="265" y="245" type="curve" smooth="yes"/>
      <point x="265" y="593" type="line" smooth="yes"/>
      <point x="265" y="606"/>
      <point x="254" y="614"/>
      <point x="243" y="615" type="curve" smooth="yes"/>
      <point x="181" y="620" type="line"/>
      <point x="181" y="671" type="line"/>
      <point x="490" y="671" type="line"/>
    </contour>
    <contour>
      <point x="521" y="746" type="line"/>
      <point x="438" y="746" type="line"/>
      <point x="351" y="841" type="line"/>
      <point x="264" y="746" type="line"/>
      <point x="181" y="746" type="line"/>
      <point x="292" y="917" type="line"/>
      <point x="410" y="917" type="line"/>
    </contour>
  </outline>
</glyph>
<glyph name="Kcedilla" format="1">
  <advance width="682"/>
  <unicode hex="0136"/>
  <outline>
    <contour>
      <point x="682" y="0" type="line"/>
      <point x="465" y="0" type="line"/>
      <point x="465" y="37" type="line"/>
      <point x="302" y="293" type="line"/>
      <point x="247" y="293" type="line"/>
      <point x="247" y="78" type="line" smooth="yes"/>
      <point x="247" y="65"/>
      <point x="257" y="57"/>
      <point x="269" y="56" type="curve" smooth="yes"/>
      <point x="322" y="51" type="line"/>
      <point x="322" y="0" type="line"/>
      <point x="29" y="0" type="line"/>
      <point x="29" y="51" type="line"/>
      <point x="82" y="56" type="line" smooth="yes"/>
      <point x="94" y="57"/>
      <point x="104" y="65"/>
      <point x="104" y="78" type="curve" smooth="yes"/>
      <point x="104" y="593" type="line" smooth="yes"/>
      <point x="104" y="606"/>
      <point x="94" y="614"/>
      <point x="82" y="615" type="curve" smooth="yes"/>
      <point x="29" y="620" type="line"/>
      <point x="29" y="671" type="line"/>
      <point x="322" y="671" type="line"/>
      <point x="322" y="620" type="line"/>
      <point x="269" y="615" type="line" smooth="yes"/>
      <point x="257" y="614"/>
      <point x="247" y="606"/>
      <point x="247" y="593" type="curve" smooth="yes"/>
      <point x="247" y="341" type="line"/>
      <point x="275" y="341" type="line"/>
      <point x="490" y="603" type="line" smooth="yes"/>
      <point x="493" y="607"/>
      <point x="492" y="615"/>
      <point x="485" y="615" type="curve" smooth="yes"/>
      <point x="428" y="620" type="line"/>
      <point x="428" y="671" type="line"/>
      <point x="657" y="671" type="line"/>
      <point x="657" y="620" type="line"/>
      <point x="657" y="620"/>
      <point x="619" y="617"/>
      <point x="587" y="614" type="curve"/>
      <point x="401" y="392" type="line"/>
      <point x="611" y="57" type="line"/>
      <point x="682" y="51" type="line"/>
    </contour>
    <contour>
      <point x="433" y="-146" type="curve" smooth="yes"/>
      <point x="433" y="-214"/>
      <point x="368" y="-262"/>
      <point x="291" y="-277" type="curve"/>
      <point x="291" y="-237" type="line"/>
      <point x="330" y="-226"/>
      <point x="362" y="-195"/>
      <point x="362" y="-163" type="curve"/>
      <point x="299" y="-163" type="line"/>
      <point x="286" y="-151"/>
      <point x="279" y="-135"/>
      <point x="279" y="-119" type="curve" smooth="yes"/>
      <point x="279" y="-80"/>
      <point x="312" y="-61"/>
      <point x="347" y="-61" type="curve" smooth="yes"/>
      <point x="398" y="-61"/>
      <point x="433" y="-99"/>
    </contour>
  </outline>
</glyph>
<glyph name="Lacute" format="1">
  <advance width="554"/>
  <unicode hex="0139"/>
  <outline>
    <contour>
      <point x="538" y="0" type="line"/>
      <point x="27" y="0" type="line"/>
      <point x="27" y="51" type="line"/>
      <point x="82" y="56" type="line" smooth="yes"/>
      <point x="94" y="57"/>
      <point x="104" y="65"/>
      <point x="104" y="78" type="curve" smooth="yes"/>
      <point x="104" y="593" type="line" smooth="yes"/>
      <point x="104" y="606"/>
      <point x="94" y="614"/>
      <point x="82" y="615" type="curve" smooth="yes"/>
      <point x="27" y="620" type="line"/>
      <point x="27" y="671" type="line"/>
      <point x="325" y="671" type="line"/>
      <point x="325" y="620" type="line"/>
      <point x="269" y="615" type="line" smooth="yes"/>
      <point x="257" y="614"/>
      <point x="247" y="606"/>
      <point x="247" y="593" type="curve" smooth="yes"/>
      <point x="247" y="61" type="line"/>
      <point x="421" y="61" type="line" smooth="yes"/>
      <point x="435" y="61"/>
      <point x="444" y="76"/>
      <point x="445" y="84" type="curve" smooth="yes"/>
      <point x="458" y="199" type="line"/>
      <point x="538" y="199" type="line"/>
    </contour>
    <contour>
      <point x="443" y="876" type="curve" smooth="yes"/>
      <point x="443" y="863"/>
      <point x="431" y="842"/>
      <point x="417" y="834" type="curve" smooth="yes"/>
      <point x="255" y="746" type="line"/>
      <point x="186" y="746" type="line"/>
      <point x="322" y="897" type="line" smooth="yes"/>
      <point x="345" y="922"/>
      <point x="358" y="929"/>
      <point x="385" y="929" type="curve" smooth="yes"/>
      <point x="428" y="929"/>
      <point x="443" y="900"/>
    </contour>
  </outline>
</glyph>
<glyph name="ldot" format="1">
  <advance width="471"/>
  <unicode hex="0140"/>
  <outline>
    <contour>
      <point x="305" y="0" type="line"/>
      <point x="29" y="0" type="line"/>
      <point x="29" y="47" type="line"/>
      <point x="78" y="50" type="line" smooth="yes"/>
      <point x="91" y="51"/>
      <point x="100" y="60"/>
      <point x="100" y="73" type="curve" smooth="yes"/>
      <point x="100" y="649" type="line"/>
      <point x="29" y="649" type="line"/>
      <point x="29" y="690" type="line"/>
      <point x="182" y="740" type="line"/>
      <point x="233" y="740" type="line"/>
      <point x="233" y="73" type="line" smooth="yes"/>
      <point x="233" y="60"/>
      <point x="242" y="51"/>
      <point x="255" y="50" type="curve" smooth="yes"/>
      <point x="305" y="47" type="line"/>
    </contour>
    <contour>
      <point x="461" y="340" type="curve" smooth="yes"/>
      <point x="461" y="307"/>
      <point x="436" y="281"/>
      <point x="403" y="281" type="curve" smooth="yes"/>
      <point x="370" y="281"/>
      <point x="344" y="307"/>
      <point x="344" y="340" type="curve" smooth="yes"/>
      <point x="344" y="373"/>
      <point x="370" y="399"/>
      <point x="403" y="399" type="curve" smooth="yes"/>
      <point x="436" y="399"/>
      <point x="461" y="373"/>
    </contour>
  </outline>
</glyph>
<glyph name="lslash" format="1">
  <advance width="333"/>
  <unicode hex="0142"/>
  <outline>
    <contour>
      <point x="341" y="454" type="line"/>
      <point x="233" y="378" type="line"/>
      <point x="233" y="73" type="line" smooth="yes"/>
      <point x="233" y="60"/>
      <point x="244" y="51"/>
      <point x="256" y="50" type="curve" smooth="yes"/>
      <point x="306" y="47" type="line"/>
      <point x="306" y="0" type="line"/>
      <point x="29" y="0" type="line"/>
      <point x="29" y="47" type="line"/>
      <point x="78" y="50" type="line" smooth="yes"/>
      <point x="90" y="51"/>
      <point x="100" y="60"/>
      <point x="100" y="73" type="curve" smooth="yes"/>
      <point x="100" y="286" type="line"/>
      <point x="21" y="230" type="line"/>
      <point x="-7" y="278" type="line"/>
      <point x="100" y="353" type="line"/>
      <point x="100" y="647" type="line"/>
      <point x="29" y="647" type="line"/>
      <point x="29" y="690" type="line"/>
      <point x="188" y="740" type="line"/>
      <point x="233" y="740" type="line"/>
      <point x="233" y="446" type="line"/>
      <point x="312" y="501" type="line"/>
    </contour>
  </outline>
</glyph>
<glyph name="nacute" format="1">
  <advance width="625"/>
  <unicode hex="0144"/>
  <outline>
    <contour>
      <point x="589" y="0" type="line"/>
      <point x="343" y="0" type="line"/>
      <point x="343" y="47" type="line"/>
      <point x="380" y="50" type="line" smooth="yes"/>
      <point x="392" y="51"/>
      <point x="402" y="61"/>
      <point x="402" y="73" type="curve" smooth="yes"/>
      <point x="402" y="308" type="line" smooth="yes"/>
      <point x="402" y="359"/>
      <point x="380" y="408"/>
      <point x="320" y="408" type="curve" smooth="yes"/>
      <point x="265" y="408"/>
      <point x="224" y="395"/>
      <point x="224" y="395" type="curve"/>
      <point x="224" y="73" type="line" smooth="yes"/>
      <point x="224" y="61"/>
      <point x="235" y="51"/>
      <point x="247" y="50" type="curve" smooth="yes"/>
      <point x="277" y="47" type="line"/>
      <point x="277" y="0" type="line"/>
      <point x="32" y="0" type="line"/>
      <point x="32" y="47" type="line"/>
      <point x="68" y="50" type="line" smooth="yes"/>
      <point x="80" y="51"/>
      <point x="90" y="61"/>
      <point x="90" y="73" type="curve" smooth="yes"/>
      <point x="90" y="408" type="line"/>
      <point x="21" y="408" type="line"/>
      <point x="21" y="449" type="line"/>
      <point x="172" y="500" type="line"/>
      <point x="224" y="500" type="line"/>
      <point x="224" y="439" type="line"/>
      <point x="224" y="439"/>
      <point x="313" y="500"/>
      <point x="399" y="500" type="curve" smooth="yes"/>
      <point x="514" y="500"/>
      <point x="535" y="413"/>
      <point x="535" y="326" type="curve" smooth="yes"/>
      <point x="535" y="73" type="line" smooth="yes"/>
      <point x="535" y="61"/>
      <point x="546" y="51"/>
      <point x="558" y="50" type="curve" smooth="yes"/>
      <point x="589" y="47" type="line"/>
    </contour>
    <contour>
      <point x="466" y="681" type="curve" smooth="yes"/>
      <point x="466" y="668"/>
      <point x="454" y="647"/>
      <point x="440" y="639" type="curve" smooth="yes"/>
      <point x="278" y="551" type="line"/>
      <point x="208" y="551" type="line"/>
      <point x="345" y="702" type="line" smooth="yes"/>
      <point x="368" y="727"/>
      <point x="381" y="734"/>
      <point x="408" y="734" type="curve" smooth="yes"/>
      <point x="451" y="734"/>
      <point x="466" y="705"/>
    </contour>
  </outline>
</glyph>
<glyph name="Eng" format="1">
  <advance width="757"/>
  <unicode hex="014A"/>
  <outline>
    <contour>
      <point x="668" y="-37" type="line" smooth="yes"/>
      <point x="668" y="-138"/>
      <point x="597" y="-231"/>
      <point x="503" y="-231" type="curve" smooth="yes"/>
      <point x="398" y="-231"/>
      <point x="326" y="-203"/>
      <point x="326" y="-128" type="curve" smooth="yes"/>
      <point x="326" y="-83"/>
      <point x="360" y="-47"/>
      <point x="399" y="-47" type="curve"/>
      <point x="461" y="-154" type="line"/>
      <point x="507" y="-154"/>
      <point x="525" y="-116"/>
      <point x="525" y="-65" type="curve" smooth="yes"/>
      <point x="525" y="462" type="line" smooth="yes"/>
      <point x="525" y="508"/>
      <point x="489" y="597"/>
      <point x="416" y="597" type="curve" smooth="yes"/>
      <point x="355" y="597"/>
      <point x="261" y="559"/>
      <point x="247" y="541" type="curve"/>
      <point x="247" y="83" type="line" smooth="yes"/>
      <point x="247" y="70"/>
      <point x="259" y="64"/>
      <point x="270" y="62" type="curve" smooth="yes"/>
      <point x="325" y="51" type="line"/>
      <point x="325" y="0" type="line"/>
      <point x="27" y="0" type="line"/>
      <point x="27" y="51" type="line"/>
      <point x="82" y="56" type="line" smooth="yes"/>
      <point x="93" y="57"/>
      <point x="104" y="70"/>
      <point x="104" y="83" type="curve" smooth="yes"/>
      <point x="104" y="602" type="line" smooth="yes"/>
      <point x="104" y="608"/>
      <point x="96" y="615"/>
      <point x="89" y="615" type="curve" smooth="yes"/>
      <point x="29" y="620" type="line"/>
      <point x="29" y="671" type="line"/>
      <point x="248" y="671" type="line"/>
      <point x="248" y="609" type="line"/>
      <point x="263" y="636"/>
      <point x="377" y="687"/>
      <point x="460" y="687" type="curve" smooth="yes"/>
      <point x="605" y="687"/>
      <point x="668" y="597"/>
      <point x="668" y="467" type="curve" smooth="yes"/>
    </contour>
  </outline>
</glyph>
<glyph name="Racute" format="1">
  <advance width="704"/>
  <unicode hex="0154"/>
  <outline>
    <contour>
      <point x="704" y="0" type="line"/>
      <point x="660" y="-5"/>
      <point x="630" y="-16"/>
      <point x="605" y="-16" type="curve" smooth="yes"/>
      <point x="347" y="-16"/>
      <point x="463" y="294"/>
      <point x="267" y="294" type="curve" smooth="yes"/>
      <point x="247" y="294" type="line"/>
      <point x="247" y="78" type="line" smooth="yes"/>
      <point x="247" y="65"/>
      <point x="257" y="57"/>
      <point x="269" y="56" type="curve" smooth="yes"/>
      <point x="324" y="51" type="line"/>
      <point x="324" y="0" type="line"/>
      <point x="28" y="0" type="line"/>
      <point x="28" y="51" type="line"/>
      <point x="81" y="56" type="line" smooth="yes"/>
      <point x="93" y="57"/>
      <point x="104" y="65"/>
      <point x="104" y="78" type="curve" smooth="yes"/>
      <point x="104" y="593" type="line" smooth="yes"/>
      <point x="104" y="606"/>
      <point x="93" y="614"/>
      <point x="81" y="615" type="curve" smooth="yes"/>
      <point x="28" y="620" type="line"/>
      <point x="28" y="671" type="line"/>
      <point x="360" y="671" type="line" smooth="yes"/>
      <point x="434" y="671"/>
      <point x="578" y="647"/>
      <point x="578" y="505" type="curve" smooth="yes"/>
      <point x="578" y="370"/>
      <point x="458" y="338"/>
      <point x="404" y="330" type="curve"/>
      <point x="623" y="287"/>
      <point x="484" y="25"/>
      <point x="704" y="51" type="curve"/>
    </contour>
    <contour>
      <point x="428" y="486" type="curve" smooth="yes"/>
      <point x="428" y="570"/>
      <point x="376" y="611"/>
      <point x="279" y="611" type="curve" smooth="yes"/>
      <point x="279" y="611"/>
      <point x="264" y="612"/>
      <point x="247" y="611" type="curve"/>
      <point x="247" y="355" type="line"/>
      <point x="264" y="354"/>
      <point x="275" y="353"/>
      <point x="280" y="353" type="curve" smooth="yes"/>
      <point x="343" y="353"/>
      <point x="428" y="372"/>
    </contour>
    <contour>
      <point x="476" y="876" type="curve" smooth="yes"/>
      <point x="476" y="863"/>
      <point x="464" y="842"/>
      <point x="450" y="834" type="curve" smooth="yes"/>
      <point x="288" y="746" type="line"/>
      <point x="218" y="746" type="line"/>
      <point x="355" y="897" type="line" smooth="yes"/>
      <point x="378" y="922"/>
      <point x="391" y="929"/>
      <point x="418" y="929" type="curve" smooth="yes"/>
      <point x="461" y="929"/>
      <point x="476" y="900"/>
    </contour>
  </outline>
</glyph>
<glyph name="ubreve" format="1">
  <advance width="620"/>
  <unicode hex="016D"/>
  <outline>
    <contour>
      <point x="597" y="0" type="line"/>
      <point x="396" y="0" type="line"/>
      <point x="396" y="55" type="line"/>
      <point x="396" y="55"/>
      <point x="311" y="-12"/>
      <point x="238" y="-12" type="curve" smooth="yes"/>
      <point x="124" y="-12"/>
      <point x="90" y="49"/>
      <point x="90" y="151" type="curve" smooth="yes"/>
      <point x="90" y="409" type="line"/>
      <point x="25" y="409" type="line"/>
      <point x="25" y="450" type="line"/>
      <point x="172" y="500" type="line"/>
      <point x="224" y="500" type="line"/>
      <point x="224" y="190" type="line" smooth="yes"/>
      <point x="224" y="141"/>
      <point x="231" y="79"/>
      <point x="316" y="79" type="curve" smooth="yes"/>
      <point x="358" y="79"/>
      <point x="396" y="96"/>
      <point x="396" y="96" type="curve"/>
      <point x="396" y="409" type="line"/>
      <point x="333" y="409" type="line"/>
      <point x="333" y="450" type="line"/>
      <point x="479" y="500" type="line"/>
      <point x="530" y="500" type="line"/>
      <point x="530" y="73" type="line" smooth="yes"/>
      <point x="530" y="61"/>
      <point x="541" y="51"/>
      <point x="553" y="50" type="curve" smooth="yes"/>
      <point x="597" y="47" type="line"/>
    </contour>
    <contour>
      <point x="468" y="714" type="line"/>
      <point x="468" y="624"/>
      <point x="416" y="551"/>
      <point x="311" y="551" type="curve" smooth="yes"/>
      <point x="206" y="551"/>
      <point x="155" y="624"/>
      <point x="155" y="714" type="curve"/>
      <point x="207" y="714" type="line"/>
      <point x="220" y="654"/>
      <point x="267" y="632"/>
      <point x="311" y="632" type="curve" smooth="yes"/>
      <point x="356" y="632"/>
      <point x="402" y="654"/>
      <point x="415" y="714" type="curve"/>
    </contour>
  </outline>
</glyph>
<glyph name="Uring" format="1">
  <advance width="729"/>
  <unicode hex="016E"/>
  <outline>
    <contour>
      <point x="703" y="620" type="line"/>
      <point x="650" y="615" type="line" smooth="yes"/>
      <point x="639" y="614"/>
      <point x="628" y="606"/>
      <point x="628" y="593" type="curve" smooth="yes"/>
      <point x="628" y="254" type="line" smooth="yes"/>
      <point x="628" y="57"/>
      <point x="541" y="-16"/>
      <point x="354" y="-16" type="curve" smooth="yes"/>
      <point x="182" y="-16"/>
      <point x="99" y="78"/>
      <point x="99" y="254" type="curve" smooth="yes"/>
      <point x="99" y="593" type="line" smooth="yes"/>
      <point x="99" y="606"/>
      <point x="88" y="614"/>
      <point x="76" y="615" type="curve" smooth="yes"/>
      <point x="22" y="620" type="line"/>
      <point x="22" y="671" type="line"/>
      <point x="318" y="671" type="line"/>
      <point x="318" y="620" type="line"/>
      <point x="264" y="615" type="line" smooth="yes"/>
      <point x="253" y="614"/>
      <point x="242" y="606"/>
      <point x="242" y="593" type="curve" smooth="yes"/>
      <point x="242" y="246" type="line" smooth="yes"/>
      <point x="242" y="121"/>
      <point x="294" y="67"/>
      <point x="404" y="67" type="curve" smooth="yes"/>
      <point x="509" y="67"/>
      <point x="552" y="138"/>
      <point x="552" y="246" type="curve" smooth="yes"/>
      <point x="552" y="593" type="line" smooth="yes"/>
      <point x="552" y="606"/>
      <point x="542" y="614"/>
      <point x="530" y="615" type="curve" smooth="yes"/>
      <point x="473" y="620" type="line"/>
      <point x="473" y="671" type="line"/>
      <point x="703" y="671" type="line"/>
    </contour>
    <contour>
      <point x="498" y="872" type="curve" smooth="yes"/>
      <point x="498" y="802"/>
      <point x="441" y="746"/>
      <point x="371" y="746" type="curve" smooth="yes"/>
      <point x="302" y="746"/>
      <point x="245" y="802"/>
      <point x="245" y="872" type="curve" smooth="yes"/>
      <point x="245" y="942"/>
      <point x="302" y="999"/>
      <point x="371" y="999" type="curve" smooth="yes"/>
      <point x="441" y="999"/>
      <point x="498" y="942"/>
    </contour>
    <contour>
      <point x="434" y="872" type="curve" smooth="yes"/>
      <point x="434" y="907"/>
      <point x="406" y="936"/>
      <point x="371" y="936" type="curve" smooth="yes"/>
      <point x="337" y="936"/>
      <point x="308" y="907"/>
      <point x="308" y="872" type="curve" smooth="yes"/>
      <point x="308" y="837"/>
      <point x="337" y="809"/>
      <point x="371" y="809" type="curve" smooth="yes"/>
      <point x="406" y="809"/>
      <point x="434" y="837"/>
    </contour>
  </outline>
</glyph>
<glyph name="uhungarumlaut" format="1">
  <advance width="620"/>
  <unicode hex="0171"/>
  <outline>
    <contour>
      <point x="597" y="0" type="line"/>
      <point x="396" y="0" type="line"/>
      <point x="396" y="55" type="line"/>
      <point x="396" y="55"/>
      <point x="311" y="-12"/>
      <point x="238" y="-12" type="curve" smooth="yes"/>
      <point x="124" y="-12"/>
      <point x="90" y="49"/>
      <point x="90" y="151" type="curve" smooth="yes"/>
      <point x="90" y="409" type="line"/>
      <point x="25" y="409" type="line"/>
      <point x="25" y="450" type="line"/>
      <point x="172" y="500" type="line"/>
      <point x="224" y="500" type="line"/>
      <point x="224" y="190" type="line" smooth="yes"/>
      <point x="224" y="141"/>
      <point x="231" y="79"/>
      <point x="316" y="79" type="curve" smooth="yes"/>
      <point x="358" y="79"/>
      <point x="396" y="96"/>
      <point x="396" y="96" type="curve"/>
      <point x="396" y="409" type="line"/>
      <point x="333" y="409" type="line"/>
      <point x="333" y="450" type="line"/>
      <point x="479" y="500" type="line"/>
      <point x="530" y="500" type="line"/>
      <point x="530" y="73" type="line" smooth="yes"/>
      <point x="530" y="61"/>
      <point x="541" y="51"/>
      <point x="553" y="50" type="curve" smooth="yes"/>
      <point x="597" y="47" type="line"/>
    </contour>
    <contour>
      <point x="590" y="681" type="curve" smooth="yes"/>
      <point x="590" y="668"/>
      <point x="579" y="647"/>
      <point x="564" y="639" type="curve" smooth="yes"/>
      <point x="403" y="551" type="line"/>
      <point x="333" y="551" type="line"/>
      <point x="470" y="702" type="line" smooth="yes"/>
      <point x="492" y="727"/>
      <point x="506" y="734"/>
      <point x="533" y="734" type="curve" smooth="yes"/>
      <point x="576" y="734"/>
      <point x="590" y="705"/>
    </contour>
    <contour>
      <point x="375" y="681" type="curve" smooth="yes"/>
      <point x="375" y="668"/>
      <point x="364" y="647"/>
      <point x="349" y="639" type="curve" smooth="yes"/>
      <point x="188" y="551" type="line"/>
      <point x="118" y="551" type="line"/>
      <point x="255" y="702" type="line" smooth="yes"/>
      <point x="277" y="727"/>
      <point x="291" y="734"/>
      <point x="318" y="734" type="curve" smooth="yes"/>
      <point x="361" y="734"/>
      <point x="375" y="705"/>
    </contour>
  </outline>
</glyph>
<glyph name="uogonek" format="1">
  <advance width="620"/>
  <unicode hex="0173"/>
  <outline>
    <contour>
      <point x="597" y="0" type="line"/>
      <point x="396" y="0" type="line"/>
      <point x="396" y="55" type="line"/>
      <point x="396" y="55"/>
      <point x="311" y="-12"/>
      <point x="238" y="-12" type="curve" smooth="yes"/>
      <point x="124" y="-12"/>
      <point x="90" y="49"/>
      <point x="90" y="151" type="curve" smooth="yes"/>
      <point x="90" y="409" type="line"/>
      <point x="25" y="409" type="line"/>
      <point x="25" y="450" type="line"/>
      <point x="172" y="500" type="line"/>
      <point x="224" y="500" type="line"/>
      <point x="224" y="190" type="line" smooth="yes"/>
      <point x="224" y="141"/>
      <point x="231" y="79"/>
      <point x="316" y="79" type="curve" smooth="yes"/>
      <point x="358" y="79"/>
      <point x="396" y="96"/>
      <point x="396" y="96" type="curve"/>
      <point x="396" y="409" type="line"/>
      <point x="333" y="409" type="line"/>
      <point x="333" y="450" type="line"/>
      <point x="479" y="500" type="line"/>
      <point x="530" y="500" type="line"/>
      <point x="530" y="73" type="line" smooth="yes"/>
      <point x="530" y="61"/>
      <point x="541" y="51"/>
      <point x="553" y="50" type="curve" smooth="yes"/>
      <point x="597" y="47" type="line"/>
    </contour>
    <contour>
      <point x="522" y="-177" type="line"/>
      <point x="522" y="-177"/>
      <point x="457" y="-208"/>
      <point x="427" y="-208" type="curve" smooth="yes"/>
      <point x="364" y="-208"/>
      <point x="316" y="-177"/>
      <point x="316" y="-124" type="curve" smooth="yes"/>
      <point x="316" y="-65"/>
      <point x="367" y="-20"/>
      <point x="397" y="1" type="curve"/>
      <point x="460" y="1" type="line"/>
      <point x="423" y="-27"/>
      <point x="397" y="-59"/>
      <point x="397" y="-98" type="curve" smooth="yes"/>
      <point x="397" y="-127"/>
      <point x="414" y="-150"/>
      <point x="447" y="-150" type="curve" smooth="yes"/>
      <point x="460" y="-150"/>
      <point x="485" y="-129"/>
      <point x="491" y="-125" type="curve"/>
    </contour>
  </outline>
</glyph>
<glyph name="Zdotaccent" format="1">
  <advance width="581"/>
  <unicode hex="017B"/>
  <outline>
    <contour>
      <point x="544" y="0" type="line"/>
      <point x="37" y="0" type="line"/>
      <point x="37" y="59" type="line"/>
      <point x="380" y="610" type="line"/>
      <point x="159" y="610" type="line" smooth="yes"/>
      <point x="151" y="610"/>
      <point x="146" y="606"/>
      <point x="145" y="598" type="curve" smooth="yes"/>
      <point x="127" y="489" type="line"/>
      <point x="54" y="489" type="line"/>
      <point x="54" y="671" type="line"/>
      <point x="539" y="671" type="line"/>
      <point x="539" y="612" type="line"/>
      <point x="197" y="62" type="line"/>
      <point x="436" y="62" type="line" smooth="yes"/>
      <point x="444" y="62"/>
      <point x="449" y="66"/>
      <point x="451" y="73" type="curve" smooth="yes"/>
      <point x="471" y="197" type="line"/>
      <point x="544" y="197" type="line"/>
    </contour>
    <contour>
      <point x="369" y="848" type="curve" smooth="yes"/>
      <point x="369" y="811"/>
      <point x="340" y="780"/>
      <point x="301" y="780" type="curve" smooth="yes"/>
      <point x="262" y="780"/>
      <point x="233" y="809"/>
      <point x="233" y="848" type="curve" smooth="yes"/>
      <point x="233" y="888"/>
      <point x="261" y="921"/>
      <point x="301" y="921" type="curve" smooth="yes"/>
      <point x="339" y="921"/>
      <point x="369" y="889"/>
    </contour>
  </outline>
</glyph>
<glyph name="longs" format="1">
  <advance width="347"/>
  <unicode hex="017F"/>
  <outline>
    <contour>
      <point x="419" y="660" type="curve" smooth="yes"/>
      <point x="419" y="629"/>
      <point x="389" y="605"/>
      <point x="357" y="594" type="curve"/>
      <point x="258" y="687" type="line"/>
      <point x="238" y="657"/>
      <point x="227" y="625"/>
      <point x="227" y="534" type="curve" smooth="yes"/>
      <point x="227" y="73" type="line" smooth="yes"/>
      <point x="227" y="61"/>
      <point x="236" y="50"/>
      <point x="249" y="50" type="curve" smooth="yes"/>
      <point x="310" y="47" type="line"/>
      <point x="310" y="0" type="line"/>
      <point x="20" y="0" type="line"/>
      <point x="20" y="47" type="line"/>
      <point x="71" y="50" type="line" smooth="yes"/>
      <point x="82" y="50"/>
      <point x="92" y="60"/>
      <point x="92" y="71" type="curve" smooth="yes"/>
      <point x="92" y="485" type="line" smooth="yes"/>
      <point x="92" y="537"/>
      <point x="107" y="584"/>
      <point x="135" y="628" type="curve" smooth="yes"/>
      <point x="176" y="692"/>
      <point x="241" y="740"/>
      <point x="323" y="740" type="curve" smooth="yes"/>
      <point x="363" y="740"/>
      <point x="419" y="717"/>
    </contour>
    <contour>
      <point x="20" y="424" type="line"/>
      <point x="20" y="488" type="line"/>
      <point x="130" y="488" type="line"/>
      <point x="130" y="424" type="line"/>
    </contour>
  </outline>
</glyph>
<glyph name="uni0187" format="1">
  <advance width="636"/>
  <unicode hex="0187"/>
  <outline>
    <contour>
      <point x="802" y="770" type="curve" smooth="yes"/>
      <point x="802" y="734"/>
      <point x="780" y="703"/>
      <point x="753" y="693" type="curve"/>
      <point x="648" y="790" type="line"/>
      <point x="622" y="780"/>
      <point x="600" y="739"/>
      <point x="600" y="683" type="curve" smooth="yes"/>
      <point x="600" y="475" type="line"/>
      <point x="522" y="475" type="line"/>
      <point x="500" y="587" type="line" smooth="yes"/>
      <point x="500" y="590"/>
      <point x="494" y="600"/>
      <point x="487" y="603" type="curve" smooth="yes"/>
      <point x="476" y="608"/>
      <point x="441" y="619"/>
      <point x="416" y="619" type="curve" smooth="yes"/>
      <point x="279" y="619"/>
      <point x="194" y="507"/>
      <point x="194" y="334" type="curve" smooth="yes"/>
      <point x="194" y="194"/>
      <point x="256" y="49"/>
      <point x="424" y="49" type="curve" smooth="yes"/>
      <point x="448" y="49"/>
      <point x="471" y="57"/>
      <point x="482" y="62" type="curve" smooth="yes"/>
      <point x="487" y="64"/>
      <point x="497" y="75"/>
      <point x="499" y="81" type="curve" smooth="yes"/>
      <point x="521" y="199" type="line"/>
      <point x="600" y="199" type="line"/>
      <point x="600" y="24" type="line"/>
      <point x="575" y="14"/>
      <point x="491" y="-16"/>
      <point x="388" y="-16" type="curve" smooth="yes"/>
      <point x="183" y="-16"/>
      <point x="37" y="130"/>
      <point x="37" y="336" type="curve" smooth="yes"/>
      <point x="37" y="544"/>
      <point x="191" y="687"/>
      <point x="389" y="687" type="curve" smooth="yes"/>
      <point x="432" y="687"/>
      <point x="464" y="683"/>
      <point x="501" y="674" type="curve"/>
      <point x="501" y="787"/>
      <point x="595" y="851"/>
      <point x="701" y="851" type="curve" smooth="yes"/>
      <point x="740" y="851"/>
      <point x="802" y="806"/>
    </contour>
  </outline>
</glyph>
<glyph name="uni018B" format="1">
  <advance width="627"/>
  <unicode hex="018B"/>
  <outline>
    <contour>
      <point x="607" y="51" type="line"/>
      <point x="607" y="0" type="line"/>
      <point x="346" y="0" type="line" smooth="yes"/>
      <point x="158" y="0"/>
      <point x="27" y="34"/>
      <point x="27" y="180" type="curve" smooth="yes"/>
      <point x="27" y="326"/>
      <point x="155" y="376"/>
      <point x="329" y="376" type="curve" smooth="yes"/>
      <point x="350" y="376"/>
      <point x="381" y="371"/>
      <point x="381" y="371" type="curve"/>
      <point x="381" y="599" type="line" smooth="yes"/>
      <point x="381" y="605"/>
      <point x="376" y="614"/>
      <point x="366" y="614" type="curve" smooth="yes"/>
      <point x="214" y="614" type="line" smooth="yes"/>
      <point x="201" y="614"/>
      <point x="195" y="608"/>
      <point x="192" y="592" type="curve" smooth="yes"/>
      <point x="179" y="507" type="line"/>
      <point x="107" y="507" type="line"/>
      <point x="107" y="671" type="line"/>
      <point x="607" y="671" type="line"/>
      <point x="607" y="620" type="line"/>
      <point x="546" y="615" type="line" smooth="yes"/>
      <point x="534" y="614"/>
      <point x="524" y="606"/>
      <point x="524" y="593" type="curve" smooth="yes"/>
      <point x="524" y="78" type="line" smooth="yes"/>
      <point x="524" y="65"/>
      <point x="534" y="57"/>
      <point x="546" y="56" type="curve" smooth="yes"/>
    </contour>
    <contour>
      <point x="381" y="56" type="line"/>
      <point x="381" y="312" type="line"/>
      <point x="368" y="314"/>
      <point x="354" y="317"/>
      <point x="338" y="317" type="curve" smooth="yes"/>
      <point x="255" y="317"/>
      <point x="176" y="304"/>
      <point x="176" y="185" type="curve" smooth="yes"/>
      <point x="176" y="92"/>
      <point x="237" y="56"/>
      <point x="351" y="56" type="curve" smooth="yes"/>
    </contour>
  </outline>
</glyph>
<glyph name="uni018E" format="1">
  <advance width="598"/>
  <unicode hex="018E"/>
  <outline>
    <contour>
      <point x="62" y="671" type="line"/>
      <point x="572" y="671" type="line"/>
      <point x="572" y="620" type="line"/>
      <point x="517" y="615" type="line" smooth="yes"/>
      <point x="506" y="614"/>
      <point x="494" y="606"/>
      <point x="494" y="593" type="curve" smooth="yes"/>
      <point x="494" y="78" type="line" smooth="yes"/>
      <point x="494" y="65"/>
      <point x="506" y="57"/>
      <point x="517" y="56" type="curve" smooth="yes"/>
      <point x="572" y="51" type="line"/>
      <point x="572" y="0" type="line"/>
      <point x="30" y="0" type="line"/>
      <point x="30" y="183" type="line"/>
      <point x="103" y="183" type="line"/>
      <point x="118" y="79" type="line" smooth="yes"/>
      <point x="119" y="72"/>
      <point x="128" y="60"/>
      <point x="136" y="60" type="curve" smooth="yes"/>
      <point x="354" y="60" type="line"/>
      <point x="354" y="315" type="line"/>
      <point x="235" y="315" type="line" smooth="yes"/>
      <point x="227" y="315"/>
      <point x="219" y="304"/>
      <point x="218" y="297" type="curve" smooth="yes"/>
      <point x="209" y="229" type="line"/>
      <point x="147" y="229" type="line"/>
      <point x="147" y="464" type="line"/>
      <point x="209" y="464" type="line"/>
      <point x="218" y="396" type="line" smooth="yes"/>
      <point x="219" y="389"/>
      <point x="226" y="378"/>
      <point x="235" y="378" type="curve" smooth="yes"/>
      <point x="354" y="378" type="line"/>
      <point x="354" y="613" type="line"/>
      <point x="168" y="613" type="line" smooth="yes"/>
      <point x="159" y="613"/>
      <point x="152" y="604"/>
      <point x="150" y="594" type="curve" smooth="yes"/>
      <point x="134" y="511" type="line"/>
      <point x="62" y="511" type="line"/>
    </contour>
  </outline>
</glyph>
<glyph name="uni0196" format="1">
  <advance width="446"/>
  <unicode hex="0196"/>
  <outline>
    <contour>
      <point x="447" y="149" type="line"/>
      <point x="409" y="18"/>
      <point x="319" y="-16"/>
      <point x="257" y="-16" type="curve" smooth="yes"/>
      <point x="164" y="-16"/>
      <point x="111" y="34"/>
      <point x="111" y="149" type="curve" smooth="yes"/>
      <point x="111" y="593" type="line" smooth="yes"/>
      <point x="111" y="606"/>
      <point x="100" y="614"/>
      <point x="89" y="615" type="curve" smooth="yes"/>
      <point x="29" y="620" type="line"/>
      <point x="29" y="671" type="line"/>
      <point x="254" y="671" type="line"/>
      <point x="254" y="133" type="line" smooth="yes"/>
      <point x="254" y="102"/>
      <point x="274" y="85"/>
      <point x="311" y="86" type="curve" smooth="yes"/>
      <point x="320" y="86"/>
      <point x="349" y="96"/>
      <point x="371" y="149" type="curve"/>
    </contour>
  </outline>
</glyph>
<glyph name="uni0198" format="1">
  <advance width="682"/>
  <unicode hex="0198"/>
  <outline>
    <contour>
      <point x="741" y="599" type="curve" smooth="yes"/>
      <point x="741" y="550"/>
      <point x="698" y="536"/>
      <point x="683" y="528" type="curve"/>
      <point x="591" y="609" type="line"/>
      <point x="591" y="609"/>
      <point x="561" y="583"/>
      <point x="551" y="572" type="curve" smooth="yes"/>
      <point x="401" y="392" type="line"/>
      <point x="611" y="57" type="line"/>
      <point x="681" y="51" type="line"/>
      <point x="681" y="0" type="line"/>
      <point x="465" y="0" type="line"/>
      <point x="465" y="37" type="line"/>
      <point x="302" y="293" type="line"/>
      <point x="247" y="293" type="line"/>
      <point x="247" y="78" type="line" smooth="yes"/>
      <point x="247" y="65"/>
      <point x="257" y="57"/>
      <point x="269" y="56" type="curve" smooth="yes"/>
      <point x="322" y="51" type="line"/>
      <point x="322" y="0" type="line"/>
      <point x="29" y="0" type="line"/>
      <point x="29" y="51" type="line"/>
      <point x="82" y="56" type="line" smooth="yes"/>
      <point x="94" y="57"/>
      <point x="104" y="65"/>
      <point x="104" y="78" type="curve" smooth="yes"/>
      <point x="104" y="593" type="line" smooth="yes"/>
      <point x="104" y="606"/>
      <point x="94" y="614"/>
      <point x="82" y="615" type="curve" smooth="yes"/>
      <point x="29" y="620" type="line"/>
      <point x="29" y="671" type="line"/>
      <point x="322" y="671" type="line"/>
      <point x="322" y="620" type="line"/>
      <point x="269" y="615" type="line" smooth="yes"/>
      <point x="258" y="614"/>
      <point x="247" y="606"/>
      <point x="247" y="593" type="curve" smooth="yes"/>
      <point x="247" y="341" type="line"/>
      <point x="275" y="341" type="line"/>
      <point x="475" y="585" type="line" smooth="yes"/>
      <point x="501" y="617"/>
      <point x="562" y="678"/>
      <point x="634" y="678" type="curve" smooth="yes"/>
      <point x="689" y="678"/>
      <point x="741" y="652"/>
    </contour>
  </outline>
</glyph>
<glyph name="uni019D" format="1">
  <advance width="771"/>
  <unicode hex="019D"/>
  <outline>
    <contour>
      <point x="667" y="0" type="line"/>
      <point x="545" y="0" type="line"/>
      <point x="208" y="529" type="line"/>
      <point x="211" y="-35" type="line" smooth="yes"/>
      <point x="211" y="-153"/>
      <point x="161" y="-231"/>
      <point x="21" y="-231" type="curve" smooth="yes"/>
      <point x="-23" y="-231"/>
      <point x="-85" y="-201"/>
      <point x="-85" y="-149" type="curve" smooth="yes"/>
      <point x="-85" y="-117"/>
      <point x="-60" y="-77"/>
      <point x="-22" y="-77" type="curve"/>
      <point x="76" y="-167" type="line"/>
      <point x="98" y="-167"/>
      <point x="132" y="-162"/>
      <point x="132" y="-45" type="curve" smooth="yes"/>
      <point x="132" y="593" type="line" smooth="yes"/>
      <point x="132" y="606"/>
      <point x="122" y="614"/>
      <point x="110" y="615" type="curve" smooth="yes"/>
      <point x="56" y="620" type="line"/>
      <point x="56" y="671" type="line"/>
      <point x="303" y="671" type="line"/>
      <point x="303" y="644" type="line"/>
      <point x="591" y="193" type="line"/>
      <point x="591" y="593" type="line" smooth="yes"/>
      <point x="591" y="606"/>
      <point x="580" y="614"/>
      <point x="568" y="615" type="curve" smooth="yes"/>
      <point x="511" y="620" type="line"/>
      <point x="511" y="671" type="line"/>
      <point x="743" y="671" type="line"/>
      <point x="743" y="620" type="line"/>
      <point x="689" y="615" type="line" smooth="yes"/>
      <point x="678" y="614"/>
      <point x="667" y="606"/>
      <point x="667" y="593" type="curve" smooth="yes"/>
    </contour>
  </outline>
</glyph>
<glyph name="ohorn" format="1">
  <advance width="674"/>
  <unicode hex="01A1"/>
  <outline>
    <contour>
      <point x="660" y="496" type="curve" smooth="yes"/>
      <point x="660" y="430"/>
      <point x="609" y="372"/>
      <point x="538" y="341" type="curve"/>
      <point x="548" y="311"/>
      <point x="553" y="277"/>
      <point x="553" y="241" type="curve" smooth="yes"/>
      <point x="553" y="92"/>
      <point x="455" y="-12"/>
      <point x="289" y="-12" type="curve" smooth="yes"/>
      <point x="137" y="-12"/>
      <point x="32" y="84"/>
      <point x="32" y="242" type="curve" smooth="yes"/>
      <point x="32" y="406"/>
      <point x="141" y="500"/>
      <point x="296" y="500" type="curve" smooth="yes"/>
      <point x="405" y="500"/>
      <point x="482" y="453"/>
      <point x="521" y="378" type="curve"/>
      <point x="565" y="401"/>
      <point x="601" y="446"/>
      <point x="601" y="492" type="curve"/>
      <point x="516" y="492" type="line"/>
      <point x="516" y="492"/>
      <point x="494" y="520"/>
      <point x="494" y="548" type="curve" smooth="yes"/>
      <point x="494" y="597"/>
      <point x="535" y="613"/>
      <point x="570" y="613" type="curve" smooth="yes"/>
      <point x="619" y="613"/>
      <point x="660" y="561"/>
    </contour>
    <contour>
      <point x="404" y="242" type="curve" smooth="yes"/>
      <point x="404" y="327"/>
      <point x="384" y="443"/>
      <point x="292" y="443" type="curve" smooth="yes"/>
      <point x="202" y="443"/>
      <point x="182" y="332"/>
      <point x="182" y="246" type="curve" smooth="yes"/>
      <point x="182" y="160"/>
      <point x="200" y="44"/>
      <point x="293" y="44" type="curve" smooth="yes"/>
      <point x="384" y="44"/>
      <point x="404" y="153"/>
    </contour>
  </outline>
</glyph>
<glyph name="uni01A8" format="1">
  <advance width="457"/>
  <unicode hex="01A8"/>
  <outline>
    <contour>
      <point x="351" y="167" type="curve"/>
      <point x="414" y="167" type="line"/>
      <point x="409" y="15" type="line"/>
      <point x="380" y="4"/>
      <point x="318" y="-12"/>
      <point x="230" y="-12" type="curve" smooth="yes"/>
      <point x="133" y="-12"/>
      <point x="31" y="19"/>
      <point x="31" y="130" type="curve" smooth="yes"/>
      <point x="31" y="202"/>
      <point x="86" y="248"/>
      <point x="178" y="292" type="curve" smooth="yes"/>
      <point x="233" y="318"/>
      <point x="292" y="340"/>
      <point x="292" y="377" type="curve" smooth="yes"/>
      <point x="292" y="411"/>
      <point x="265" y="440"/>
      <point x="219" y="440" type="curve" smooth="yes"/>
      <point x="183" y="440"/>
      <point x="154" y="430"/>
      <point x="140" y="415" type="curve"/>
      <point x="126" y="335" type="line"/>
      <point x="64" y="335" type="line"/>
      <point x="69" y="473" type="line"/>
      <point x="90" y="481"/>
      <point x="140" y="500"/>
      <point x="229" y="500" type="curve" smooth="yes"/>
      <point x="343" y="500"/>
      <point x="425" y="453"/>
      <point x="425" y="369" type="curve" smooth="yes"/>
      <point x="425" y="299"/>
      <point x="384" y="269"/>
      <point x="305" y="220" type="curve" smooth="yes"/>
      <point x="237" y="178"/>
      <point x="159" y="166"/>
      <point x="159" y="111" type="curve" smooth="yes"/>
      <point x="159" y="80"/>
      <point x="178" y="47"/>
      <point x="242" y="47" type="curve" smooth="yes"/>
      <point x="274" y="47"/>
      <point x="333" y="69"/>
      <point x="336" y="75" type="curve" smooth="yes"/>
      <point x="336" y="75"/>
      <point x="348" y="140"/>
    </contour>
  </outline>
</glyph>
<glyph name="uni01B1" format="1">
  <advance width="729"/>
  <unicode hex="01B1"/>
  <outline>
    <contour>
      <point x="696" y="313" type="curve" smooth="yes"/>
      <point x="696" y="150"/>
      <point x="579" y="-16"/>
      <point x="365" y="-16" type="curve" smooth="yes"/>
      <point x="152" y="-16"/>
      <point x="34" y="150"/>
      <point x="34" y="313" type="curve" smooth="yes"/>
      <point x="34" y="430"/>
      <point x="103" y="552"/>
      <point x="154" y="595" type="curve" smooth="yes"/>
      <point x="166" y="605"/>
      <point x="165" y="616"/>
      <point x="149" y="617" type="curve" smooth="yes"/>
      <point x="69" y="621" type="line"/>
      <point x="69" y="671" type="line"/>
      <point x="292" y="671" type="line"/>
      <point x="229" y="551"/>
      <point x="198" y="486"/>
      <point x="198" y="342" type="curve" smooth="yes"/>
      <point x="198" y="149"/>
      <point x="268" y="49"/>
      <point x="365" y="49" type="curve" smooth="yes"/>
      <point x="463" y="49"/>
      <point x="533" y="149"/>
      <point x="533" y="342" type="curve" smooth="yes"/>
      <point x="533" y="480"/>
      <point x="502" y="551"/>
      <point x="439" y="671" type="curve"/>
      <point x="661" y="671" type="line"/>
      <point x="661" y="621" type="line"/>
      <point x="582" y="617" type="line" smooth="yes"/>
      <point x="566" y="616"/>
      <point x="565" y="605"/>
      <point x="577" y="595" type="curve" smooth="yes"/>
      <point x="628" y="552"/>
      <point x="696" y="430"/>
    </contour>
  </outline>
</glyph>
<glyph name="uni01B2" format="1">
  <advance width="714"/>
  <unicode hex="01B2"/>
  <outline>
    <contour>
      <point x="679" y="366" type="curve" smooth="yes"/>
      <point x="679" y="156"/>
      <point x="574" y="-16"/>
      <point x="345" y="-16" type="curve" smooth="yes"/>
      <point x="230" y="-16"/>
      <point x="99" y="45"/>
      <point x="99" y="208" type="curve" smooth="yes"/>
      <point x="99" y="604" type="line" smooth="yes"/>
      <point x="99" y="613"/>
      <point x="92" y="624"/>
      <point x="78" y="625" type="curve" smooth="yes"/>
      <point x="22" y="630" type="line"/>
      <point x="22" y="671" type="line"/>
      <point x="243" y="671" type="line"/>
      <point x="243" y="229" type="line" smooth="yes"/>
      <point x="243" y="110"/>
      <point x="284" y="71"/>
      <point x="376" y="71" type="curve" smooth="yes"/>
      <point x="490" y="71"/>
      <point x="607" y="167"/>
      <point x="607" y="355" type="curve" smooth="yes"/>
      <point x="607" y="449"/>
      <point x="558" y="516"/>
      <point x="522" y="547" type="curve"/>
      <point x="416" y="547" type="line"/>
      <point x="416" y="547"/>
      <point x="376" y="577"/>
      <point x="376" y="616" type="curve" smooth="yes"/>
      <point x="376" y="661"/>
      <point x="408" y="687"/>
      <point x="470" y="687" type="curve" smooth="yes"/>
      <point x="577" y="687"/>
      <point x="679" y="508"/>
    </contour>
  </outline>
</glyph>
<glyph name="uni01B7" format="1">
  <advance width="649"/>
  <unicode hex="01B7"/>
  <outline>
    <contour>
      <point x="582" y="671" type="line"/>
      <point x="582" y="618" type="line"/>
      <point x="373" y="316" type="line"/>
      <point x="515" y="316"/>
      <point x="614" y="183"/>
      <point x="614" y="74" type="curve" smooth="yes"/>
      <point x="614" y="-89"/>
      <point x="468" y="-231"/>
      <point x="291" y="-231" type="curve" smooth="yes"/>
      <point x="141" y="-231"/>
      <point x="26" y="-152"/>
      <point x="26" y="-68" type="curve" smooth="yes"/>
      <point x="26" y="3"/>
      <point x="73" y="22"/>
      <point x="109" y="22" type="curve" smooth="yes"/>
      <point x="129" y="23"/>
      <point x="147" y="14"/>
      <point x="159" y="7" type="curve"/>
      <point x="196" y="-136" type="line"/>
      <point x="220" y="-144"/>
      <point x="259" y="-163"/>
      <point x="290" y="-163" type="curve" smooth="yes"/>
      <point x="377" y="-163"/>
      <point x="457" y="-25"/>
      <point x="457" y="74" type="curve" smooth="yes"/>
      <point x="457" y="171"/>
      <point x="410" y="253"/>
      <point x="321" y="253" type="curve" smooth="yes"/>
      <point x="293" y="253"/>
      <point x="279" y="247"/>
      <point x="275" y="243" type="curve"/>
      <point x="245" y="276" type="line"/>
      <point x="426" y="544" type="line"/>
      <point x="173" y="544" type="line" smooth="yes"/>
      <point x="162" y="544"/>
      <point x="151" y="528"/>
      <point x="150" y="517" type="curve" smooth="yes"/>
      <point x="142" y="391" type="line"/>
      <point x="70" y="391" type="line"/>
      <point x="70" y="671" type="line"/>
    </contour>
  </outline>
</glyph>
<glyph name="uni01BD" format="1">
  <advance width="491"/>
  <unicode hex="01BD"/>
  <outline>
    <contour>
      <point x="429" y="350" type="line"/>
      <point x="378" y="350" type="line"/>
      <point x="366" y="411" type="line" smooth="yes"/>
      <point x="365" y="421"/>
      <point x="359" y="430"/>
      <point x="346" y="430" type="curve" smooth="yes"/>
      <point x="217" y="430" type="line" smooth="yes"/>
      <point x="206" y="430"/>
      <point x="200" y="421"/>
      <point x="200" y="415" type="curve" smooth="yes"/>
      <point x="200" y="329" type="line"/>
      <point x="330" y="329"/>
      <point x="461" y="276"/>
      <point x="461" y="158" type="curve" smooth="yes"/>
      <point x="461" y="59"/>
      <point x="357" y="-12"/>
      <point x="223" y="-12" type="curve" smooth="yes"/>
      <point x="117" y="-12"/>
      <point x="34" y="15"/>
      <point x="34" y="72" type="curve" smooth="yes"/>
      <point x="34" y="105"/>
      <point x="59" y="132"/>
      <point x="89" y="132" type="curve" smooth="yes"/>
      <point x="98" y="132"/>
      <point x="119" y="129"/>
      <point x="122" y="128" type="curve" smooth="yes"/>
      <point x="176" y="51" type="line"/>
      <point x="190" y="46"/>
      <point x="209" y="42"/>
      <point x="224" y="42" type="curve" smooth="yes"/>
      <point x="259" y="42"/>
      <point x="318" y="65"/>
      <point x="318" y="140" type="curve" smooth="yes"/>
      <point x="318" y="238"/>
      <point x="218" y="265"/>
      <point x="92" y="265" type="curve"/>
      <point x="92" y="415" type="line" smooth="yes"/>
      <point x="92" y="428"/>
      <point x="80" y="438"/>
      <point x="70" y="438" type="curve" smooth="yes"/>
      <point x="24" y="441" type="line"/>
      <point x="24" y="488" type="line"/>
      <point x="429" y="488" type="line"/>
    </contour>
  </outline>
</glyph>
<glyph name="uni01CA" format="1">
  <advance width="1256"/>
  <unicode hex="01CA"/>
  <outline>
    <contour>
      <point x="715" y="620" type="line"/>
      <point x="661" y="615" type="line" smooth="yes"/>
      <point x="650" y="614"/>
      <point x="639" y="606"/>
      <point x="639" y="593" type="curve" smooth="yes"/>
      <point x="639" y="0" type="line"/>
      <point x="517" y="0" type="line"/>
      <point x="180" y="529" type="line"/>
      <point x="180" y="78" type="line" smooth="yes"/>
      <point x="180" y="65"/>
      <point x="191" y="57"/>
      <point x="202" y="56" type="curve" smooth="yes"/>
      <point x="258" y="51" type="line"/>
      <point x="258" y="0" type="line"/>
      <point x="27" y="0" type="line"/>
      <point x="27" y="51" type="line"/>
      <point x="82" y="56" type="line" smooth="yes"/>
      <point x="94" y="57"/>
      <point x="104" y="65"/>
      <point x="104" y="78" type="curve" smooth="yes"/>
      <point x="104" y="593" type="line" smooth="yes"/>
      <point x="104" y="606"/>
      <point x="94" y="614"/>
      <point x="82" y="615" type="curve" smooth="yes"/>
      <point x="28" y="620" type="line"/>
      <point x="28" y="671" type="line"/>
      <point x="275" y="671" type="line"/>
      <point x="275" y="644" type="line"/>
      <point x="563" y="193" type="line"/>
      <point x="563" y="593" type="line" smooth="yes"/>
      <point x="563" y="606"/>
      <point x="552" y="614"/>
      <point x="540" y="615" type="curve" smooth="yes"/>
      <point x="483" y="620" type="line"/>
      <point x="483" y="671" type="line"/>
      <point x="715" y="671" type="line"/>
    </contour>
    <contour>
      <point x="1234" y="620" type="line"/>
      <point x="1173" y="615" type="line" smooth="yes"/>
      <point x="1161" y="614"/>
      <point x="1151" y="606"/>
      <point x="1151" y="593" type="curve" smooth="yes"/>
      <point x="1151" y="242" type="line" smooth="yes"/>
      <point x="1151" y="88"/>
      <point x="1081" y="-16"/>
      <point x="917" y="-16" type="curve" smooth="yes"/>
      <point x="862" y="-16"/>
      <point x="799" y="1"/>
      <point x="768" y="12" type="curve"/>
      <point x="768" y="195" type="line"/>
      <point x="846" y="195" type="line"/>
      <point x="869" y="61" type="line"/>
      <point x="869" y="61"/>
      <point x="874" y="44"/>
      <point x="895" y="44" type="curve" smooth="yes"/>
      <point x="969" y="44"/>
      <point x="1009" y="94"/>
      <point x="1009" y="245" type="curve" smooth="yes"/>
      <point x="1009" y="593" type="line" smooth="yes"/>
      <point x="1009" y="606"/>
      <point x="998" y="614"/>
      <point x="987" y="615" type="curve" smooth="yes"/>
      <point x="925" y="620" type="line"/>
      <point x="925" y="671" type="line"/>
      <point x="1234" y="671" type="line"/>
    </contour>
  </outline>
</glyph>
<glyph name="Gacute" format="1">
  <advance width="715"/>
  <unicode hex="01F4"/>
  <outline>
    <contour>
      <point x="693" y="281" type="line"/>
      <point x="642" y="276" type="line" smooth="yes"/>
      <point x="630" y="275"/>
      <point x="619" y="267"/>
      <point x="619" y="254" type="curve" smooth="yes"/>
      <point x="619" y="31" type="line"/>
      <point x="619" y="31"/>
      <point x="521" y="-16"/>
      <point x="387" y="-16" type="curve" smooth="yes"/>
      <point x="187" y="-16"/>
      <point x="37" y="124"/>
      <point x="37" y="337" type="curve" smooth="yes"/>
      <point x="37" y="553"/>
      <point x="188" y="687"/>
      <point x="395" y="687" type="curve" smooth="yes"/>
      <point x="526" y="687"/>
      <point x="620" y="648"/>
      <point x="620" y="648" type="curve"/>
      <point x="620" y="475" type="line"/>
      <point x="542" y="475" type="line"/>
      <point x="522" y="583" type="line" smooth="yes"/>
      <point x="521" y="590"/>
      <point x="512" y="601"/>
      <point x="504" y="604" type="curve" smooth="yes"/>
      <point x="473" y="616"/>
      <point x="443" y="621"/>
      <point x="432" y="621" type="curve" smooth="yes"/>
      <point x="258" y="621"/>
      <point x="192" y="483"/>
      <point x="192" y="341" type="curve" smooth="yes"/>
      <point x="192" y="169"/>
      <point x="279" y="59"/>
      <point x="436" y="59" type="curve" smooth="yes"/>
      <point x="445" y="59"/>
      <point x="457" y="57"/>
      <point x="481" y="59" type="curve"/>
      <point x="481" y="254" type="line" smooth="yes"/>
      <point x="481" y="267"/>
      <point x="470" y="276"/>
      <point x="458" y="276" type="curve" smooth="yes"/>
      <point x="391" y="281" type="line"/>
      <point x="391" y="332" type="line"/>
      <point x="693" y="332" type="line"/>
    </contour>
    <contour>
      <point x="546" y="876" type="curve" smooth="yes"/>
      <point x="546" y="863"/>
      <point x="535" y="842"/>
      <point x="521" y="834" type="curve" smooth="yes"/>
      <point x="358" y="746" type="line"/>
      <point x="289" y="746" type="line"/>
      <point x="425" y="897" type="line" smooth="yes"/>
      <point x="448" y="922"/>
      <point x="461" y="929"/>
      <point x="488" y="929" type="curve" smooth="yes"/>
      <point x="531" y="929"/>
      <point x="546" y="900"/>
    </contour>
  </outline>
</glyph>
<glyph name="uni01F7" format="1">
  <advance width="628"/>
  <unicode hex="01F7"/>
  <outline>
    <contour>
      <point x="305" y="-218" type="line"/>
      <point x="29" y="-218" type="line"/>
      <point x="29" y="-171" type="line"/>
      <point x="78" y="-168" type="line" smooth="yes"/>
      <point x="90" y="-166"/>
      <point x="100" y="-158"/>
      <point x="100" y="-145" type="curve" smooth="yes"/>
      <point x="100" y="579" type="line"/>
      <point x="29" y="579" type="line"/>
      <point x="29" y="620" type="line"/>
      <point x="182" y="671" type="line"/>
      <point x="233" y="671" type="line"/>
      <point x="233" y="605" type="line"/>
      <point x="285" y="654"/>
      <point x="339" y="687"/>
      <point x="421" y="687" type="curve" smooth="yes"/>
      <point x="539" y="687"/>
      <point x="600" y="595"/>
      <point x="600" y="507" type="curve" smooth="yes"/>
      <point x="600" y="299"/>
      <point x="393" y="126"/>
      <point x="233" y="15" type="curve"/>
      <point x="233" y="-145" type="line" smooth="yes"/>
      <point x="233" y="-158"/>
      <point x="242" y="-168"/>
      <point x="256" y="-168" type="curve" smooth="yes"/>
      <point x="305" y="-171" type="line"/>
    </contour>
    <contour>
      <point x="233" y="518" type="curve"/>
      <point x="233" y="108" type="line"/>
      <point x="369" y="209"/>
      <point x="445" y="382"/>
      <point x="445" y="469" type="curve" smooth="yes"/>
      <point x="445" y="529"/>
      <point x="421" y="583"/>
      <point x="371" y="583" type="curve" smooth="yes"/>
      <point x="320" y="583"/>
      <point x="270" y="553"/>
    </contour>
  </outline>
</glyph>
<glyph name="uni01F8" format="1">
  <advance width="744"/>
  <unicode hex="01F8"/>
  <outline>
    <contour>
      <point x="715" y="620" type="line"/>
      <point x="661" y="615" type="line" smooth="yes"/>
      <point x="650" y="614"/>
      <point x="639" y="606"/>
      <point x="639" y="593" type="curve" smooth="yes"/>
      <point x="639" y="0" type="line"/>
      <point x="517" y="0" type="line"/>
      <point x="180" y="529" type="line"/>
      <point x="180" y="78" type="line" smooth="yes"/>
      <point x="180" y="65"/>
      <point x="191" y="57"/>
      <point x="202" y="56" type="curve" smooth="yes"/>
      <point x="258" y="51" type="line"/>
      <point x="258" y="0" type="line"/>
      <point x="27" y="0" type="line"/>
      <point x="27" y="51" type="line"/>
      <point x="82" y="56" type="line" smooth="yes"/>
      <point x="94" y="57"/>
      <point x="104" y="65"/>
      <point x="104" y="78" type="curve" smooth="yes"/>
      <point x="104" y="593" type="line" smooth="yes"/>
      <point x="104" y="606"/>
      <point x="94" y="614"/>
      <point x="82" y="615" type="curve" smooth="yes"/>
      <point x="28" y="620" type="line"/>
      <point x="28" y="671" type="line"/>
      <point x="275" y="671" type="line"/>
      <point x="275" y="644" type="line"/>
      <point x="563" y="193" type="line"/>
      <point x="563" y="593" type="line" smooth="yes"/>
      <point x="563" y="606"/>
      <point x="552" y="614"/>
      <point x="540" y="615" type="curve" smooth="yes"/>
      <point x="483" y="620" type="line"/>
      <point x="483" y="671" type="line"/>
      <point x="715" y="671" type="line"/>
    </contour>
    <contour>
      <point x="469" y="746" type="line"/>
      <point x="399" y="746" type="line"/>
      <point x="237" y="834" type="line" smooth="yes"/>
      <point x="223" y="842"/>
      <point x="212" y="863"/>
      <point x="212" y="876" type="curve" smooth="yes"/>
      <point x="212" y="900"/>
      <point x="226" y="929"/>
      <point x="269" y="929" type="curve" smooth="yes"/>
      <point x="296" y="929"/>
      <point x="309" y="922"/>
      <point x="332" y="897" type="curve" smooth="yes"/>
    </contour>
  </outline>
</glyph>
<glyph name="uni020C" format="1">
  <advance width="755"/>
  <unicode hex="020C"/>
  <outline>
    <contour>
      <point x="720" y="332" type="curve" smooth="yes"/>
      <point x="720" y="141"/>
      <point x="585" y="-16"/>
      <point x="384" y="-16" type="curve" smooth="yes"/>
      <point x="184" y="-16"/>
      <point x="37" y="113"/>
      <point x="37" y="340" type="curve" smooth="yes"/>
      <point x="37" y="537"/>
      <point x="162" y="687"/>
      <point x="375" y="687" type="curve" smooth="yes"/>
      <point x="583" y="687"/>
      <point x="720" y="526"/>
    </contour>
    <contour>
      <point x="559" y="328" type="curve" smooth="yes"/>
      <point x="559" y="485"/>
      <point x="500" y="620"/>
      <point x="384" y="620" type="curve" smooth="yes"/>
      <point x="245" y="620"/>
      <point x="197" y="471"/>
      <point x="197" y="337" type="curve" smooth="yes"/>
      <point x="197" y="195"/>
      <point x="251" y="47"/>
      <point x="374" y="47" type="curve" smooth="yes"/>
      <point x="508" y="47"/>
      <point x="559" y="199"/>
    </contour>
    <contour>
      <point x="571" y="746" type="line"/>
      <point x="501" y="746" type="line"/>
      <point x="340" y="834" type="line" smooth="yes"/>
      <point x="325" y="842"/>
      <point x="314" y="863"/>
      <point x="314" y="876" type="curve" smooth="yes"/>
      <point x="314" y="900"/>
      <point x="328" y="929"/>
      <point x="371" y="929" type="curve" smooth="yes"/>
      <point x="398" y="929"/>
      <point x="412" y="922"/>
      <point x="434" y="897" type="curve" smooth="yes"/>
    </contour>
    <contour>
      <point x="356" y="746" type="line"/>
      <point x="287" y="746" type="line"/>
      <point x="125" y="834" type="line" smooth="yes"/>
      <point x="111" y="842"/>
      <point x="99" y="863"/>
      <point x="99" y="876" type="curve" smooth="yes"/>
      <point x="99" y="900"/>
      <point x="113" y="929"/>
      <point x="156" y="929" type="curve" smooth="yes"/>
      <point x="183" y="929"/>
      <point x="197" y="922"/>
      <point x="220" y="897" type="curve" smooth="yes"/>
    </contour>
  </outline>
</glyph>
<glyph name="uni0211" format="1">
  <advance width="432"/>
  <unicode hex="0211"/>
  <outline>
    <contour>
      <point x="422" y="330" type="line"/>
      <point x="354" y="330" type="line"/>
      <point x="345" y="343"/>
      <point x="328" y="370"/>
      <point x="289" y="370" type="curve" smooth="yes"/>
      <point x="251" y="370"/>
      <point x="224" y="352"/>
      <point x="224" y="352" type="curve"/>
      <point x="224" y="72" type="line" smooth="yes"/>
      <point x="224" y="60"/>
      <point x="233" y="49"/>
      <point x="246" y="49" type="curve" smooth="yes"/>
      <point x="310" y="46" type="line"/>
      <point x="310" y="-1" type="line"/>
      <point x="24" y="-1" type="line"/>
      <point x="24" y="46" type="line"/>
      <point x="68" y="49" type="line" smooth="yes"/>
      <point x="80" y="50"/>
      <point x="90" y="60"/>
      <point x="90" y="72" type="curve" smooth="yes"/>
      <point x="90" y="408" type="line"/>
      <point x="17" y="408" type="line"/>
      <point x="17" y="449" type="line"/>
      <point x="172" y="500" type="line"/>
      <point x="224" y="500" type="line"/>
      <point x="224" y="394" type="line"/>
      <point x="249" y="426"/>
      <point x="313" y="500"/>
      <point x="359" y="500" type="curve" smooth="yes"/>
      <point x="382" y="500"/>
      <point x="410" y="491"/>
      <point x="422" y="482" type="curve"/>
    </contour>
    <contour>
      <point x="427" y="551" type="line"/>
      <point x="357" y="551" type="line"/>
      <point x="196" y="639" type="line" smooth="yes"/>
      <point x="181" y="647"/>
      <point x="170" y="668"/>
      <point x="170" y="681" type="curve" smooth="yes"/>
      <point x="170" y="705"/>
      <point x="184" y="734"/>
      <point x="227" y="734" type="curve" smooth="yes"/>
      <point x="254" y="734"/>
      <point x="268" y="727"/>
      <point x="290" y="702" type="curve" smooth="yes"/>
    </contour>
    <contour>
      <point x="212" y="551" type="line"/>
      <point x="143" y="551" type="line"/>
      <point x="-19" y="639" type="line" smooth="yes"/>
      <point x="-33" y="647"/>
      <point x="-45" y="668"/>
      <point x="-45" y="681" type="curve" smooth="yes"/>
      <point x="-45" y="705"/>
      <point x="-31" y="734"/>
      <point x="12" y="734" type="curve" smooth="yes"/>
      <point x="39" y="734"/>
      <point x="53" y="727"/>
      <point x="76" y="702" type="curve" smooth="yes"/>
    </contour>
  </outline>
</glyph>
<glyph name="uni0220" format="1">
  <advance width="777"/>
  <unicode hex="0220"/>
  <outline>
    <contour>
      <point x="668" y="467" type="curve" smooth="yes"/>
      <point x="668" y="-141" type="line" smooth="yes"/>
      <point x="668" y="-154"/>
      <point x="680" y="-162"/>
      <point x="691" y="-163" type="curve" smooth="yes"/>
      <point x="746" y="-168" type="line"/>
      <point x="746" y="-219" type="line"/>
      <point x="443" y="-219" type="line"/>
      <point x="443" y="-168" type="line"/>
      <point x="503" y="-163" type="line" smooth="yes"/>
      <point x="514" y="-162"/>
      <point x="525" y="-154"/>
      <point x="525" y="-141" type="curve" smooth="yes"/>
      <point x="525" y="462" type="line" smooth="yes"/>
      <point x="525" y="508"/>
      <point x="489" y="597"/>
      <point x="416" y="597" type="curve" smooth="yes"/>
      <point x="355" y="597"/>
      <point x="261" y="559"/>
      <point x="247" y="541" type="curve"/>
      <point x="247" y="83" type="line" smooth="yes"/>
      <point x="247" y="70"/>
      <point x="259" y="64"/>
      <point x="270" y="62" type="curve" smooth="yes"/>
      <point x="325" y="51" type="line"/>
      <point x="325" y="0" type="line"/>
      <point x="27" y="0" type="line"/>
      <point x="27" y="51" type="line"/>
      <point x="82" y="56" type="line" smooth="yes"/>
      <point x="93" y="57"/>
      <point x="104" y="70"/>
      <point x="104" y="83" type="curve" smooth="yes"/>
      <point x="104" y="602" type="line" smooth="yes"/>
      <point x="104" y="608"/>
      <point x="96" y="615"/>
      <point x="89" y="615" type="curve" smooth="yes"/>
      <point x="29" y="620" type="line"/>
      <point x="29" y="671" type="line"/>
      <point x="248" y="671" type="line"/>
      <point x="248" y="609" type="line"/>
      <point x="263" y="636"/>
      <point x="377" y="687"/>
      <point x="460" y="687" type="curve" smooth="yes"/>
      <point x="605" y="687"/>
      <point x="668" y="597"/>
    </contour>
  </outline>
</glyph>
<glyph name="uni0224" format="1">
  <advance width="581"/>
  <unicode hex="0224"/>
  <outline>
    <contour>
      <point x="539" y="612" type="line"/>
      <point x="197" y="62" type="line"/>
      <point x="563" y="62" type="line"/>
      <point x="574" y="51"/>
      <point x="577" y="35"/>
      <point x="577" y="3" type="curve" smooth="yes"/>
      <point x="577" y="-43"/>
      <point x="536" y="-117"/>
      <point x="483" y="-160" type="curve"/>
      <point x="441" y="-160" type="line"/>
      <point x="463" y="-134"/>
      <point x="477" y="-84"/>
      <point x="477" y="-44" type="curve" smooth="yes"/>
      <point x="477" y="-19"/>
      <point x="473" y="-10"/>
      <point x="467" y="0" type="curve"/>
      <point x="37" y="0" type="line"/>
      <point x="37" y="59" type="line"/>
      <point x="380" y="610" type="line"/>
      <point x="159" y="610" type="line" smooth="yes"/>
      <point x="151" y="610"/>
      <point x="146" y="606"/>
      <point x="145" y="598" type="curve" smooth="yes"/>
      <point x="127" y="489" type="line"/>
      <point x="54" y="489" type="line"/>
      <point x="54" y="671" type="line"/>
      <point x="539" y="671" type="line"/>
    </contour>
  </outline>
</glyph>
<glyph name="uni0230" format="1">
  <advance width="755"/>
  <unicode hex="0230"/>
  <outline>
    <contour>
      <point x="720" y="332" type="curve" smooth="yes"/>
      <point x="720" y="141"/>
      <point x="585" y="-16"/>
      <point x="384" y="-16" type="curve" smooth="yes"/>
      <point x="184" y="-16"/>
      <point x="37" y="113"/>
      <point x="37" y="340" type="curve" smooth="yes"/>
      <point x="37" y="537"/>
      <point x="162" y="687"/>
      <point x="375" y="687" type="curve" smooth="yes"/>
      <point x="583" y="687"/>
      <point x="720" y="526"/>
    </contour>
    <contour>
      <point x="559" y="328" type="curve" smooth="yes"/>
      <point x="559" y="485"/>
      <point x="500" y="620"/>
      <point x="384" y="620" type="curve" smooth="yes"/>
      <point x="245" y="620"/>
      <point x="197" y="471"/>
      <point x="197" y="337" type="curve" smooth="yes"/>
      <point x="197" y="195"/>
      <point x="251" y="47"/>
      <point x="374" y="47" type="curve" smooth="yes"/>
      <point x="508" y="47"/>
      <point x="559" y="199"/>
    </contour>
    <contour>
      <point x="447" y="848" type="curve" smooth="yes"/>
      <point x="447" y="811"/>
      <point x="417" y="780"/>
      <point x="378" y="780" type="curve" smooth="yes"/>
      <point x="339" y="780"/>
      <point x="311" y="809"/>
      <point x="311" y="848" type="curve" smooth="yes"/>
      <point x="311" y="888"/>
      <point x="338" y="921"/>
      <point x="378" y="921" type="curve" smooth="yes"/>
      <point x="416" y="921"/>
      <point x="447" y="889"/>
    </contour>
    <contour>
      <point x="548" y="977" type="line"/>
      <point x="208" y="977" type="line"/>
      <point x="208" y="1057" type="line"/>
      <point x="548" y="1057" type="line"/>
    </contour>
  </outline>
</glyph>
<glyph name="uni0250" format="1">
  <advance width="553"/>
  <unicode hex="0250"/>
  <outline>
    <contour>
      <point x="521" y="371" type="curve" smooth="yes"/>
      <point x="521" y="281"/>
      <point x="491" y="236"/>
      <point x="215" y="175" type="curve"/>
      <point x="215" y="161"/>
      <point x="214" y="137"/>
      <point x="214" y="137" type="curve" smooth="yes"/>
      <point x="213" y="99"/>
      <point x="228" y="43"/>
      <point x="309" y="43" type="curve" smooth="yes"/>
      <point x="335" y="43"/>
      <point x="352" y="47"/>
      <point x="352" y="47" type="curve"/>
      <point x="352" y="143" type="line"/>
      <point x="455" y="143" type="line"/>
      <point x="455" y="143"/>
      <point x="500" y="148"/>
      <point x="500" y="106" type="curve" smooth="yes"/>
      <point x="500" y="33"/>
      <point x="382" y="-12"/>
      <point x="276" y="-12" type="curve" smooth="yes"/>
      <point x="161" y="-12"/>
      <point x="83" y="14"/>
      <point x="83" y="158" type="curve" smooth="yes"/>
      <point x="83" y="415" type="line" smooth="yes"/>
      <point x="83" y="427"/>
      <point x="73" y="437"/>
      <point x="61" y="438" type="curve" smooth="yes"/>
      <point x="17" y="441" type="line"/>
      <point x="17" y="488" type="line"/>
      <point x="204" y="488" type="line"/>
      <point x="216" y="438" type="line"/>
      <point x="216" y="438"/>
      <point x="302" y="500"/>
      <point x="391" y="500" type="curve" smooth="yes"/>
      <point x="463" y="500"/>
      <point x="521" y="450"/>
    </contour>
    <contour>
      <point x="379" y="343" type="curve" smooth="yes"/>
      <point x="379" y="384"/>
      <point x="350" y="417"/>
      <point x="309" y="417" type="curve" smooth="yes"/>
      <point x="266" y="417"/>
      <point x="216" y="395"/>
      <point x="216" y="395" type="curve"/>
      <point x="216" y="229" type="line"/>
      <point x="346" y="256"/>
      <point x="379" y="283"/>
    </contour>
  </outline>
</glyph>
<glyph name="uni025D" format="1">
  <advance width="618"/>
  <unicode hex="025D"/>
  <outline>
    <contour>
      <point x="632" y="373" type="line"/>
      <point x="623" y="327"/>
      <point x="606" y="257"/>
      <point x="530" y="257" type="curve" smooth="yes"/>
      <point x="482" y="257"/>
      <point x="448" y="305"/>
      <point x="448" y="349" type="curve" smooth="yes"/>
      <point x="448" y="431" type="line"/>
      <point x="386" y="388" type="line"/>
      <point x="389" y="377"/>
      <point x="391" y="365"/>
      <point x="391" y="353" type="curve" smooth="yes"/>
      <point x="391" y="319"/>
      <point x="373" y="280"/>
      <point x="343" y="250" type="curve"/>
      <point x="382" y="231"/>
      <point x="414" y="197"/>
      <point x="414" y="142" type="curve" smooth="yes"/>
      <point x="414" y="37"/>
      <point x="335" y="-12"/>
      <point x="207" y="-12" type="curve" smooth="yes"/>
      <point x="153" y="-12"/>
      <point x="89" y="4"/>
      <point x="23" y="66" type="curve"/>
      <point x="23" y="145" type="line"/>
      <point x="98" y="76"/>
      <point x="155" y="54"/>
      <point x="208" y="54" type="curve" smooth="yes"/>
      <point x="268" y="54"/>
      <point x="287" y="100"/>
      <point x="287" y="143" type="curve" smooth="yes"/>
      <point x="287" y="180"/>
      <point x="272" y="209"/>
      <point x="195" y="211" type="curve" smooth="yes"/>
      <point x="168" y="212" type="line"/>
      <point x="168" y="260" type="line"/>
      <point x="242" y="260"/>
      <point x="268" y="285"/>
      <point x="268" y="353" type="curve" smooth="yes"/>
      <point x="268" y="393"/>
      <point x="247" y="441"/>
      <point x="209" y="441" type="curve" smooth="yes"/>
      <point x="192" y="441"/>
      <point x="158" y="436"/>
      <point x="154" y="431" type="curve"/>
      <point x="154" y="349" type="line"/>
      <point x="154" y="349"/>
      <point x="134" y="317"/>
      <point x="93" y="317" type="curve" smooth="yes"/>
      <point x="58" y="317"/>
      <point x="27" y="348"/>
      <point x="27" y="386" type="curve" smooth="yes"/>
      <point x="27" y="463"/>
      <point x="112" y="500"/>
      <point x="206" y="500" type="curve" smooth="yes"/>
      <point x="273" y="500"/>
      <point x="332" y="473"/>
      <point x="365" y="430" type="curve"/>
      <point x="457" y="491" type="line"/>
      <point x="496" y="471" type="line"/>
      <point x="496" y="375" type="line" smooth="yes"/>
      <point x="496" y="337"/>
      <point x="502" y="303"/>
      <point x="535" y="303" type="curve" smooth="yes"/>
      <point x="578" y="303"/>
      <point x="585" y="354"/>
      <point x="594" y="394" type="curve"/>
    </contour>
  </outline>
</glyph>
<glyph name="uni0264" format="1">
  <advance width="578"/>
  <unicode hex="0264"/>
  <outline>
    <contour>
      <point x="568" y="391" type="curve" smooth="yes"/>
      <point x="568" y="360"/>
      <point x="563" y="328"/>
      <point x="563" y="305" type="curve"/>
      <point x="519" y="305" type="line"/>
      <point x="519" y="305"/>
      <point x="507" y="392"/>
      <point x="472" y="392" type="curve" smooth="yes"/>
      <point x="443" y="392"/>
      <point x="418" y="369"/>
      <point x="403" y="347" type="curve" smooth="yes"/>
      <point x="403" y="347"/>
      <point x="373" y="302"/>
      <point x="338" y="252" type="curve"/>
      <point x="374" y="194" type="line" smooth="yes"/>
      <point x="389" y="169"/>
      <point x="406" y="132"/>
      <point x="406" y="91" type="curve" smooth="yes"/>
      <point x="406" y="41"/>
      <point x="353" y="-12"/>
      <point x="294" y="-12" type="curve" smooth="yes"/>
      <point x="239" y="-12"/>
      <point x="174" y="9"/>
      <point x="174" y="91" type="curve" smooth="yes"/>
      <point x="174" y="121"/>
      <point x="195" y="153"/>
      <point x="213" y="180" type="curve" smooth="yes"/>
      <point x="238" y="216" type="line"/>
      <point x="205" y="272"/>
      <point x="173" y="327"/>
      <point x="173" y="327" type="curve" smooth="yes"/>
      <point x="159" y="351"/>
      <point x="141" y="392"/>
      <point x="104" y="392" type="curve" smooth="yes"/>
      <point x="64" y="392"/>
      <point x="60" y="305"/>
      <point x="60" y="305" type="curve"/>
      <point x="12" y="305" type="line"/>
      <point x="12" y="322"/>
      <point x="10" y="355"/>
      <point x="10" y="391" type="curve" smooth="yes"/>
      <point x="10" y="445"/>
      <point x="48" y="500"/>
      <point x="99" y="500" type="curve" smooth="yes"/>
      <point x="179" y="500"/>
      <point x="216" y="453"/>
      <point x="239" y="416" type="curve" smooth="yes"/>
      <point x="302" y="314" type="line"/>
      <point x="360" y="400" type="line" smooth="yes"/>
      <point x="388" y="441"/>
      <point x="431" y="500"/>
      <point x="479" y="500" type="curve" smooth="yes"/>
      <point x="537" y="500"/>
      <point x="568" y="446"/>
    </contour>
    <contour>
      <point x="307" y="84" type="curve" smooth="yes"/>
      <point x="307" y="93"/>
      <point x="293" y="121"/>
      <point x="273" y="156" type="curve"/>
      <point x="252" y="121"/>
      <point x="237" y="92"/>
      <point x="237" y="80" type="curve" smooth="yes"/>
      <point x="237" y="55"/>
      <point x="252" y="42"/>
      <point x="274" y="42" type="curve" smooth="yes"/>
      <point x="297" y="42"/>
      <point x="307" y="62"/>
    </contour>
  </outline>
</glyph>
<glyph name="uni0267" format="1">
  <advance width="606"/>
  <unicode hex="0267"/>
  <outline>
    <contour>
      <point x="536" y="50" type="line" smooth="yes"/>
      <point x="536" y="-99"/>
      <point x="488" y="-231"/>
      <point x="331" y="-231" type="curve" smooth="yes"/>
      <point x="245" y="-231"/>
      <point x="172" y="-205"/>
      <point x="172" y="-149" type="curve" smooth="yes"/>
      <point x="172" y="-102"/>
      <point x="197" y="-78"/>
      <point x="229" y="-61" type="curve"/>
      <point x="336" y="-172" type="line"/>
      <point x="372" y="-172"/>
      <point x="402" y="-115"/>
      <point x="402" y="6" type="curve" smooth="yes"/>
      <point x="402" y="309" type="line" smooth="yes"/>
      <point x="402" y="342"/>
      <point x="392" y="408"/>
      <point x="318" y="408" type="curve" smooth="yes"/>
      <point x="278" y="408"/>
      <point x="224" y="395"/>
      <point x="224" y="395" type="curve"/>
      <point x="224" y="73" type="line" smooth="yes"/>
      <point x="224" y="61"/>
      <point x="234" y="51"/>
      <point x="246" y="50" type="curve" smooth="yes"/>
      <point x="281" y="47" type="line"/>
      <point x="281" y="0" type="line"/>
      <point x="27" y="0" type="line"/>
      <point x="27" y="47" type="line"/>
      <point x="68" y="50" type="line" smooth="yes"/>
      <point x="80" y="51"/>
      <point x="90" y="61"/>
      <point x="90" y="73" type="curve" smooth="yes"/>
      <point x="90" y="500" type="line" smooth="yes"/>
      <point x="90" y="615"/>
      <point x="154" y="740"/>
      <point x="319" y="740" type="curve" smooth="yes"/>
      <point x="406" y="740"/>
      <point x="505" y="696"/>
      <point x="505" y="635" type="curve" smooth="yes"/>
      <point x="505" y="602"/>
      <point x="482" y="565"/>
      <point x="453" y="565" type="curve" smooth="yes"/>
      <point x="436" y="565"/>
      <point x="420" y="576"/>
      <point x="420" y="576" type="curve"/>
      <point x="380" y="671" type="line"/>
      <point x="380" y="671"/>
      <point x="357" y="678"/>
      <point x="341" y="678" type="curve" smooth="yes"/>
      <point x="286" y="678"/>
      <point x="224" y="625"/>
      <point x="224" y="500" type="curve" smooth="yes"/>
      <point x="224" y="438" type="line"/>
      <point x="224" y="438"/>
      <point x="321" y="500"/>
      <point x="399" y="500" type="curve" smooth="yes"/>
      <point x="517" y="500"/>
      <point x="536" y="402"/>
      <point x="536" y="343" type="curve" smooth="yes"/>
    </contour>
  </outline>
</glyph>
<glyph name="uni026B" format="1">
  <advance width="437"/>
  <unicode hex="026B"/>
  <outline>
    <contour>
      <point x="438" y="449" type="line"/>
      <point x="417" y="380"/>
      <point x="384" y="322"/>
      <point x="300" y="322" type="curve"/>
      <point x="286" y="324" type="line"/>
      <point x="286" y="73" type="line" smooth="yes"/>
      <point x="286" y="60"/>
      <point x="295" y="51"/>
      <point x="308" y="50" type="curve" smooth="yes"/>
      <point x="358" y="47" type="line"/>
      <point x="358" y="0" type="line"/>
      <point x="81" y="0" type="line"/>
      <point x="81" y="47" type="line"/>
      <point x="131" y="50" type="line" smooth="yes"/>
      <point x="144" y="51"/>
      <point x="153" y="60"/>
      <point x="153" y="73" type="curve" smooth="yes"/>
      <point x="153" y="370" type="line"/>
      <point x="143" y="372"/>
      <point x="132" y="373"/>
      <point x="121" y="373" type="curve" smooth="yes"/>
      <point x="94" y="373"/>
      <point x="71" y="352"/>
      <point x="67" y="325" type="curve"/>
      <point x="0" y="325" type="line"/>
      <point x="21" y="395"/>
      <point x="54" y="453"/>
      <point x="138" y="452" type="curve"/>
      <point x="153" y="449" type="line"/>
      <point x="153" y="649" type="line"/>
      <point x="82" y="649" type="line"/>
      <point x="82" y="690" type="line"/>
      <point x="235" y="740" type="line"/>
      <point x="286" y="740" type="line"/>
      <point x="286" y="404" type="line"/>
      <point x="296" y="402"/>
      <point x="306" y="401"/>
      <point x="317" y="401" type="curve" smooth="yes"/>
      <point x="344" y="401"/>
      <point x="368" y="422"/>
      <point x="372" y="449" type="curve"/>
    </contour>
  </outline>
</glyph>
<glyph name="uni026F" format="1">
  <advance width="905"/>
  <unicode hex="026F"/>
  <outline>
    <contour>
      <point x="884" y="39" type="line"/>
      <point x="737" y="-11" type="line"/>
      <point x="687" y="-11" type="line"/>
      <point x="687" y="49" type="line"/>
      <point x="687" y="49"/>
      <point x="601" y="-11"/>
      <point x="523" y="-11" type="curve" smooth="yes"/>
      <point x="447" y="-11"/>
      <point x="420" y="35"/>
      <point x="402" y="56" type="curve"/>
      <point x="402" y="56"/>
      <point x="301" y="-11"/>
      <point x="224" y="-11" type="curve" smooth="yes"/>
      <point x="103" y="-11"/>
      <point x="86" y="94"/>
      <point x="86" y="141" type="curve" smooth="yes"/>
      <point x="86" y="415" type="line" smooth="yes"/>
      <point x="86" y="427"/>
      <point x="76" y="437"/>
      <point x="64" y="438" type="curve" smooth="yes"/>
      <point x="27" y="441" type="line"/>
      <point x="27" y="488" type="line"/>
      <point x="273" y="488" type="line"/>
      <point x="273" y="441" type="line"/>
      <point x="242" y="438" type="line" smooth="yes"/>
      <point x="230" y="437"/>
      <point x="219" y="427"/>
      <point x="219" y="415" type="curve" smooth="yes"/>
      <point x="219" y="174" type="line" smooth="yes"/>
      <point x="219" y="125"/>
      <point x="239" y="80"/>
      <point x="306" y="80" type="curve" smooth="yes"/>
      <point x="349" y="80"/>
      <point x="386" y="96"/>
      <point x="386" y="96" type="curve"/>
      <point x="386" y="415" type="line" smooth="yes"/>
      <point x="386" y="427"/>
      <point x="375" y="437"/>
      <point x="363" y="438" type="curve" smooth="yes"/>
      <point x="333" y="441" type="line"/>
      <point x="333" y="488" type="line"/>
      <point x="573" y="488" type="line"/>
      <point x="573" y="441" type="line"/>
      <point x="542" y="438" type="line" smooth="yes"/>
      <point x="530" y="437"/>
      <point x="520" y="427"/>
      <point x="520" y="415" type="curve" smooth="yes"/>
      <point x="520" y="174" type="line" smooth="yes"/>
      <point x="520" y="125"/>
      <point x="543" y="80"/>
      <point x="606" y="80" type="curve" smooth="yes"/>
      <point x="661" y="80"/>
      <point x="687" y="96"/>
      <point x="687" y="96" type="curve"/>
      <point x="687" y="415" type="line" smooth="yes"/>
      <point x="687" y="427"/>
      <point x="676" y="437"/>
      <point x="664" y="438" type="curve" smooth="yes"/>
      <point x="633" y="441" type="line"/>
      <point x="633" y="488" type="line"/>
      <point x="878" y="488" type="line"/>
      <point x="878" y="441" type="line"/>
      <point x="842" y="438" type="line" smooth="yes"/>
      <point x="830" y="437"/>
      <point x="820" y="427"/>
      <point x="820" y="415" type="curve" smooth="yes"/>
      <point x="820" y="80" type="line"/>
      <point x="884" y="80" type="line"/>
    </contour>
  </outline>
</glyph>
<glyph name="uni027E" format="1">
  <advance width="431"/>
  <unicode hex="027E"/>
  <outline>
    <contour>
      <point x="409" y="434" type="curve" smooth="yes"/>
      <point x="409" y="391"/>
      <point x="356" y="359"/>
      <point x="356" y="359" type="curve"/>
      <point x="274" y="441" type="line"/>
      <point x="236" y="442"/>
      <point x="223" y="416"/>
      <point x="223" y="307" type="curve" smooth="yes"/>
      <point x="223" y="72" type="line" smooth="yes"/>
      <point x="223" y="63"/>
      <point x="236" y="53"/>
      <point x="244" y="52" type="curve" smooth="yes"/>
      <point x="294" y="47" type="line"/>
      <point x="294" y="0" type="line"/>
      <point x="23" y="0" type="line"/>
      <point x="23" y="47" type="line"/>
      <point x="68" y="52" type="line" smooth="yes"/>
      <point x="76" y="53"/>
      <point x="90" y="63"/>
      <point x="90" y="72" type="curve" smooth="yes"/>
      <point x="90" y="307" type="line" smooth="yes"/>
      <point x="90" y="424"/>
      <point x="186" y="500"/>
      <point x="309" y="500" type="curve" smooth="yes"/>
      <point x="389" y="500"/>
      <point x="409" y="459"/>
    </contour>
  </outline>
</glyph>
<glyph name="uni0281" format="1">
  <advance width="562"/>
  <unicode hex="0281"/>
  <outline>
    <contour>
      <point x="563" y="440" type="line"/>
      <point x="475" y="449"/>
      <point x="461" y="411"/>
      <point x="445" y="364" type="curve" smooth="yes"/>
      <point x="427" y="309"/>
      <point x="411" y="269"/>
      <point x="349" y="249" type="curve"/>
      <point x="396" y="238"/>
      <point x="464" y="207"/>
      <point x="464" y="124" type="curve" smooth="yes"/>
      <point x="464" y="16"/>
      <point x="345" y="0"/>
      <point x="288" y="0" type="curve" smooth="yes"/>
      <point x="22" y="0" type="line"/>
      <point x="22" y="47" type="line"/>
      <point x="69" y="51" type="line" smooth="yes"/>
      <point x="77" y="51"/>
      <point x="82" y="54"/>
      <point x="82" y="63" type="curve" smooth="yes"/>
      <point x="82" y="426" type="line" smooth="yes"/>
      <point x="82" y="432"/>
      <point x="78" y="437"/>
      <point x="69" y="438" type="curve" smooth="yes"/>
      <point x="69" y="438"/>
      <point x="36" y="440"/>
      <point x="22" y="441" type="curve"/>
      <point x="22" y="488" type="line"/>
      <point x="266" y="488" type="line"/>
      <point x="266" y="441" type="line"/>
      <point x="217" y="438" type="line" smooth="yes"/>
      <point x="208" y="437"/>
      <point x="205" y="432"/>
      <point x="205" y="426" type="curve" smooth="yes"/>
      <point x="205" y="279" type="line"/>
      <point x="230" y="279" type="line" smooth="yes"/>
      <point x="290" y="279"/>
      <point x="303" y="331"/>
      <point x="324" y="386" type="curve" smooth="yes"/>
      <point x="346" y="442"/>
      <point x="375" y="500"/>
      <point x="480" y="500" type="curve" smooth="yes"/>
      <point x="506" y="500"/>
      <point x="537" y="490"/>
      <point x="563" y="487" type="curve"/>
    </contour>
    <contour>
      <point x="336" y="137" type="curve" smooth="yes"/>
      <point x="336" y="213"/>
      <point x="275" y="226"/>
      <point x="226" y="226" type="curve" smooth="yes"/>
      <point x="222" y="226"/>
      <point x="215" y="225"/>
      <point x="205" y="225" type="curve"/>
      <point x="205" y="54" type="line"/>
      <point x="216" y="53"/>
      <point x="225" y="54"/>
      <point x="225" y="54" type="curve" smooth="yes"/>
      <point x="299" y="56"/>
      <point x="336" y="82"/>
    </contour>
  </outline>
</glyph>
<glyph name="uni0283" format="1">
  <advance width="392"/>
  <unicode hex="0283"/>
  <outline>
    <contour>
      <point x="397" y="656" type="curve" smooth="yes"/>
      <point x="397" y="601"/>
      <point x="335" y="579"/>
      <point x="335" y="579" type="curve"/>
      <point x="249" y="671" type="line"/>
      <point x="225" y="660"/>
      <point x="213" y="641"/>
      <point x="225" y="547" type="curve" smooth="yes"/>
      <point x="223" y="537"/>
      <point x="299" y="-28"/>
      <point x="299" y="-28" type="curve" smooth="yes"/>
      <point x="314" y="-143"/>
      <point x="237" y="-231"/>
      <point x="107" y="-231" type="curve" smooth="yes"/>
      <point x="45" y="-231"/>
      <point x="-5" y="-180"/>
      <point x="-5" y="-146" type="curve" smooth="yes"/>
      <point x="-5" y="-91"/>
      <point x="57" y="-70"/>
      <point x="57" y="-70" type="curve"/>
      <point x="144" y="-162" type="line"/>
      <point x="167" y="-151"/>
      <point x="180" y="-132"/>
      <point x="167" y="-38" type="curve" smooth="yes"/>
      <point x="93" y="537" type="line" smooth="yes"/>
      <point x="78" y="653"/>
      <point x="155" y="740"/>
      <point x="285" y="740" type="curve" smooth="yes"/>
      <point x="347" y="740"/>
      <point x="397" y="690"/>
    </contour>
  </outline>
</glyph>
<glyph name="uni0286" format="1">
  <advance width="392"/>
  <unicode hex="0286"/>
  <outline>
    <contour>
      <point x="397" y="656" type="curve" smooth="yes"/>
      <point x="397" y="601"/>
      <point x="335" y="579"/>
      <point x="335" y="579" type="curve"/>
      <point x="249" y="671" type="line"/>
      <point x="225" y="660"/>
      <point x="213" y="641"/>
      <point x="225" y="547" type="curve" smooth="yes"/>
      <point x="296" y="-29" type="line" smooth="yes"/>
      <point x="299" y="-53"/>
      <point x="298" y="-77"/>
      <point x="293" y="-99" type="curve"/>
      <point x="327" y="-134"/>
      <point x="348" y="-176"/>
      <point x="364" y="-210" type="curve"/>
      <point x="309" y="-224" type="line"/>
      <point x="297" y="-203"/>
      <point x="283" y="-182"/>
      <point x="267" y="-163" type="curve"/>
      <point x="239" y="-204"/>
      <point x="191" y="-231"/>
      <point x="129" y="-231" type="curve" smooth="yes"/>
      <point x="66" y="-231"/>
      <point x="-6" y="-216"/>
      <point x="-6" y="-124" type="curve" smooth="yes"/>
      <point x="-6" y="-68"/>
      <point x="62" y="-23"/>
      <point x="115" y="-23" type="curve" smooth="yes"/>
      <point x="131" y="-23"/>
      <point x="150" y="-29"/>
      <point x="164" y="-31" type="curve"/>
      <point x="93" y="537" type="line" smooth="yes"/>
      <point x="79" y="653"/>
      <point x="155" y="740"/>
      <point x="285" y="740" type="curve" smooth="yes"/>
      <point x="347" y="740"/>
      <point x="397" y="690"/>
    </contour>
    <contour>
      <point x="169" y="-89" type="curve"/>
      <point x="154" y="-85"/>
      <point x="133" y="-82"/>
      <point x="116" y="-82" type="curve" smooth="yes"/>
      <point x="98" y="-82"/>
      <point x="67" y="-98"/>
      <point x="67" y="-127" type="curve" smooth="yes"/>
      <point x="67" y="-140"/>
      <point x="68" y="-178"/>
      <point x="122" y="-178" type="curve" smooth="yes"/>
      <point x="157" y="-178"/>
      <point x="171" y="-149"/>
    </contour>
  </outline>
</glyph>
<glyph name="uni028C" format="1">
  <advance width="565"/>
  <unicode hex="028C"/>
  <outline>
    <contour>
      <point x="557" y="0" type="line"/>
      <point x="293" y="0" type="line"/>
      <point x="293" y="47" type="line"/>
      <point x="340" y="50" type="line" smooth="yes"/>
      <point x="351" y="51"/>
      <point x="357" y="61"/>
      <point x="354" y="72" type="curve" smooth="yes"/>
      <point x="256" y="349" type="line"/>
      <point x="146" y="72" type="line" smooth="yes"/>
      <point x="142" y="62"/>
      <point x="151" y="51"/>
      <point x="162" y="50" type="curve" smooth="yes"/>
      <point x="204" y="47" type="line"/>
      <point x="204" y="0" type="line"/>
      <point x="10" y="0" type="line"/>
      <point x="10" y="47" type="line"/>
      <point x="66" y="54" type="line"/>
      <point x="239" y="488" type="line"/>
      <point x="337" y="488" type="line"/>
      <point x="498" y="53" type="line"/>
      <point x="557" y="47" type="line"/>
    </contour>
  </outline>
</glyph>
<glyph name="uni028F" format="1">
  <advance width="544"/>
  <unicode hex="028F"/>
  <outline>
    <contour>
      <point x="535" y="441" type="line"/>
      <point x="486" y="435" type="line"/>
      <point x="341" y="210" type="line"/>
      <point x="341" y="61" type="line" smooth="yes"/>
      <point x="341" y="56"/>
      <point x="345" y="51"/>
      <point x="353" y="51" type="curve" smooth="yes"/>
      <point x="407" y="47" type="line"/>
      <point x="407" y="0" type="line"/>
      <point x="148" y="0" type="line"/>
      <point x="148" y="47" type="line"/>
      <point x="174" y="49"/>
      <point x="215" y="46"/>
      <point x="215" y="61" type="curve" smooth="yes"/>
      <point x="215" y="190" type="line"/>
      <point x="63" y="435" type="line"/>
      <point x="10" y="441" type="line"/>
      <point x="10" y="488" type="line"/>
      <point x="248" y="488" type="line"/>
      <point x="248" y="441" type="line"/>
      <point x="200" y="437" type="line" smooth="yes"/>
      <point x="197" y="437"/>
      <point x="198" y="433"/>
      <point x="201" y="428" type="curve" smooth="yes"/>
      <point x="297" y="268" type="line"/>
      <point x="400" y="429" type="line" smooth="yes"/>
      <point x="403" y="434"/>
      <point x="405" y="438"/>
      <point x="401" y="438" type="curve" smooth="yes"/>
      <point x="347" y="441" type="line"/>
      <point x="347" y="488" type="line"/>
      <point x="535" y="488" type="line"/>
    </contour>
  </outline>
</glyph>
<glyph name="uni0296" format="1">
  <advance width="479"/>
  <unicode hex="0296"/>
  <outline>
    <contour>
      <point x="443" y="178" type="curve" smooth="yes"/>
      <point x="443" y="62"/>
      <point x="346" y="-12"/>
      <point x="216" y="-12" type="curve" smooth="yes"/>
      <point x="135" y="-12"/>
      <point x="37" y="14"/>
      <point x="37" y="101" type="curve" smooth="yes"/>
      <point x="37" y="143"/>
      <point x="70" y="153"/>
      <point x="92" y="153" type="curve" smooth="yes"/>
      <point x="115" y="153"/>
      <point x="136" y="145"/>
      <point x="136" y="145" type="curve"/>
      <point x="171" y="60" type="line"/>
      <point x="187" y="49"/>
      <point x="197" y="48"/>
      <point x="217" y="48" type="curve" smooth="yes"/>
      <point x="280" y="49"/>
      <point x="307" y="120"/>
      <point x="307" y="176" type="curve" smooth="yes"/>
      <point x="307" y="320"/>
      <point x="134" y="372"/>
      <point x="134" y="372" type="curve"/>
      <point x="134" y="592" type="line" smooth="yes"/>
      <point x="134" y="605"/>
      <point x="125" y="613"/>
      <point x="112" y="614" type="curve" smooth="yes"/>
      <point x="48" y="619" type="line"/>
      <point x="48" y="671" type="line"/>
      <point x="354" y="671" type="line"/>
      <point x="354" y="619" type="line"/>
      <point x="290" y="614" type="line" smooth="yes"/>
      <point x="277" y="613"/>
      <point x="268" y="605"/>
      <point x="268" y="592" type="curve" smooth="yes"/>
      <point x="268" y="387" type="line"/>
      <point x="268" y="387"/>
      <point x="443" y="351"/>
    </contour>
  </outline>
</glyph>
<glyph name="uni029C" format="1">
  <advance width="622"/>
  <unicode hex="029C"/>
  <outline>
    <contour>
      <point x="595" y="0" type="line"/>
      <point x="355" y="0" type="line"/>
      <point x="355" y="47" type="line"/>
      <point x="401" y="51" type="line" smooth="yes"/>
      <point x="409" y="52"/>
      <point x="413" y="56"/>
      <point x="413" y="61" type="curve" smooth="yes"/>
      <point x="413" y="227" type="line"/>
      <point x="209" y="227" type="line"/>
      <point x="209" y="61" type="line" smooth="yes"/>
      <point x="209" y="56"/>
      <point x="213" y="52"/>
      <point x="221" y="51" type="curve" smooth="yes"/>
      <point x="267" y="47" type="line"/>
      <point x="267" y="0" type="line"/>
      <point x="27" y="0" type="line"/>
      <point x="27" y="47" type="line"/>
      <point x="73" y="51" type="line" smooth="yes"/>
      <point x="81" y="52"/>
      <point x="85" y="56"/>
      <point x="85" y="61" type="curve" smooth="yes"/>
      <point x="85" y="427" type="line" smooth="yes"/>
      <point x="85" y="432"/>
      <point x="81" y="436"/>
      <point x="73" y="437" type="curve" smooth="yes"/>
      <point x="27" y="441" type="line"/>
      <point x="27" y="488" type="line"/>
      <point x="267" y="488" type="line"/>
      <point x="267" y="441" type="line"/>
      <point x="221" y="437" type="line" smooth="yes"/>
      <point x="213" y="436"/>
      <point x="209" y="432"/>
      <point x="209" y="427" type="curve" smooth="yes"/>
      <point x="209" y="284" type="line"/>
      <point x="413" y="284" type="line"/>
      <point x="413" y="427" type="line" smooth="yes"/>
      <point x="413" y="432"/>
      <point x="409" y="436"/>
      <point x="401" y="437" type="curve" smooth="yes"/>
      <point x="355" y="441" type="line"/>
      <point x="355" y="488" type="line"/>
      <point x="595" y="488" type="line"/>
      <point x="595" y="441" type="line"/>
      <point x="549" y="437" type="line" smooth="yes"/>
      <point x="541" y="436"/>
      <point x="537" y="432"/>
      <point x="537" y="427" type="curve" smooth="yes"/>
      <point x="537" y="61" type="line" smooth="yes"/>
      <point x="537" y="56"/>
      <point x="541" y="52"/>
      <point x="549" y="51" type="curve" smooth="yes"/>
      <point x="595" y="47" type="line"/>
    </contour>
  </outline>
</glyph>
<glyph name="uni02A0" format="1">
  <advance width="603"/>
  <unicode hex="02A0"/>
  <outline>
    <contour>
      <point x="707" y="667" type="curve" smooth="yes"/>
      <point x="707" y="636"/>
      <point x="677" y="611"/>
      <point x="645" y="601" type="curve"/>
      <point x="545" y="694" type="line"/>
      <point x="523" y="658"/>
      <point x="513" y="567"/>
      <point x="513" y="538" type="curve" smooth="yes"/>
      <point x="513" y="-146" type="line" smooth="yes"/>
      <point x="513" y="-159"/>
      <point x="523" y="-169"/>
      <point x="535" y="-169" type="curve" smooth="yes"/>
      <point x="576" y="-172" type="line"/>
      <point x="576" y="-219" type="line"/>
      <point x="302" y="-219" type="line"/>
      <point x="302" y="-172" type="line"/>
      <point x="357" y="-169" type="line" smooth="yes"/>
      <point x="370" y="-169"/>
      <point x="379" y="-159"/>
      <point x="379" y="-146" type="curve" smooth="yes"/>
      <point x="379" y="39" type="line"/>
      <point x="379" y="39"/>
      <point x="309" y="-12"/>
      <point x="228" y="-12" type="curve" smooth="yes"/>
      <point x="108" y="-12"/>
      <point x="32" y="100"/>
      <point x="32" y="229" type="curve" smooth="yes"/>
      <point x="32" y="418"/>
      <point x="166" y="500"/>
      <point x="355" y="500" type="curve" smooth="yes"/>
      <point x="362" y="500"/>
      <point x="362" y="499"/>
      <point x="375" y="498" type="curve"/>
      <point x="381" y="538" type="line" smooth="yes"/>
      <point x="399" y="654"/>
      <point x="499" y="743"/>
      <point x="611" y="743" type="curve" smooth="yes"/>
      <point x="651" y="743"/>
      <point x="707" y="724"/>
    </contour>
    <contour>
      <point x="379" y="79" type="curve"/>
      <point x="379" y="437" type="line"/>
      <point x="379" y="437"/>
      <point x="362" y="441"/>
      <point x="339" y="441" type="curve" smooth="yes"/>
      <point x="220" y="441"/>
      <point x="178" y="359"/>
      <point x="178" y="252" type="curve" smooth="yes"/>
      <point x="178" y="143"/>
      <point x="229" y="75"/>
      <point x="315" y="75" type="curve" smooth="yes"/>
      <point x="344" y="75"/>
      <point x="379" y="79"/>
    </contour>
  </outline>
</glyph>
<glyph name="uni02A2" format="1">
  <advance width="479"/>
  <unicode hex="02A2"/>
  <outline>
    <contour>
      <point x="449" y="191" type="line"/>
      <point x="346" y="191" type="line"/>
      <point x="346" y="79" type="line" smooth="yes"/>
      <point x="346" y="66"/>
      <point x="355" y="58"/>
      <point x="368" y="57" type="curve" smooth="yes"/>
      <point x="432" y="52" type="line"/>
      <point x="432" y="0" type="line"/>
      <point x="126" y="0" type="line"/>
      <point x="126" y="52" type="line"/>
      <point x="190" y="57" type="line" smooth="yes"/>
      <point x="203" y="58"/>
      <point x="212" y="66"/>
      <point x="212" y="79" type="curve" smooth="yes"/>
      <point x="212" y="191" type="line"/>
      <point x="108" y="191" type="line"/>
      <point x="108" y="254" type="line"/>
      <point x="212" y="254" type="line"/>
      <point x="212" y="288" type="line"/>
      <point x="212" y="288"/>
      <point x="37" y="325"/>
      <point x="37" y="497" type="curve" smooth="yes"/>
      <point x="37" y="613"/>
      <point x="134" y="687"/>
      <point x="264" y="687" type="curve" smooth="yes"/>
      <point x="345" y="687"/>
      <point x="443" y="662"/>
      <point x="443" y="575" type="curve" smooth="yes"/>
      <point x="443" y="532"/>
      <point x="410" y="522"/>
      <point x="388" y="522" type="curve" smooth="yes"/>
      <point x="365" y="522"/>
      <point x="344" y="531"/>
      <point x="344" y="531" type="curve"/>
      <point x="309" y="616" type="line"/>
      <point x="293" y="626"/>
      <point x="283" y="627"/>
      <point x="263" y="627" type="curve" smooth="yes"/>
      <point x="200" y="627"/>
      <point x="173" y="555"/>
      <point x="173" y="499" type="curve" smooth="yes"/>
      <point x="173" y="356"/>
      <point x="346" y="303"/>
      <point x="346" y="303" type="curve"/>
      <point x="346" y="254" type="line"/>
      <point x="449" y="254" type="line"/>
    </contour>
  </outline>
</glyph>
<glyph name="uni02A9" format="1">
  <advance width="947"/>
  <unicode hex="02A9"/>
  <outline>
    <contour>
      <point x="867" y="-11" type="line" smooth="yes"/>
      <point x="867" y="-133"/>
      <point x="782" y="-231"/>
      <point x="624" y="-231" type="curve" smooth="yes"/>
      <point x="579" y="-231"/>
      <point x="516" y="-204"/>
      <point x="516" y="-153" type="curve" smooth="yes"/>
      <point x="516" y="-121"/>
      <point x="540" y="-81"/>
      <point x="579" y="-81" type="curve"/>
      <point x="683" y="-181" type="line"/>
      <point x="705" y="-181"/>
      <point x="734" y="-160"/>
      <point x="734" y="-42" type="curve" smooth="yes"/>
      <point x="734" y="308" type="line" smooth="yes"/>
      <point x="734" y="359"/>
      <point x="702" y="408"/>
      <point x="642" y="408" type="curve" smooth="yes"/>
      <point x="587" y="408"/>
      <point x="546" y="395"/>
      <point x="546" y="395" type="curve"/>
      <point x="546" y="73" type="line" smooth="yes"/>
      <point x="546" y="61"/>
      <point x="557" y="51"/>
      <point x="569" y="50" type="curve" smooth="yes"/>
      <point x="599" y="47" type="line"/>
      <point x="599" y="0" type="line"/>
      <point x="354" y="0" type="line"/>
      <point x="354" y="47" type="line"/>
      <point x="390" y="50" type="line" smooth="yes"/>
      <point x="402" y="51"/>
      <point x="412" y="61"/>
      <point x="412" y="73" type="curve" smooth="yes"/>
      <point x="412" y="412" type="line"/>
      <point x="228" y="412" type="line"/>
      <point x="228" y="73" type="line" smooth="yes"/>
      <point x="228" y="61"/>
      <point x="237" y="50"/>
      <point x="250" y="50" type="curve" smooth="yes"/>
      <point x="311" y="47" type="line"/>
      <point x="311" y="0" type="line"/>
      <point x="21" y="0" type="line"/>
      <point x="21" y="47" type="line"/>
      <point x="72" y="50" type="line" smooth="yes"/>
      <point x="84" y="51"/>
      <point x="94" y="61"/>
      <point x="94" y="73" type="curve" smooth="yes"/>
      <point x="94" y="412" type="line"/>
      <point x="29" y="412" type="line"/>
      <point x="29" y="452" type="line"/>
      <point x="93" y="485" type="line"/>
      <point x="93" y="537"/>
      <point x="108" y="584"/>
      <point x="136" y="628" type="curve" smooth="yes"/>
      <point x="176" y="693"/>
      <point x="242" y="740"/>
      <point x="324" y="740" type="curve" smooth="yes"/>
      <point x="364" y="740"/>
      <point x="420" y="717"/>
      <point x="420" y="660" type="curve" smooth="yes"/>
      <point x="420" y="629"/>
      <point x="390" y="605"/>
      <point x="358" y="594" type="curve"/>
      <point x="259" y="687" type="line"/>
      <point x="239" y="657"/>
      <point x="227" y="625"/>
      <point x="227" y="534" type="curve" smooth="yes"/>
      <point x="227" y="476" type="line"/>
      <point x="423" y="476" type="line"/>
      <point x="494" y="500" type="line"/>
      <point x="546" y="500" type="line"/>
      <point x="546" y="439" type="line"/>
      <point x="546" y="439"/>
      <point x="635" y="500"/>
      <point x="721" y="500" type="curve" smooth="yes"/>
      <point x="836" y="500"/>
      <point x="867" y="413"/>
      <point x="867" y="326" type="curve" smooth="yes"/>
    </contour>
  </outline>
</glyph>
<glyph name="uni02B3" format="1">
  <advance width="280"/>
  <unicode hex="02B3"/>
  <outline>
    <contour>
      <point x="274" y="581" type="line"/>
      <point x="230" y="581" type="line"/>
      <point x="224" y="589"/>
      <point x="213" y="605"/>
      <point x="188" y="605" type="curve" smooth="yes"/>
      <point x="163" y="605"/>
      <point x="146" y="594"/>
      <point x="146" y="594" type="curve"/>
      <point x="146" y="426" type="line" smooth="yes"/>
      <point x="146" y="419"/>
      <point x="152" y="412"/>
      <point x="160" y="412" type="curve" smooth="yes"/>
      <point x="201" y="410" type="line"/>
      <point x="201" y="382" type="line"/>
      <point x="16" y="382" type="line"/>
      <point x="16" y="410" type="line"/>
      <point x="44" y="412" type="line" smooth="yes"/>
      <point x="52" y="413"/>
      <point x="59" y="419"/>
      <point x="59" y="426" type="curve" smooth="yes"/>
      <point x="59" y="628" type="line"/>
      <point x="11" y="628" type="line"/>
      <point x="11" y="652" type="line"/>
      <point x="112" y="682" type="line"/>
      <point x="146" y="682" type="line"/>
      <point x="146" y="619" type="line"/>
      <point x="162" y="638"/>
      <point x="203" y="684"/>
      <point x="233" y="684" type="curve" smooth="yes"/>
      <point x="248" y="684"/>
      <point x="266" y="677"/>
      <point x="274" y="672" type="curve"/>
    </contour>
  </outline>
</glyph>
<glyph name="uni02B6" format="1">
  <advance width="365"/>
  <unicode hex="02B6"/>
  <outline>
    <contour>
      <point x="366" y="647" type="line"/>
      <point x="309" y="652"/>
      <point x="300" y="630"/>
      <point x="289" y="602" type="curve" smooth="yes"/>
      <point x="277" y="569"/>
      <point x="267" y="545"/>
      <point x="227" y="533" type="curve"/>
      <point x="257" y="526"/>
      <point x="301" y="508"/>
      <point x="301" y="458" type="curve" smooth="yes"/>
      <point x="301" y="394"/>
      <point x="225" y="383"/>
      <point x="187" y="383" type="curve" smooth="yes"/>
      <point x="14" y="383" type="line"/>
      <point x="14" y="412" type="line"/>
      <point x="45" y="414" type="line" smooth="yes"/>
      <point x="50" y="414"/>
      <point x="53" y="416"/>
      <point x="53" y="421" type="curve" smooth="yes"/>
      <point x="53" y="639" type="line" smooth="yes"/>
      <point x="53" y="643"/>
      <point x="51" y="646"/>
      <point x="45" y="646" type="curve" smooth="yes"/>
      <point x="45" y="646"/>
      <point x="23" y="648"/>
      <point x="14" y="648" type="curve"/>
      <point x="14" y="676" type="line"/>
      <point x="173" y="676" type="line"/>
      <point x="173" y="648" type="line"/>
      <point x="141" y="646" type="line" smooth="yes"/>
      <point x="135" y="646"/>
      <point x="133" y="643"/>
      <point x="133" y="639" type="curve" smooth="yes"/>
      <point x="133" y="551" type="line"/>
      <point x="149" y="551" type="line" smooth="yes"/>
      <point x="188" y="551"/>
      <point x="197" y="582"/>
      <point x="211" y="615" type="curve" smooth="yes"/>
      <point x="225" y="648"/>
      <point x="244" y="683"/>
      <point x="312" y="683" type="curve" smooth="yes"/>
      <point x="329" y="683"/>
      <point x="349" y="677"/>
      <point x="366" y="675" type="curve"/>
    </contour>
    <contour>
      <point x="218" y="466" type="curve" smooth="yes"/>
      <point x="218" y="511"/>
      <point x="179" y="519"/>
      <point x="147" y="519" type="curve" smooth="yes"/>
      <point x="133" y="519" type="line"/>
      <point x="133" y="416" type="line"/>
      <point x="140" y="415"/>
      <point x="146" y="416"/>
      <point x="146" y="416" type="curve" smooth="yes"/>
      <point x="194" y="417"/>
      <point x="218" y="433"/>
    </contour>
  </outline>
</glyph>
<glyph name="uni02B8" format="1">
  <advance width="367"/>
  <unicode hex="02B8"/>
  <outline>
    <contour>
      <point x="362" y="648" type="line"/>
      <point x="328" y="644" type="line"/>
      <point x="215" y="389" type="line" smooth="yes"/>
      <point x="199" y="353"/>
      <point x="177" y="302"/>
      <point x="142" y="271" type="curve" smooth="yes"/>
      <point x="124" y="255"/>
      <point x="102" y="245"/>
      <point x="77" y="245" type="curve" smooth="yes"/>
      <point x="52" y="245"/>
      <point x="19" y="264"/>
      <point x="20" y="293" type="curve" smooth="yes"/>
      <point x="20" y="315"/>
      <point x="38" y="330"/>
      <point x="57" y="337" type="curve"/>
      <point x="112" y="298" type="line"/>
      <point x="135" y="319"/>
      <point x="155" y="357"/>
      <point x="161" y="378" type="curve"/>
      <point x="45" y="645" type="line"/>
      <point x="6" y="648" type="line"/>
      <point x="6" y="676" type="line"/>
      <point x="177" y="676" type="line"/>
      <point x="177" y="648" type="line"/>
      <point x="147" y="646" type="line" smooth="yes"/>
      <point x="139" y="646"/>
      <point x="136" y="639"/>
      <point x="138" y="633" type="curve" smooth="yes"/>
      <point x="205" y="479" type="line"/>
      <point x="273" y="633" type="line" smooth="yes"/>
      <point x="275" y="639"/>
      <point x="271" y="646"/>
      <point x="264" y="646" type="curve" smooth="yes"/>
      <point x="235" y="648" type="line"/>
      <point x="235" y="676" type="line"/>
      <point x="362" y="676" type="line"/>
    </contour>
  </outline>
</glyph>
<glyph name="uni02D0" format="1">
  <advance width="283"/>
  <unicode hex="02D0"/>
  <outline>
    <contour>
      <point x="246" y="496" type="line"/>
      <point x="187" y="307" type="line"/>
      <point x="96" y="307" type="line"/>
      <point x="37" y="496" type="line"/>
    </contour>
    <contour>
      <point x="246" y="0" type="line"/>
      <point x="37" y="0" type="line"/>
      <point x="96" y="188" type="line"/>
      <point x="187" y="188" type="line"/>
    </contour>
  </outline>
</glyph>
<glyph name="uni02D2" format="1">
  <advance width="272"/>
  <unicode hex="02D2"/>
  <outline>
    <contour>
      <point x="229" y="180" type="curve" smooth="yes"/>
      <point x="229" y="62"/>
      <point x="158" y="0"/>
      <point x="44" y="0" type="curve"/>
      <point x="44" y="67" type="line"/>
      <point x="122" y="67"/>
      <point x="159" y="100"/>
      <point x="159" y="180" type="curve" smooth="yes"/>
      <point x="159" y="261"/>
      <point x="122" y="294"/>
      <point x="44" y="294" type="curve"/>
      <point x="44" y="361" type="line"/>
      <point x="161" y="361"/>
      <point x="229" y="297"/>
    </contour>
  </outline>
</glyph>
<glyph name="uni02D3" format="1">
  <advance width="272"/>
  <unicode hex="02D3"/>
  <outline>
    <contour>
      <point x="229" y="0" type="line"/>
      <point x="115" y="0"/>
      <point x="44" y="62"/>
      <point x="44" y="180" type="curve" smooth="yes"/>
      <point x="44" y="297"/>
      <point x="113" y="361"/>
      <point x="229" y="361" type="curve"/>
      <point x="229" y="294" type="line"/>
      <point x="151" y="294"/>
      <point x="115" y="261"/>
      <point x="115" y="180" type="curve" smooth="yes"/>
      <point x="115" y="100"/>
      <point x="151" y="67"/>
      <point x="229" y="67" type="curve"/>
    </contour>
  </outline>
</glyph>
<glyph name="tilde" format="1">
  <advance width="351"/>
  <unicode hex="02DC"/>
  <outline>
    <contour>
      <point x="351" y="709" type="line"/>
      <point x="334" y="640"/>
      <point x="298" y="585"/>
      <point x="230" y="585" type="curve" smooth="yes"/>
      <point x="178" y="585"/>
      <point x="157" y="633"/>
      <point x="98" y="633" type="curve" smooth="yes"/>
      <point x="76" y="633"/>
      <point x="57" y="612"/>
      <point x="54" y="585" type="curve"/>
      <point x="0" y="585" type="line"/>
      <point x="17" y="654"/>
      <point x="53" y="709"/>
      <point x="120" y="709" type="curve" smooth="yes"/>
      <point x="173" y="709"/>
      <point x="194" y="662"/>
      <point x="253" y="662" type="curve" smooth="yes"/>
      <point x="274" y="662"/>
      <point x="294" y="683"/>
      <point x="297" y="709" type="curve"/>
    </contour>
  </outline>
</glyph>
<glyph name="uni02DE" format="1">
  <advance width="184"/>
  <unicode hex="02DE"/>
  <outline>
    <contour>
      <point x="184" y="360" type="line"/>
      <point x="175" y="314"/>
      <point x="158" y="245"/>
      <point x="82" y="245" type="curve" smooth="yes"/>
      <point x="34" y="245"/>
      <point x="0" y="292"/>
      <point x="0" y="336" type="curve" smooth="yes"/>
      <point x="0" y="418" type="line"/>
      <point x="-98" y="352" type="line"/>
      <point x="-119" y="394" type="line"/>
      <point x="9" y="478" type="line"/>
      <point x="48" y="458" type="line"/>
      <point x="48" y="363" type="line" smooth="yes"/>
      <point x="48" y="324"/>
      <point x="54" y="291"/>
      <point x="86" y="291" type="curve" smooth="yes"/>
      <point x="130" y="291"/>
      <point x="137" y="341"/>
      <point x="146" y="381" type="curve"/>
    </contour>
  </outline>
</glyph>
<glyph name="uni02E0" format="1">
  <advance width="381"/>
  <unicode hex="02E0"/>
  <outline>
    <contour>
      <point x="376" y="647" type="line"/>
      <point x="341" y="644" type="line"/>
      <point x="232" y="434" type="line"/>
      <point x="271" y="356" type="line" smooth="yes"/>
      <point x="277" y="345"/>
      <point x="280" y="332"/>
      <point x="280" y="319" type="curve" smooth="yes"/>
      <point x="280" y="284"/>
      <point x="256" y="244"/>
      <point x="210" y="244" type="curve" smooth="yes"/>
      <point x="149" y="244"/>
      <point x="132" y="269"/>
      <point x="132" y="309" type="curve" smooth="yes"/>
      <point x="132" y="319"/>
      <point x="137" y="336"/>
      <point x="144" y="349" type="curve" smooth="yes"/>
      <point x="168" y="396" type="line"/>
      <point x="43" y="644" type="line"/>
      <point x="6" y="647" type="line"/>
      <point x="6" y="676" type="line"/>
      <point x="168" y="676" type="line"/>
      <point x="168" y="647" type="line"/>
      <point x="136" y="645" type="line" smooth="yes"/>
      <point x="132" y="644"/>
      <point x="129" y="640"/>
      <point x="131" y="635" type="curve" smooth="yes"/>
      <point x="211" y="478" type="line"/>
      <point x="292" y="635" type="line" smooth="yes"/>
      <point x="294" y="640"/>
      <point x="290" y="644"/>
      <point x="285" y="645" type="curve" smooth="yes"/>
      <point x="257" y="647" type="line"/>
      <point x="257" y="676" type="line"/>
      <point x="376" y="676" type="line"/>
    </contour>
    <contour>
      <point x="212" y="301" type="curve" smooth="yes"/>
      <point x="212" y="306"/>
      <point x="210" y="312"/>
      <point x="207" y="319" type="curve" smooth="yes"/>
      <point x="206" y="321"/>
      <point x="190" y="352"/>
      <point x="190" y="352" type="curve"/>
      <point x="190" y="352"/>
      <point x="175" y="321"/>
      <point x="174" y="319" type="curve" smooth="yes"/>
      <point x="171" y="314"/>
      <point x="170" y="309"/>
      <point x="170" y="305" type="curve" smooth="yes"/>
      <point x="170" y="290"/>
      <point x="182" y="282"/>
      <point x="190" y="282" type="curve" smooth="yes"/>
      <point x="203" y="282"/>
      <point x="212" y="288"/>
    </contour>
  </outline>
</glyph>
<glyph name="uni02E9" format="1">
  <advance width="418"/>
  <unicode hex="02E9"/>
  <outline>
    <contour>
      <point x="77" y="0" type="line" smooth="yes"/>
      <point x="56" y="0"/>
      <point x="39" y="17"/>
      <point x="39" y="38" type="curve" smooth="yes"/>
      <point x="39" y="59"/>
      <point x="56" y="75"/>
      <point x="77" y="75" type="curve" smooth="yes"/>
      <point x="310" y="75" type="line" smooth="yes"/>
      <point x="331" y="75"/>
      <point x="348" y="59"/>
      <point x="348" y="38" type="curve" smooth="yes"/>
      <point x="348" y="17"/>
      <point x="331" y="0"/>
      <point x="310" y="0" type="curve" smooth="yes"/>
    </contour>
    <contour>
      <point x="348" y="38" type="line" smooth="yes"/>
      <point x="348" y="17"/>
      <point x="332" y="0"/>
      <point x="311" y="0" type="curve" smooth="yes"/>
      <point x="290" y="0"/>
      <point x="273" y="17"/>
      <point x="273" y="38" type="curve" smooth="yes"/>
      <point x="273" y="685" type="line" smooth="yes"/>
      <point x="273" y="706"/>
      <point x="290" y="723"/>
      <point x="311" y="723" type="curve" smooth="yes"/>
      <point x="332" y="723"/>
      <point x="348" y="706"/>
      <point x="348" y="685" type="curve" smooth="yes"/>
    </contour>
  </outline>
</glyph>
<glyph name="uni02F7" format="1">
  <advance width="375"/>
  <unicode hex="02F7"/>
  <outline>
    <contour>
      <point x="375" y="4" type="line"/>
      <point x="358" y="-65"/>
      <point x="322" y="-120"/>
      <point x="254" y="-120" type="curve" smooth="yes"/>
      <point x="202" y="-120"/>
      <point x="182" y="-72"/>
      <point x="123" y="-72" type="curve" smooth="yes"/>
      <point x="101" y="-72"/>
      <point x="82" y="-93"/>
      <point x="79" y="-120" type="curve"/>
      <point x="24" y="-120" type="line"/>
      <point x="41" y="-51"/>
      <point x="78" y="4"/>
      <point x="145" y="4" type="curve" smooth="yes"/>
      <point x="198" y="4"/>
      <point x="218" y="-43"/>
      <point x="277" y="-43" type="curve" smooth="yes"/>
      <point x="298" y="-43"/>
      <point x="318" y="-22"/>
      <point x="321" y="4" type="curve"/>
    </contour>
  </outline>
</glyph>
<glyph name="gravecomb" format="1">
  <advance width="0"/>
  <unicode hex="0300"/>
  <outline>
    <contour>
      <point x="-194" y="551" type="line"/>
      <point x="-264" y="551" type="line"/>
      <point x="-426" y="639" type="line" smooth="yes"/>
      <point x="-440" y="647"/>
      <point x="-451" y="668"/>
      <point x="-451" y="681" type="curve" smooth="yes"/>
      <point x="-451" y="705"/>
      <point x="-437" y="734"/>
      <point x="-394" y="734" type="curve" smooth="yes"/>
      <point x="-367" y="734"/>
      <point x="-354" y="727"/>
      <point x="-331" y="702" type="curve" smooth="yes"/>
    </contour>
  </outline>
</glyph>
<glyph name="circumflexcomb" format="1">
  <advance width="0"/>
  <unicode hex="0302"/>
  <outline>
    <contour>
      <point x="-122" y="551" type="line"/>
      <point x="-205" y="551" type="line"/>
      <point x="-292" y="646" type="line"/>
      <point x="-379" y="551" type="line"/>
      <point x="-462" y="551" type="line"/>
      <point x="-351" y="722" type="line"/>
      <point x="-233" y="722" type="line"/>
    </contour>
  </outline>
</glyph>
<glyph name="brevecomb" format="1">
  <advance width="0"/>
  <unicode hex="0306"/>
  <outline>
    <contour>
      <point x="-135" y="714" type="line"/>
      <point x="-135" y="624"/>
      <point x="-187" y="551"/>
      <point x="-292" y="551" type="curve" smooth="yes"/>
      <point x="-397" y="551"/>
      <point x="-448" y="624"/>
      <point x="-448" y="714" type="curve"/>
      <point x="-396" y="714" type="line"/>
      <point x="-383" y="654"/>
      <point x="-336" y="632"/>
      <point x="-292" y="632" type="curve" smooth="yes"/>
      <point x="-247" y="632"/>
      <point x="-201" y="654"/>
      <point x="-188" y="714" type="curve"/>
    </contour>
  </outline>
</glyph>
<glyph name="uni030E" format="1">
  <advance width="0"/>
  <unicode hex="030E"/>
  <outline>
    <contour>
      <point x="-193" y="551" type="line"/>
      <point x="-254" y="551" type="line"/>
      <point x="-254" y="735" type="line"/>
      <point x="-193" y="735" type="line"/>
    </contour>
    <contour>
      <point x="-329" y="551" type="line"/>
      <point x="-391" y="551" type="line"/>
      <point x="-391" y="735" type="line"/>
      <point x="-329" y="735" type="line"/>
    </contour>
  </outline>
</glyph>
<glyph name="uni0310" format="1">
  <advance width="0"/>
  <unicode hex="0310"/>
  <outline>
    <contour>
      <point x="-135" y="714" type="line"/>
      <point x="-135" y="624"/>
      <point x="-187" y="551"/>
      <point x="-292" y="551" type="curve" smooth="yes"/>
      <point x="-397" y="551"/>
      <point x="-448" y="624"/>
      <point x="-448" y="714" type="curve"/>
      <point x="-396" y="714" type="line"/>
      <point x="-383" y="654"/>
      <point x="-336" y="632"/>
      <point x="-292" y="632" type="curve" smooth="yes"/>
      <point x="-247" y="632"/>
      <point x="-201" y="654"/>
      <point x="-188" y="714" type="curve"/>
    </contour>
    <contour>
      <point x="-224" y="741" type="curve" smooth="yes"/>
      <point x="-224" y="704"/>
      <point x="-253" y="673"/>
      <point x="-292" y="673" type="curve" smooth="yes"/>
      <point x="-331" y="673"/>
      <point x="-360" y="702"/>
      <point x="-360" y="741" type="curve" smooth="yes"/>
      <point x="-360" y="781"/>
      <point x="-332" y="814"/>
      <point x="-292" y="814" type="curve" smooth="yes"/>
      <point x="-254" y="814"/>
      <point x="-224" y="782"/>
    </contour>
  </outline>
</glyph>
<glyph name="acutebelowcomb" format="1">
  <advance width="0"/>
  <unicode hex="0317"/>
  <outline>
    <contour>
      <point x="-164" y="-115" type="curve" smooth="yes"/>
      <point x="-164" y="-127"/>
      <point x="-174" y="-148"/>
      <point x="-189" y="-156" type="curve" smooth="yes"/>
      <point x="-351" y="-245" type="line"/>
      <point x="-420" y="-245" type="line"/>
      <point x="-283" y="-93" type="line" smooth="yes"/>
      <point x="-261" y="-68"/>
      <point x="-247" y="-61"/>
      <point x="-220" y="-61" type="curve" smooth="yes"/>
      <point x="-177" y="-61"/>
      <point x="-164" y="-90"/>
    </contour>
  </outline>
</glyph>
<glyph name="uni031D" format="1">
  <advance width="0"/>
  <unicode hex="031D"/>
  <outline>
    <contour>
      <point x="-199" y="-195" type="line"/>
      <point x="-384" y="-195" type="line"/>
      <point x="-384" y="-141" type="line"/>
      <point x="-319" y="-141" type="line"/>
      <point x="-319" y="-61" type="line"/>
      <point x="-264" y="-61" type="line"/>
      <point x="-264" y="-141" type="line"/>
      <point x="-199" y="-141" type="line"/>
    </contour>
  </outline>
</glyph>
<glyph name="uni031E" format="1">
  <advance width="0"/>
  <unicode hex="031E"/>
  <outline>
    <contour>
      <point x="-199" y="-116" type="line"/>
      <point x="-264" y="-116" type="line"/>
      <point x="-264" y="-195" type="line"/>
      <point x="-319" y="-195" type="line"/>
      <point x="-319" y="-116" type="line"/>
      <point x="-384" y="-116" type="line"/>
      <point x="-384" y="-61" type="line"/>
      <point x="-199" y="-61" type="line"/>
    </contour>
  </outline>
</glyph>
<glyph name="uni031F" format="1">
  <advance width="0"/>
  <unicode hex="031F"/>
  <outline>
    <contour>
      <point x="-384" y="-131" type="line"/>
      <point x="-319" y="-131" type="line"/>
      <point x="-319" y="-61" type="line"/>
      <point x="-264" y="-61" type="line"/>
      <point x="-264" y="-131" type="line"/>
      <point x="-199" y="-131" type="line"/>
      <point x="-199" y="-186" type="line"/>
      <point x="-264" y="-186" type="line"/>
      <point x="-264" y="-256" type="line"/>
      <point x="-319" y="-256" type="line"/>
      <point x="-319" y="-186" type="line"/>
      <point x="-384" y="-186" type="line"/>
    </contour>
  </outline>
</glyph>
<glyph name="uni0326" format="1">
  <advance width="0"/>
  <unicode hex="0326"/>
  <outline>
    <contour>
      <point x="-215" y="-146" type="curve" smooth="yes"/>
      <point x="-215" y="-214"/>
      <point x="-279" y="-262"/>
      <point x="-356" y="-277" type="curve"/>
      <point x="-356" y="-237" type="line"/>
      <point x="-317" y="-226"/>
      <point x="-286" y="-195"/>
      <point x="-286" y="-163" type="curve"/>
      <point x="-349" y="-163" type="line"/>
      <point x="-362" y="-151"/>
      <point x="-369" y="-135"/>
      <point x="-369" y="-119" type="curve" smooth="yes"/>
      <point x="-369" y="-80"/>
      <point x="-336" y="-61"/>
      <point x="-301" y="-61" type="curve" smooth="yes"/>
      <point x="-250" y="-61"/>
      <point x="-215" y="-99"/>
    </contour>
  </outline>
</glyph>
<glyph name="uni0329" format="1">
  <advance width="0"/>
  <unicode hex="0329"/>
  <outline>
    <contour>
      <point x="-261" y="-245" type="line"/>
      <point x="-323" y="-245" type="line"/>
      <point x="-323" y="-61" type="line"/>
      <point x="-261" y="-61" type="line"/>
    </contour>
  </outline>
</glyph>
<glyph name="uni0330" format="1">
  <advance width="0"/>
  <unicode hex="0330"/>
  <outline>
    <contour>
      <point x="-116" y="-85" type="line"/>
      <point x="-133" y="-155"/>
      <point x="-169" y="-209"/>
      <point x="-237" y="-209" type="curve" smooth="yes"/>
      <point x="-289" y="-209"/>
      <point x="-310" y="-162"/>
      <point x="-369" y="-162" type="curve" smooth="yes"/>
      <point x="-391" y="-162"/>
      <point x="-410" y="-183"/>
      <point x="-413" y="-209" type="curve"/>
      <point x="-467" y="-209" type="line"/>
      <point x="-450" y="-140"/>
      <point x="-414" y="-85"/>
      <point x="-347" y="-85" type="curve" smooth="yes"/>
      <point x="-294" y="-85"/>
      <point x="-273" y="-133"/>
      <point x="-214" y="-133" type="curve" smooth="yes"/>
      <point x="-193" y="-133"/>
      <point x="-173" y="-112"/>
      <point x="-170" y="-85" type="curve"/>
    </contour>
  </outline>
</glyph>
<glyph name="uni0331" format="1">
  <advance width="0"/>
  <unicode hex="0331"/>
  <outline>
    <contour>
      <point x="-122" y="-166" type="line"/>
      <point x="-462" y="-166" type="line"/>
      <point x="-462" y="-85" type="line"/>
      <point x="-122" y="-85" type="line"/>
    </contour>
  </outline>
</glyph>
<glyph name="uni0334" format="1">
  <advance width="0"/>
  <unicode hex="0334"/>
  <outline>
    <contour>
      <point x="-119" y="308" type="line"/>
      <point x="-136" y="238"/>
      <point x="-172" y="183"/>
      <point x="-240" y="183" type="curve" smooth="yes"/>
      <point x="-292" y="183"/>
      <point x="-313" y="230"/>
      <point x="-372" y="230" type="curve" smooth="yes"/>
      <point x="-394" y="230"/>
      <point x="-413" y="210"/>
      <point x="-416" y="183" type="curve"/>
      <point x="-470" y="183" type="line"/>
      <point x="-453" y="252"/>
      <point x="-417" y="308"/>
      <point x="-350" y="308" type="curve" smooth="yes"/>
      <point x="-297" y="308"/>
      <point x="-276" y="259"/>
      <point x="-217" y="259" type="curve" smooth="yes"/>
      <point x="-196" y="259"/>
      <point x="-176" y="281"/>
      <point x="-173" y="308" type="curve"/>
    </contour>
  </outline>
</glyph>
<glyph name="uni033F" format="1">
  <advance width="0"/>
  <unicode hex="033F"/>
  <outline>
    <contour>
      <point x="48" y="586" type="line"/>
      <point x="-632" y="586" type="line"/>
      <point x="-632" y="667" type="line"/>
      <point x="48" y="667" type="line"/>
    </contour>
    <contour>
      <point x="48" y="715" type="line"/>
      <point x="-632" y="715" type="line"/>
      <point x="-632" y="796" type="line"/>
      <point x="48" y="796" type="line"/>
    </contour>
  </outline>
</glyph>
<glyph name="uni0347" format="1">
  <advance width="0"/>
  <unicode hex="0347"/>
  <outline>
    <contour>
      <point x="-99" y="-166" type="line"/>
      <point x="-485" y="-166" type="line"/>
      <point x="-485" y="-85" type="line"/>
      <point x="-99" y="-85" type="line"/>
    </contour>
    <contour>
      <point x="-99" y="-295" type="line"/>
      <point x="-485" y="-295" type="line"/>
      <point x="-485" y="-215" type="line"/>
      <point x="-99" y="-215" type="line"/>
    </contour>
  </outline>
</glyph>
<glyph name="uni034B" format="1">
  <advance width="0"/>
  <unicode hex="034B"/>
  <outline>
    <contour>
      <point x="-310" y="593" type="curve" smooth="yes"/>
      <point x="-310" y="570"/>
      <point x="-324" y="557"/>
      <point x="-346" y="557" type="curve" smooth="yes"/>
      <point x="-367" y="557"/>
      <point x="-382" y="571"/>
      <point x="-382" y="593" type="curve" smooth="yes"/>
      <point x="-382" y="614"/>
      <point x="-367" y="629"/>
      <point x="-346" y="629" type="curve" smooth="yes"/>
      <point x="-324" y="629"/>
      <point x="-310" y="615"/>
    </contour>
    <contour>
      <point x="-198" y="785" type="curve" smooth="yes"/>
      <point x="-198" y="762"/>
      <point x="-211" y="749"/>
      <point x="-233" y="749" type="curve" smooth="yes"/>
      <point x="-254" y="749"/>
      <point x="-270" y="763"/>
      <point x="-270" y="785" type="curve" smooth="yes"/>
      <point x="-270" y="806"/>
      <point x="-254" y="821"/>
      <point x="-233" y="821" type="curve" smooth="yes"/>
      <point x="-211" y="821"/>
      <point x="-198" y="807"/>
    </contour>
    <contour>
      <point x="-116" y="750" type="line"/>
      <point x="-133" y="681"/>
      <point x="-169" y="626"/>
      <point x="-237" y="626" type="curve" smooth="yes"/>
      <point x="-289" y="626"/>
      <point x="-310" y="674"/>
      <point x="-369" y="674" type="curve" smooth="yes"/>
      <point x="-391" y="674"/>
      <point x="-410" y="653"/>
      <point x="-413" y="626" type="curve"/>
      <point x="-467" y="626" type="line"/>
      <point x="-450" y="695"/>
      <point x="-414" y="750"/>
      <point x="-347" y="750" type="curve" smooth="yes"/>
      <point x="-294" y="750"/>
      <point x="-273" y="703"/>
      <point x="-214" y="703" type="curve" smooth="yes"/>
      <point x="-193" y="703"/>
      <point x="-173" y="724"/>
      <point x="-170" y="750" type="curve"/>
    </contour>
  </outline>
</glyph>
<glyph name="uni0357" format="1">
  <advance width="0"/>
  <unicode hex="0357"/>
  <outline>
    <contour>
      <point x="-231" y="676" type="curve" smooth="yes"/>
      <point x="-231" y="604"/>
      <point x="-279" y="568"/>
      <point x="-353" y="568" type="curve"/>
      <point x="-353" y="608" type="line"/>
      <point x="-302" y="608"/>
      <point x="-277" y="628"/>
      <point x="-277" y="676" type="curve" smooth="yes"/>
      <point x="-277" y="724"/>
      <point x="-302" y="744"/>
      <point x="-353" y="744" type="curve"/>
      <point x="-353" y="784" type="line"/>
      <point x="-277" y="784"/>
      <point x="-231" y="746"/>
    </contour>
  </outline>
</glyph>
<glyph name="uni035B" format="1">
  <advance width="0"/>
  <unicode hex="035B"/>
  <outline>
    <contour>
      <point x="-336" y="744" type="line"/>
      <point x="-268" y="744" type="line"/>
      <point x="-295" y="666" type="line"/>
      <point x="-200" y="666" type="line"/>
      <point x="-248" y="529" type="line"/>
      <point x="-316" y="529" type="line"/>
      <point x="-289" y="607" type="line"/>
      <point x="-384" y="607" type="line"/>
    </contour>
  </outline>
</glyph>
<glyph name="uni035C" format="1">
  <advance width="0"/>
  <unicode hex="035C"/>
  <outline>
    <contour>
      <point x="452" y="-215" type="line"/>
      <point x="397" y="-301"/>
      <point x="240" y="-349"/>
      <point x="3" y="-349" type="curve" smooth="yes"/>
      <point x="-235" y="-349"/>
      <point x="-393" y="-303"/>
      <point x="-452" y="-215" type="curve"/>
      <point x="-416" y="-183" type="line"/>
      <point x="-368" y="-248"/>
      <point x="-192" y="-262"/>
      <point x="-1" y="-262" type="curve" smooth="yes"/>
      <point x="189" y="-262"/>
      <point x="370" y="-248"/>
      <point x="416" y="-183" type="curve"/>
    </contour>
  </outline>
</glyph>
<glyph name="uni035E" format="1">
  <advance width="0"/>
  <unicode hex="035E"/>
  <outline>
    <contour>
      <point x="340" y="806" type="line"/>
      <point x="-340" y="806" type="line"/>
      <point x="-340" y="886" type="line"/>
      <point x="340" y="886" type="line"/>
    </contour>
  </outline>
</glyph>
<glyph name="uni0361" format="1">
  <advance width="0"/>
  <unicode hex="0361"/>
  <outline>
    <contour>
      <point x="452" y="801" type="curve"/>
      <point x="416" y="768" type="line"/>
      <point x="370" y="833"/>
      <point x="189" y="847"/>
      <point x="-1" y="847" type="curve" smooth="yes"/>
      <point x="-192" y="847"/>
      <point x="-368" y="833"/>
      <point x="-416" y="768" type="curve"/>
      <point x="-452" y="801" type="line"/>
      <point x="-393" y="889"/>
      <point x="-235" y="934"/>
      <point x="3" y="934" type="curve" smooth="yes"/>
      <point x="240" y="934"/>
      <point x="397" y="887"/>
    </contour>
  </outline>
</glyph>
<glyph name="uni0368" format="1">
  <advance width="0"/>
  <unicode hex="0368"/>
  <outline>
    <contour>
      <point x="-149" y="593" type="line"/>
      <point x="-171" y="583"/>
      <point x="-212" y="559"/>
      <point x="-277" y="559" type="curve" smooth="yes"/>
      <point x="-378" y="559"/>
      <point x="-435" y="627"/>
      <point x="-435" y="706" type="curve" smooth="yes"/>
      <point x="-435" y="801"/>
      <point x="-360" y="866"/>
      <point x="-268" y="866" type="curve" smooth="yes"/>
      <point x="-199" y="866"/>
      <point x="-155" y="838"/>
      <point x="-155" y="800" type="curve" smooth="yes"/>
      <point x="-155" y="773"/>
      <point x="-178" y="755"/>
      <point x="-202" y="755" type="curve" smooth="yes"/>
      <point x="-229" y="755"/>
      <point x="-236" y="762"/>
      <point x="-245" y="767" type="curve"/>
      <point x="-245" y="834" type="line"/>
      <point x="-250" y="835"/>
      <point x="-251" y="835"/>
      <point x="-256" y="835" type="curve" smooth="yes"/>
      <point x="-296" y="835"/>
      <point x="-339" y="798"/>
      <point x="-339" y="724" type="curve" smooth="yes"/>
      <point x="-339" y="653"/>
      <point x="-302" y="609"/>
      <point x="-241" y="609" type="curve" smooth="yes"/>
      <point x="-201" y="609"/>
      <point x="-157" y="632"/>
      <point x="-149" y="638" type="curve"/>
    </contour>
  </outline>
</glyph>
<glyph name="uni0369" format="1">
  <advance width="0"/>
  <unicode hex="0369"/>
  <outline>
    <contour>
      <point x="-113" y="566" type="line"/>
      <point x="-242" y="566" type="line"/>
      <point x="-242" y="600" type="line"/>
      <point x="-251" y="595"/>
      <point x="-297" y="559"/>
      <point x="-344" y="559" type="curve" smooth="yes"/>
      <point x="-423" y="559"/>
      <point x="-471" y="621"/>
      <point x="-471" y="705" type="curve" smooth="yes"/>
      <point x="-471" y="808"/>
      <point x="-400" y="866"/>
      <point x="-301" y="866" type="curve" smooth="yes"/>
      <point x="-277" y="866"/>
      <point x="-242" y="860"/>
      <point x="-242" y="860" type="curve"/>
      <point x="-242" y="955" type="line"/>
      <point x="-289" y="955" type="line"/>
      <point x="-289" y="980" type="line"/>
      <point x="-188" y="1010" type="line"/>
      <point x="-155" y="1010" type="line"/>
      <point x="-155" y="610" type="line" smooth="yes"/>
      <point x="-155" y="602"/>
      <point x="-148" y="596"/>
      <point x="-140" y="596" type="curve" smooth="yes"/>
      <point x="-113" y="594" type="line"/>
    </contour>
    <contour>
      <point x="-242" y="625" type="curve"/>
      <point x="-242" y="821" type="line"/>
      <point x="-242" y="821"/>
      <point x="-268" y="830"/>
      <point x="-287" y="830" type="curve" smooth="yes"/>
      <point x="-348" y="830"/>
      <point x="-375" y="781"/>
      <point x="-375" y="719" type="curve" smooth="yes"/>
      <point x="-375" y="656"/>
      <point x="-348" y="614"/>
      <point x="-292" y="614" type="curve" smooth="yes"/>
      <point x="-269" y="614"/>
      <point x="-242" y="625"/>
    </contour>
  </outline>
</glyph>
<glyph name="uni036E" format="1">
  <advance width="0"/>
  <unicode hex="036E"/>
  <outline>
    <contour>
      <point x="-114" y="830" type="line"/>
      <point x="-150" y="826" type="line"/>
      <point x="-263" y="566" type="line"/>
      <point x="-327" y="566" type="line"/>
      <point x="-431" y="827" type="line"/>
      <point x="-470" y="830" type="line"/>
      <point x="-470" y="858" type="line"/>
      <point x="-299" y="858" type="line"/>
      <point x="-299" y="830" type="line"/>
      <point x="-329" y="829" type="line" smooth="yes"/>
      <point x="-336" y="828"/>
      <point x="-339" y="822"/>
      <point x="-337" y="815" type="curve" smooth="yes"/>
      <point x="-273" y="649" type="line"/>
      <point x="-203" y="815" type="line" smooth="yes"/>
      <point x="-200" y="821"/>
      <point x="-205" y="828"/>
      <point x="-212" y="829" type="curve" smooth="yes"/>
      <point x="-240" y="830" type="line"/>
      <point x="-240" y="858" type="line"/>
      <point x="-114" y="858" type="line"/>
    </contour>
  </outline>
</glyph>
<glyph name="Iotatonos" format="1">
  <advance width="358"/>
  <unicode hex="038A"/>
  <outline>
    <contour>
      <point x="335" y="0" type="line"/>
      <point x="23" y="0" type="line"/>
      <point x="23" y="51" type="line"/>
      <point x="85" y="56" type="line" smooth="yes"/>
      <point x="97" y="57"/>
      <point x="107" y="65"/>
      <point x="107" y="78" type="curve" smooth="yes"/>
      <point x="107" y="593" type="line" smooth="yes"/>
      <point x="107" y="606"/>
      <point x="97" y="614"/>
      <point x="85" y="615" type="curve" smooth="yes"/>
      <point x="23" y="620" type="line"/>
      <point x="23" y="671" type="line"/>
      <point x="335" y="671" type="line"/>
      <point x="335" y="620" type="line"/>
      <point x="273" y="615" type="line" smooth="yes"/>
      <point x="262" y="614"/>
      <point x="250" y="606"/>
      <point x="250" y="593" type="curve" smooth="yes"/>
      <point x="250" y="78" type="line" smooth="yes"/>
      <point x="250" y="65"/>
      <point x="262" y="57"/>
      <point x="273" y="56" type="curve" smooth="yes"/>
      <point x="335" y="51" type="line"/>
    </contour>
    <contour>
      <point x="308" y="864" type="curve" smooth="yes"/>
      <point x="308" y="851"/>
      <point x="296" y="830"/>
      <point x="282" y="822" type="curve" smooth="yes"/>
      <point x="120" y="734" type="line"/>
      <point x="50" y="734" type="line"/>
      <point x="187" y="885" type="line" smooth="yes"/>
      <point x="210" y="910"/>
      <point x="223" y="917"/>
      <point x="250" y="917" type="curve" smooth="yes"/>
      <point x="293" y="917"/>
      <point x="308" y="888"/>
    </contour>
  </outline>
</glyph>
<glyph name="Omicron" format="1">
  <advance width="755"/>
  <unicode hex="039F"/>
  <outline>
    <contour>
      <point x="719" y="332" type="curve" smooth="yes"/>
      <point x="719" y="142"/>
      <point x="588" y="-16"/>
      <point x="378" y="-16" type="curve" smooth="yes"/>
      <point x="168" y="-16"/>
      <point x="37" y="142"/>
      <point x="37" y="332" type="curve" smooth="yes"/>
      <point x="37" y="522"/>
      <point x="168" y="687"/>
      <point x="378" y="687" type="curve" smooth="yes"/>
      <point x="588" y="687"/>
      <point x="719" y="522"/>
    </contour>
    <contour>
      <point x="559" y="332" type="curve" smooth="yes"/>
      <point x="559" y="482"/>
      <point x="498" y="620"/>
      <point x="378" y="620" type="curve" smooth="yes"/>
      <point x="258" y="620"/>
      <point x="197" y="482"/>
      <point x="197" y="332" type="curve" smooth="yes"/>
      <point x="197" y="182"/>
      <point x="258" y="47"/>
      <point x="378" y="47" type="curve" smooth="yes"/>
      <point x="498" y="47"/>
      <point x="559" y="182"/>
    </contour>
  </outline>
</glyph>
<glyph name="Psi" format="1">
  <advance width="868"/>
  <unicode hex="03A8"/>
  <outline>
    <contour>
      <point x="590" y="0" type="line"/>
      <point x="278" y="0" type="line"/>
      <point x="278" y="51" type="line"/>
      <point x="340" y="56" type="line" smooth="yes"/>
      <point x="352" y="57"/>
      <point x="362" y="65"/>
      <point x="362" y="78" type="curve" smooth="yes"/>
      <point x="362" y="196" type="line"/>
      <point x="182" y="196"/>
      <point x="88" y="270"/>
      <point x="88" y="418" type="curve" smooth="yes"/>
      <point x="88" y="502" type="line" smooth="yes"/>
      <point x="88" y="589"/>
      <point x="71" y="621"/>
      <point x="10" y="621" type="curve"/>
      <point x="10" y="671" type="line"/>
      <point x="54" y="671" type="line" smooth="yes"/>
      <point x="145" y="671"/>
      <point x="241" y="621"/>
      <point x="241" y="467" type="curve" smooth="yes"/>
      <point x="241" y="337"/>
      <point x="252" y="252"/>
      <point x="362" y="252" type="curve"/>
      <point x="362" y="593" type="line" smooth="yes"/>
      <point x="362" y="606"/>
      <point x="352" y="614"/>
      <point x="340" y="615" type="curve" smooth="yes"/>
      <point x="278" y="620" type="line"/>
      <point x="278" y="671" type="line"/>
      <point x="590" y="671" type="line"/>
      <point x="590" y="620" type="line"/>
      <point x="528" y="615" type="line" smooth="yes"/>
      <point x="517" y="614"/>
      <point x="505" y="606"/>
      <point x="505" y="593" type="curve" smooth="yes"/>
      <point x="505" y="252" type="line"/>
      <point x="615" y="252"/>
      <point x="627" y="337"/>
      <point x="627" y="467" type="curve" smooth="yes"/>
      <point x="627" y="621"/>
      <point x="723" y="671"/>
      <point x="814" y="671" type="curve" smooth="yes"/>
      <point x="858" y="671" type="line"/>
      <point x="858" y="620" type="line"/>
      <point x="797" y="620"/>
      <point x="780" y="588"/>
      <point x="780" y="501" type="curve" smooth="yes"/>
      <point x="780" y="418" type="line" smooth="yes"/>
      <point x="780" y="270"/>
      <point x="685" y="196"/>
      <point x="505" y="196" type="curve"/>
      <point x="505" y="78" type="line" smooth="yes"/>
      <point x="505" y="65"/>
      <point x="517" y="57"/>
      <point x="528" y="56" type="curve" smooth="yes"/>
      <point x="590" y="51" type="line"/>
    </contour>
  </outline>
</glyph>
<glyph name="gamma" format="1">
  <advance width="492"/>
  <unicode hex="03B3"/>
  <outline>
    <contour>
      <point x="402" y="460" type="curve"/>
      <point x="507" y="460" type="line"/>
      <point x="507" y="375"/>
      <point x="432" y="153"/>
      <point x="359" y="64" type="curve"/>
      <point x="367" y="38"/>
      <point x="388" y="-30"/>
      <point x="388" y="-93" type="curve" smooth="yes"/>
      <point x="388" y="-169"/>
      <point x="334" y="-231"/>
      <point x="264" y="-231" type="curve" smooth="yes"/>
      <point x="194" y="-231"/>
      <point x="179" y="-170"/>
      <point x="179" y="-120" type="curve" smooth="yes"/>
      <point x="179" y="-73"/>
      <point x="235" y="13"/>
      <point x="240" y="30" type="curve"/>
      <point x="213" y="142"/>
      <point x="118" y="379"/>
      <point x="84" y="379" type="curve" smooth="yes"/>
      <point x="63" y="379"/>
      <point x="60" y="330"/>
      <point x="60" y="306" type="curve"/>
      <point x="29" y="306" type="line"/>
      <point x="26" y="316"/>
      <point x="19" y="340"/>
      <point x="19" y="373" type="curve" smooth="yes"/>
      <point x="19" y="434"/>
      <point x="74" y="475"/>
      <point x="129" y="475" type="curve" smooth="yes"/>
      <point x="221" y="475"/>
      <point x="251" y="392"/>
      <point x="259" y="378" type="curve" smooth="yes"/>
      <point x="295" y="290"/>
      <point x="301" y="269"/>
      <point x="328" y="148" type="curve"/>
      <point x="350" y="199"/>
      <point x="358" y="224"/>
      <point x="375" y="282" type="curve" smooth="yes"/>
      <point x="389" y="329"/>
      <point x="402" y="402"/>
    </contour>
  </outline>
</glyph>
<glyph name="delta" format="1">
  <advance width="596"/>
  <unicode hex="03B4"/>
  <outline>
    <contour>
      <point x="566" y="225" type="curve" smooth="yes"/>
      <point x="566" y="58"/>
      <point x="419" y="-12"/>
      <point x="299" y="-12" type="curve" smooth="yes"/>
      <point x="168" y="-12"/>
      <point x="30" y="38"/>
      <point x="30" y="205" type="curve" smooth="yes"/>
      <point x="30" y="330"/>
      <point x="149" y="392"/>
      <point x="264" y="428" type="curve"/>
      <point x="181" y="486"/>
      <point x="94" y="535"/>
      <point x="94" y="597" type="curve" smooth="yes"/>
      <point x="94" y="689"/>
      <point x="181" y="740"/>
      <point x="291" y="740" type="curve" smooth="yes"/>
      <point x="442" y="740"/>
      <point x="507" y="674"/>
      <point x="507" y="625" type="curve" smooth="yes"/>
      <point x="507" y="598"/>
      <point x="480" y="566"/>
      <point x="435" y="566" type="curve" smooth="yes"/>
      <point x="426" y="566"/>
      <point x="397" y="568"/>
      <point x="388" y="574" type="curve"/>
      <point x="364" y="653" type="line"/>
      <point x="335" y="674"/>
      <point x="313" y="683"/>
      <point x="287" y="683" type="curve" smooth="yes"/>
      <point x="247" y="683"/>
      <point x="207" y="660"/>
      <point x="207" y="615" type="curve" smooth="yes"/>
      <point x="207" y="526"/>
      <point x="566" y="457"/>
    </contour>
    <contour>
      <point x="416" y="218" type="curve" smooth="yes"/>
      <point x="416" y="291"/>
      <point x="369" y="347"/>
      <point x="311" y="393" type="curve"/>
      <point x="247" y="359"/>
      <point x="181" y="294"/>
      <point x="181" y="204" type="curve" smooth="yes"/>
      <point x="181" y="106"/>
      <point x="220" y="44"/>
      <point x="295" y="44" type="curve" smooth="yes"/>
      <point x="374" y="44"/>
      <point x="416" y="113"/>
    </contour>
  </outline>
</glyph>
<glyph name="rho" format="1">
  <advance width="572"/>
  <unicode hex="03C1"/>
  <outline>
    <contour>
      <point x="282" y="500" type="curve" smooth="yes"/>
      <point x="421" y="500"/>
      <point x="532" y="407"/>
      <point x="532" y="257" type="curve" smooth="yes"/>
      <point x="532" y="87"/>
      <point x="439" y="-16"/>
      <point x="287" y="-16" type="curve" smooth="yes"/>
      <point x="245" y="-16"/>
      <point x="209" y="-4"/>
      <point x="173" y="19" type="curve"/>
      <point x="173" y="-60" type="line" smooth="yes"/>
      <point x="173" y="-113"/>
      <point x="168" y="-169"/>
      <point x="155" y="-220" type="curve"/>
      <point x="18" y="-220" type="line"/>
      <point x="30" y="-171"/>
      <point x="40" y="-97"/>
      <point x="40" y="2" type="curve" smooth="yes"/>
      <point x="40" y="189" type="line" smooth="yes"/>
      <point x="40" y="352"/>
      <point x="54" y="500"/>
    </contour>
    <contour>
      <point x="382" y="231" type="curve" smooth="yes"/>
      <point x="382" y="306"/>
      <point x="376" y="456"/>
      <point x="276" y="456" type="curve" smooth="yes"/>
      <point x="198" y="456"/>
      <point x="173" y="312"/>
      <point x="173" y="242" type="curve" smooth="yes"/>
      <point x="173" y="163"/>
      <point x="202" y="25"/>
      <point x="280" y="25" type="curve" smooth="yes"/>
      <point x="369" y="25"/>
      <point x="382" y="164"/>
    </contour>
  </outline>
</glyph>
<glyph name="upsilondieresis" format="1">
  <advance width="565"/>
  <unicode hex="03CB"/>
  <outline>
    <contour>
      <point x="446" y="500" type="curve" smooth="yes"/>
      <point x="532" y="500"/>
      <point x="535" y="333"/>
      <point x="535" y="267" type="curve" smooth="yes"/>
      <point x="535" y="127"/>
      <point x="432" y="-11"/>
      <point x="281" y="-11" type="curve" smooth="yes"/>
      <point x="132" y="-11"/>
      <point x="105" y="79"/>
      <point x="105" y="178" type="curve" smooth="yes"/>
      <point x="105" y="229"/>
      <point x="112" y="284"/>
      <point x="112" y="328" type="curve" smooth="yes"/>
      <point x="112" y="359"/>
      <point x="111" y="417"/>
      <point x="88" y="417" type="curve" smooth="yes"/>
      <point x="71" y="417"/>
      <point x="52" y="395"/>
      <point x="40" y="391" type="curve"/>
      <point x="20" y="430" type="line"/>
      <point x="53" y="459"/>
      <point x="114" y="500"/>
      <point x="152" y="500" type="curve" smooth="yes"/>
      <point x="238" y="500"/>
      <point x="250" y="431"/>
      <point x="250" y="354" type="curve" smooth="yes"/>
      <point x="250" y="326"/>
      <point x="245" y="275"/>
      <point x="245" y="222" type="curve" smooth="yes"/>
      <point x="245" y="139"/>
      <point x="258" y="54"/>
      <point x="325" y="54" type="curve" smooth="yes"/>
      <point x="413" y="54"/>
      <point x="461" y="156"/>
      <point x="461" y="229" type="curve" smooth="yes"/>
      <point x="461" y="277"/>
      <point x="457" y="395"/>
      <point x="378" y="403" type="curve"/>
      <point x="372" y="415"/>
      <point x="370" y="421"/>
      <point x="370" y="447" type="curve" smooth="yes"/>
      <point x="370" y="473"/>
      <point x="395" y="500"/>
    </contour>
    <contour>
      <point x="463" y="654" type="curve" smooth="yes"/>
      <point x="463" y="616"/>
      <point x="432" y="585"/>
      <point x="394" y="585" type="curve" smooth="yes"/>
      <point x="356" y="585"/>
      <point x="325" y="616"/>
      <point x="325" y="654" type="curve" smooth="yes"/>
      <point x="325" y="692"/>
      <point x="356" y="723"/>
      <point x="394" y="723" type="curve" smooth="yes"/>
      <point x="432" y="723"/>
      <point x="463" y="692"/>
    </contour>
    <contour>
      <point x="253" y="654" type="curve" smooth="yes"/>
      <point x="253" y="616"/>
      <point x="222" y="585"/>
      <point x="184" y="585" type="curve" smooth="yes"/>
      <point x="146" y="585"/>
      <point x="115" y="616"/>
      <point x="115" y="654" type="curve" smooth="yes"/>
      <point x="115" y="692"/>
      <point x="146" y="723"/>
      <point x="184" y="723" type="curve" smooth="yes"/>
      <point x="222" y="723"/>
      <point x="253" y="692"/>
    </contour>
  </outline>
</glyph>
<glyph name="omegatonos" format="1">
  <advance width="798"/>
  <unicode hex="03CE"/>
  <outline>
    <contour>
      <point x="333" y="337" type="line"/>
      <point x="466" y="337" type="line"/>
      <point x="466" y="219" type="line" smooth="yes"/>
      <point x="466" y="126"/>
      <point x="473" y="48"/>
      <point x="541" y="48" type="curve" smooth="yes"/>
      <point x="604" y="48"/>
      <point x="618" y="123"/>
      <point x="618" y="231" type="curve" smooth="yes"/>
      <point x="618" y="335"/>
      <point x="601" y="431"/>
      <point x="518" y="456" type="curve"/>
      <point x="518" y="500" type="line"/>
      <point x="647" y="500"/>
      <point x="768" y="391"/>
      <point x="768" y="231" type="curve" smooth="yes"/>
      <point x="768" y="121"/>
      <point x="717" y="-12"/>
      <point x="560" y="-12" type="curve" smooth="yes"/>
      <point x="448" y="-12"/>
      <point x="408" y="60"/>
      <point x="400" y="98" type="curve"/>
      <point x="390" y="60"/>
      <point x="350" y="-12"/>
      <point x="238" y="-12" type="curve" smooth="yes"/>
      <point x="81" y="-12"/>
      <point x="30" y="121"/>
      <point x="30" y="231" type="curve" smooth="yes"/>
      <point x="30" y="391"/>
      <point x="151" y="500"/>
      <point x="280" y="500" type="curve"/>
      <point x="280" y="456" type="line"/>
      <point x="197" y="431"/>
      <point x="180" y="335"/>
      <point x="180" y="231" type="curve" smooth="yes"/>
      <point x="180" y="123"/>
      <point x="195" y="48"/>
      <point x="258" y="48" type="curve" smooth="yes"/>
      <point x="326" y="48"/>
      <point x="333" y="126"/>
      <point x="333" y="219" type="curve" smooth="yes"/>
    </contour>
    <contour>
      <point x="525" y="681" type="curve" smooth="yes"/>
      <point x="525" y="668"/>
      <point x="513" y="647"/>
      <point x="499" y="639" type="curve" smooth="yes"/>
      <point x="337" y="551" type="line"/>
      <point x="267" y="551" type="line"/>
      <point x="404" y="702" type="line" smooth="yes"/>
      <point x="427" y="727"/>
      <point x="440" y="734"/>
      <point x="467" y="734" type="curve" smooth="yes"/>
      <point x="510" y="734"/>
      <point x="525" y="705"/>
    </contour>
  </outline>
</glyph>
<glyph name="uni040B" format="1">
  <advance width="778"/>
  <unicode hex="040B"/>
  <outline>
    <contour>
      <point x="753" y="0" type="line"/>
      <point x="458" y="0" type="line"/>
      <point x="458" y="51" type="line"/>
      <point x="510" y="56" type="line" smooth="yes"/>
      <point x="521" y="57"/>
      <point x="532" y="65"/>
      <point x="532" y="78" type="curve" smooth="yes"/>
      <point x="532" y="278" type="line" smooth="yes"/>
      <point x="532" y="343"/>
      <point x="493" y="361"/>
      <point x="441" y="361" type="curve" smooth="yes"/>
      <point x="418" y="361"/>
      <point x="358" y="324"/>
      <point x="350" y="319" type="curve"/>
      <point x="350" y="78" type="line" smooth="yes"/>
      <point x="350" y="65"/>
      <point x="361" y="57"/>
      <point x="372" y="56" type="curve" smooth="yes"/>
      <point x="423" y="51" type="line"/>
      <point x="423" y="0" type="line"/>
      <point x="129" y="0" type="line"/>
      <point x="129" y="51" type="line"/>
      <point x="185" y="56" type="line" smooth="yes"/>
      <point x="197" y="57"/>
      <point x="207" y="65"/>
      <point x="207" y="78" type="curve" smooth="yes"/>
      <point x="207" y="611" type="line"/>
      <point x="116" y="611" type="line" smooth="yes"/>
      <point x="102" y="611"/>
      <point x="99" y="606"/>
      <point x="97" y="591" type="curve" smooth="yes"/>
      <point x="83" y="504" type="line"/>
      <point x="10" y="504" type="line"/>
      <point x="10" y="671" type="line"/>
      <point x="547" y="671" type="line"/>
      <point x="547" y="504" type="line"/>
      <point x="474" y="504" type="line"/>
      <point x="460" y="591" type="line" smooth="yes"/>
      <point x="458" y="605"/>
      <point x="455" y="611"/>
      <point x="441" y="611" type="curve" smooth="yes"/>
      <point x="350" y="611" type="line"/>
      <point x="350" y="406" type="line"/>
      <point x="400" y="429"/>
      <point x="463" y="451"/>
      <point x="500" y="451" type="curve" smooth="yes"/>
      <point x="593" y="451"/>
      <point x="675" y="406"/>
      <point x="675" y="297" type="curve" smooth="yes"/>
      <point x="675" y="78" type="line" smooth="yes"/>
      <point x="675" y="65"/>
      <point x="685" y="57"/>
      <point x="697" y="56" type="curve" smooth="yes"/>
      <point x="753" y="51" type="line"/>
    </contour>
  </outline>
</glyph>
<glyph name="uni040F" format="1">
  <advance width="764"/>
  <unicode hex="040F"/>
  <outline>
    <contour>
      <point x="733" y="0" type="line"/>
      <point x="526" y="0" type="line" smooth="yes"/>
      <point x="444" y="0"/>
      <point x="424" y="-55"/>
      <point x="424" y="-205" type="curve"/>
      <point x="341" y="-205" type="line"/>
      <point x="341" y="-55"/>
      <point x="321" y="0"/>
      <point x="238" y="0" type="curve" smooth="yes"/>
      <point x="31" y="0" type="line"/>
      <point x="31" y="51" type="line"/>
      <point x="82" y="56" type="line" smooth="yes"/>
      <point x="94" y="57"/>
      <point x="104" y="65"/>
      <point x="104" y="78" type="curve" smooth="yes"/>
      <point x="104" y="593" type="line" smooth="yes"/>
      <point x="104" y="606"/>
      <point x="94" y="614"/>
      <point x="82" y="615" type="curve" smooth="yes"/>
      <point x="31" y="620" type="line"/>
      <point x="31" y="671" type="line"/>
      <point x="320" y="671" type="line"/>
      <point x="320" y="620" type="line"/>
      <point x="269" y="615" type="line" smooth="yes"/>
      <point x="258" y="614"/>
      <point x="247" y="606"/>
      <point x="247" y="593" type="curve" smooth="yes"/>
      <point x="247" y="82" type="line" smooth="yes"/>
      <point x="247" y="69"/>
      <point x="257" y="60"/>
      <point x="269" y="60" type="curve" smooth="yes"/>
      <point x="495" y="60" type="line" smooth="yes"/>
      <point x="507" y="60"/>
      <point x="517" y="69"/>
      <point x="517" y="82" type="curve" smooth="yes"/>
      <point x="517" y="593" type="line" smooth="yes"/>
      <point x="517" y="606"/>
      <point x="507" y="614"/>
      <point x="495" y="615" type="curve" smooth="yes"/>
      <point x="444" y="620" type="line"/>
      <point x="444" y="671" type="line"/>
      <point x="733" y="671" type="line"/>
      <point x="733" y="620" type="line"/>
      <point x="682" y="615" type="line" smooth="yes"/>
      <point x="671" y="614"/>
      <point x="660" y="606"/>
      <point x="660" y="593" type="curve" smooth="yes"/>
      <point x="660" y="78" type="line" smooth="yes"/>
      <point x="660" y="65"/>
      <point x="671" y="57"/>
      <point x="682" y="56" type="curve" smooth="yes"/>
      <point x="733" y="51" type="line"/>
    </contour>
  </outline>
</glyph>
<glyph name="uni0417" format="1">
  <advance width="563"/>
  <unicode hex="0417"/>
  <outline>
    <contour>
      <point x="527" y="189" type="curve" smooth="yes"/>
      <point x="527" y="64"/>
      <point x="444" y="-16"/>
      <point x="237" y="-16" type="curve" smooth="yes"/>
      <point x="161" y="-16"/>
      <point x="118" y="-8"/>
      <point x="37" y="27" type="curve"/>
      <point x="37" y="188" type="line"/>
      <point x="113" y="188" type="line"/>
      <point x="134" y="94" type="line" smooth="yes"/>
      <point x="137" y="78"/>
      <point x="152" y="64"/>
      <point x="188" y="51" type="curve" smooth="yes"/>
      <point x="208" y="44"/>
      <point x="226" y="41"/>
      <point x="238" y="41" type="curve" smooth="yes"/>
      <point x="311" y="41"/>
      <point x="387" y="98"/>
      <point x="387" y="191" type="curve" smooth="yes"/>
      <point x="387" y="297"/>
      <point x="288" y="314"/>
      <point x="253" y="314" type="curve" smooth="yes"/>
      <point x="226" y="314"/>
      <point x="178" y="305"/>
      <point x="178" y="305" type="curve"/>
      <point x="178" y="380" type="line"/>
      <point x="205" y="378"/>
      <point x="217" y="377"/>
      <point x="224" y="377" type="curve" smooth="yes"/>
      <point x="285" y="377"/>
      <point x="359" y="415"/>
      <point x="359" y="503" type="curve" smooth="yes"/>
      <point x="359" y="594"/>
      <point x="280" y="626"/>
      <point x="239" y="626" type="curve" smooth="yes"/>
      <point x="187" y="626"/>
      <point x="171" y="607"/>
      <point x="162" y="597" type="curve" smooth="yes"/>
      <point x="158" y="593"/>
      <point x="145" y="572"/>
      <point x="144" y="568" type="curve" smooth="yes"/>
      <point x="124" y="474" type="line"/>
      <point x="47" y="474" type="line"/>
      <point x="47" y="629" type="line"/>
      <point x="135" y="672"/>
      <point x="184" y="687"/>
      <point x="262" y="687" type="curve" smooth="yes"/>
      <point x="404" y="687"/>
      <point x="501" y="616"/>
      <point x="501" y="517" type="curve" smooth="yes"/>
      <point x="501" y="459"/>
      <point x="459" y="392"/>
      <point x="350" y="354" type="curve"/>
      <point x="454" y="340"/>
      <point x="527" y="279"/>
    </contour>
  </outline>
</glyph>
<glyph name="uni041D" format="1">
  <advance width="769"/>
  <unicode hex="041D"/>
  <outline>
    <contour>
      <point x="739" y="0" type="line"/>
      <point x="448" y="0" type="line"/>
      <point x="448" y="51" type="line"/>
      <point x="500" y="56" type="line" smooth="yes"/>
      <point x="512" y="57"/>
      <point x="522" y="65"/>
      <point x="522" y="78" type="curve" smooth="yes"/>
      <point x="522" y="320" type="line"/>
      <point x="247" y="320" type="line"/>
      <point x="247" y="78" type="line" smooth="yes"/>
      <point x="247" y="65"/>
      <point x="257" y="57"/>
      <point x="269" y="56" type="curve" smooth="yes"/>
      <point x="322" y="51" type="line"/>
      <point x="322" y="0" type="line"/>
      <point x="30" y="0" type="line"/>
      <point x="30" y="51" type="line"/>
      <point x="82" y="56" type="line" smooth="yes"/>
      <point x="94" y="57"/>
      <point x="104" y="65"/>
      <point x="104" y="78" type="curve" smooth="yes"/>
      <point x="104" y="593" type="line" smooth="yes"/>
      <point x="104" y="606"/>
      <point x="94" y="614"/>
      <point x="82" y="615" type="curve" smooth="yes"/>
      <point x="30" y="620" type="line"/>
      <point x="30" y="671" type="line"/>
      <point x="322" y="671" type="line"/>
      <point x="322" y="620" type="line"/>
      <point x="269" y="615" type="line" smooth="yes"/>
      <point x="257" y="614"/>
      <point x="247" y="606"/>
      <point x="247" y="593" type="curve" smooth="yes"/>
      <point x="247" y="384" type="line"/>
      <point x="522" y="384" type="line"/>
      <point x="522" y="593" type="line" smooth="yes"/>
      <point x="522" y="606"/>
      <point x="512" y="614"/>
      <point x="500" y="615" type="curve" smooth="yes"/>
      <point x="448" y="620" type="line"/>
      <point x="448" y="671" type="line"/>
      <point x="739" y="671" type="line"/>
      <point x="739" y="620" type="line"/>
      <point x="687" y="615" type="line" smooth="yes"/>
      <point x="676" y="614"/>
      <point x="665" y="606"/>
      <point x="665" y="593" type="curve" smooth="yes"/>
      <point x="665" y="78" type="line" smooth="yes"/>
      <point x="665" y="65"/>
      <point x="675" y="57"/>
      <point x="687" y="56" type="curve" smooth="yes"/>
      <point x="739" y="51" type="line"/>
    </contour>
  </outline>
</glyph>
<glyph name="uni042B" format="1">
  <advance width="914"/>
  <unicode hex="042B"/>
  <outline>
    <contour>
      <point x="581" y="204" type="curve" smooth="yes"/>
      <point x="581" y="68"/>
      <point x="510" y="0"/>
      <point x="282" y="0" type="curve" smooth="yes"/>
      <point x="31" y="0" type="line"/>
      <point x="31" y="51" type="line"/>
      <point x="82" y="56" type="line" smooth="yes"/>
      <point x="94" y="57"/>
      <point x="104" y="65"/>
      <point x="104" y="78" type="curve" smooth="yes"/>
      <point x="104" y="593" type="line" smooth="yes"/>
      <point x="104" y="606"/>
      <point x="94" y="614"/>
      <point x="82" y="615" type="curve" smooth="yes"/>
      <point x="31" y="620" type="line"/>
      <point x="31" y="671" type="line"/>
      <point x="320" y="671" type="line"/>
      <point x="320" y="620" type="line"/>
      <point x="269" y="615" type="line" smooth="yes"/>
      <point x="258" y="614"/>
      <point x="247" y="606"/>
      <point x="247" y="593" type="curve" smooth="yes"/>
      <point x="247" y="420" type="line"/>
      <point x="263" y="421"/>
      <point x="283" y="423"/>
      <point x="299" y="423" type="curve" smooth="yes"/>
      <point x="473" y="423"/>
      <point x="581" y="341"/>
    </contour>
    <contour>
      <point x="895" y="0" type="line"/>
      <point x="583" y="0" type="line"/>
      <point x="583" y="51" type="line"/>
      <point x="645" y="56" type="line" smooth="yes"/>
      <point x="656" y="57"/>
      <point x="667" y="65"/>
      <point x="667" y="78" type="curve" smooth="yes"/>
      <point x="667" y="593" type="line" smooth="yes"/>
      <point x="667" y="606"/>
      <point x="656" y="614"/>
      <point x="645" y="615" type="curve" smooth="yes"/>
      <point x="583" y="620" type="line"/>
      <point x="583" y="671" type="line"/>
      <point x="895" y="671" type="line"/>
      <point x="895" y="620" type="line"/>
      <point x="833" y="615" type="line" smooth="yes"/>
      <point x="821" y="614"/>
      <point x="810" y="606"/>
      <point x="810" y="593" type="curve" smooth="yes"/>
      <point x="810" y="78" type="line" smooth="yes"/>
      <point x="810" y="65"/>
      <point x="821" y="57"/>
      <point x="833" y="56" type="curve" smooth="yes"/>
      <point x="895" y="51" type="line"/>
    </contour>
    <contour>
      <point x="427" y="204" type="curve" smooth="yes"/>
      <point x="427" y="323"/>
      <point x="372" y="366"/>
      <point x="290" y="366" type="curve" smooth="yes"/>
      <point x="280" y="366"/>
      <point x="260" y="364"/>
      <point x="247" y="362" type="curve"/>
      <point x="247" y="58" type="line"/>
      <point x="255" y="58"/>
      <point x="266" y="57"/>
      <point x="277" y="57" type="curve" smooth="yes"/>
      <point x="391" y="57"/>
      <point x="427" y="104"/>
    </contour>
  </outline>
</glyph>
<glyph name="uni0432" format="1">
  <advance width="540"/>
  <unicode hex="0432"/>
  <outline>
    <contour>
      <point x="518" y="227" type="curve" smooth="yes"/>
      <point x="518" y="39"/>
      <point x="391" y="-12"/>
      <point x="279" y="-12" type="curve" smooth="yes"/>
      <point x="81" y="-12"/>
      <point x="22" y="143"/>
      <point x="22" y="375" type="curve" smooth="yes"/>
      <point x="22" y="634"/>
      <point x="149" y="706"/>
      <point x="270" y="706" type="curve" smooth="yes"/>
      <point x="429" y="706"/>
      <point x="486" y="641"/>
      <point x="486" y="553" type="curve" smooth="yes"/>
      <point x="486" y="484"/>
      <point x="446" y="441"/>
      <point x="403" y="420" type="curve"/>
      <point x="469" y="400"/>
      <point x="518" y="341"/>
    </contour>
    <contour>
      <point x="380" y="221" type="curve" smooth="yes"/>
      <point x="380" y="342"/>
      <point x="334" y="383"/>
      <point x="274" y="383" type="curve" smooth="yes"/>
      <point x="191" y="383"/>
      <point x="176" y="272"/>
      <point x="176" y="208" type="curve" smooth="yes"/>
      <point x="176" y="158"/>
      <point x="199" y="40"/>
      <point x="279" y="40" type="curve" smooth="yes"/>
      <point x="341" y="40"/>
      <point x="380" y="90"/>
    </contour>
    <contour>
      <point x="347" y="548" type="curve" smooth="yes"/>
      <point x="347" y="549" type="line" smooth="yes"/>
      <point x="347" y="621"/>
      <point x="305" y="656"/>
      <point x="255" y="656" type="curve" smooth="yes"/>
      <point x="180" y="656"/>
      <point x="170" y="565"/>
      <point x="170" y="523" type="curve" smooth="yes"/>
      <point x="170" y="496"/>
      <point x="159" y="423"/>
      <point x="148" y="383" type="curve"/>
      <point x="155" y="383" type="line"/>
      <point x="190" y="427"/>
      <point x="228" y="432"/>
      <point x="256" y="436" type="curve" smooth="yes"/>
      <point x="322" y="445"/>
      <point x="347" y="482"/>
    </contour>
  </outline>
</glyph>
<glyph name="uni0436" format="1">
  <advance width="871"/>
  <unicode hex="0436"/>
  <outline>
    <contour>
      <point x="862" y="0" type="line"/>
      <point x="660" y="0" type="line"/>
      <point x="660" y="41" type="line"/>
      <point x="550" y="226" type="line"/>
      <point x="503" y="226" type="line"/>
      <point x="503" y="73" type="line" smooth="yes"/>
      <point x="503" y="61"/>
      <point x="512" y="51"/>
      <point x="525" y="50" type="curve" smooth="yes"/>
      <point x="565" y="47" type="line"/>
      <point x="565" y="0" type="line"/>
      <point x="305" y="0" type="line"/>
      <point x="305" y="47" type="line"/>
      <point x="347" y="50" type="line" smooth="yes"/>
      <point x="359" y="51"/>
      <point x="369" y="61"/>
      <point x="369" y="73" type="curve" smooth="yes"/>
      <point x="369" y="226" type="line"/>
      <point x="322" y="226" type="line"/>
      <point x="212" y="41" type="line"/>
      <point x="212" y="0" type="line"/>
      <point x="10" y="0" type="line"/>
      <point x="10" y="47" type="line"/>
      <point x="69" y="52" type="line"/>
      <point x="223" y="311" type="line"/>
      <point x="116" y="433" type="line"/>
      <point x="50" y="441" type="line"/>
      <point x="50" y="488" type="line"/>
      <point x="258" y="488" type="line"/>
      <point x="258" y="441" type="line"/>
      <point x="220" y="437" type="line" smooth="yes"/>
      <point x="210" y="436"/>
      <point x="207" y="427"/>
      <point x="213" y="420" type="curve" smooth="yes"/>
      <point x="347" y="260" type="line"/>
      <point x="369" y="260" type="line"/>
      <point x="369" y="649" type="line"/>
      <point x="299" y="649" type="line"/>
      <point x="299" y="690" type="line"/>
      <point x="452" y="740" type="line"/>
      <point x="503" y="740" type="line"/>
      <point x="503" y="260" type="line"/>
      <point x="525" y="260" type="line"/>
      <point x="659" y="420" type="line" smooth="yes"/>
      <point x="665" y="427"/>
      <point x="662" y="436"/>
      <point x="652" y="437" type="curve" smooth="yes"/>
      <point x="614" y="441" type="line"/>
      <point x="614" y="488" type="line"/>
      <point x="822" y="488" type="line"/>
      <point x="822" y="441" type="line"/>
      <point x="756" y="433" type="line"/>
      <point x="649" y="311" type="line"/>
      <point x="803" y="52" type="line"/>
      <point x="862" y="47" type="line"/>
    </contour>
  </outline>
</glyph>
<glyph name="uni044C" format="1">
  <advance width="585"/>
  <unicode hex="044C"/>
  <outline>
    <contour>
      <point x="90" y="415" type="line" smooth="yes"/>
      <point x="90" y="427"/>
      <point x="80" y="437"/>
      <point x="68" y="438" type="curve" smooth="yes"/>
      <point x="22" y="441" type="line"/>
      <point x="22" y="488" type="line"/>
      <point x="291" y="488" type="line"/>
      <point x="291" y="441" type="line"/>
      <point x="245" y="438" type="line" smooth="yes"/>
      <point x="233" y="437"/>
      <point x="223" y="427"/>
      <point x="223" y="415" type="curve" smooth="yes"/>
      <point x="223" y="333" type="line"/>
      <point x="254" y="344"/>
      <point x="290" y="355"/>
      <point x="318" y="355" type="curve" smooth="yes"/>
      <point x="457" y="355"/>
      <point x="535" y="284"/>
      <point x="535" y="172" type="curve" smooth="yes"/>
      <point x="535" y="83"/>
      <point x="486" y="-12"/>
      <point x="305" y="-12" type="curve" smooth="yes"/>
      <point x="154" y="-12"/>
      <point x="90" y="92"/>
      <point x="90" y="186" type="curve" smooth="yes"/>
    </contour>
    <contour>
      <point x="395" y="172" type="curve" smooth="yes"/>
      <point x="395" y="248"/>
      <point x="373" y="301"/>
      <point x="311" y="301" type="curve" smooth="yes"/>
      <point x="265" y="301"/>
      <point x="223" y="267"/>
      <point x="223" y="185" type="curve" smooth="yes"/>
      <point x="223" y="114" type="line" smooth="yes"/>
      <point x="223" y="78"/>
      <point x="259" y="44"/>
      <point x="301" y="44" type="curve" smooth="yes"/>
      <point x="371" y="44"/>
      <point x="395" y="107"/>
    </contour>
  </outline>
</glyph>
